<svg width="620" height="620" viewBox="0 0 620 620" fill="none" xmlns="http://www.w3.org/2000/svg">
<rect width="620" height="620" rx="310" fill="url(#paint0_linear_61_2435)" fill-opacity="0.85"/>
<path d="M75.6393 199.819C75.6393 201.563 74.5204 203.036 72.7226 203.036C72.367 203.055 72.0115 202.999 71.6784 202.874C71.3452 202.748 71.0416 202.555 70.7866 202.306C70.5316 202.058 70.3307 201.759 70.1965 201.43C70.0622 201.1 69.9976 200.746 70.0065 200.39C70.0329 199.816 70.2083 199.259 70.5154 198.773C70.8225 198.287 71.2508 197.89 71.7581 197.62C71.6335 197.453 71.4696 197.321 71.2811 197.233C71.0926 197.146 70.8853 197.106 70.6778 197.118C66.3877 197.118 63.5636 202.936 63.5636 206.732V217.535C63.5636 220.853 65.6084 221.732 68.9649 221.732V222.805C67.4217 222.751 64.2735 222.604 61.1022 222.604C58.7874 222.604 56.2334 222.751 55.0605 222.805V221.763C57.8769 221.763 58.9186 220.938 58.9186 218.091V202.087C58.9186 199.001 57.9926 197.566 55.0605 197.566V196.493C56.1331 196.594 57.2056 196.648 58.2318 196.648C60.03 196.697 61.8245 196.46 63.5482 195.945V202.342C64.6207 199.371 67.4062 195.799 70.9633 195.799C73.7411 195.799 75.6393 197.62 75.6393 199.819Z" fill="#E0E0E0"/>
<path d="M453.858 161.701C454.214 161.994 454.649 162.176 455.108 162.226C455.578 162.226 455.771 161.67 455.879 160.613H456.72C456.612 161.902 456.543 163.476 456.543 168.098H455.702C455.432 164.61 453.75 161.037 449.675 161.037C447.06 161.037 445.2 162.781 445.2 165.304C445.2 168.638 448.063 169.934 451.373 172.025C455.185 174.409 457.986 176.346 457.986 180.289C457.986 184.919 454.452 187.234 450.185 187.234C448.413 187.309 446.661 186.835 445.169 185.875C444.809 185.589 444.376 185.408 443.919 185.351C443.449 185.351 443.256 185.906 443.148 186.963H442.307C442.415 185.42 442.446 183.345 442.446 178.167H443.294C443.595 182.612 445.277 186.5 449.976 186.5C452.361 186.5 454.745 185.065 454.745 181.609C454.745 178.63 452.43 176.979 449.027 174.903C445.625 172.828 442.484 170.821 442.484 166.678C442.484 162.342 445.763 160.32 449.382 160.32C450.989 160.248 452.571 160.736 453.858 161.701Z" fill="#E0E0E0"/>
<path d="M473.44 222.643C474.605 223.824 474.914 225.182 474.914 227.782V237.967C474.914 239.148 475.2 239.703 476.041 239.703C476.669 239.664 477.259 239.388 477.692 238.932L478.101 239.557C477.196 240.414 475.999 240.895 474.752 240.899C472.19 240.899 471.596 239.356 471.596 237.643C471.033 238.641 470.213 239.469 469.221 240.042C468.229 240.614 467.101 240.91 465.956 240.899C463.494 240.899 461.326 239.665 461.326 236.802C461.326 233.939 463.564 232.604 467.237 231.061C469.69 230.043 471.627 229.418 471.627 227.975V225.699C471.627 222.612 470.084 222.01 468.224 222.01C466.967 222.01 465.423 222.257 464.582 223.314C465.081 223.438 465.523 223.728 465.836 224.136C466.148 224.544 466.313 225.046 466.303 225.56C466.315 225.838 466.266 226.115 466.161 226.372C466.055 226.63 465.894 226.861 465.69 227.051C465.486 227.24 465.244 227.383 464.979 227.469C464.715 227.555 464.434 227.583 464.158 227.55C462.9 227.55 462.167 226.594 462.167 225.274C462.21 224.728 462.391 224.203 462.692 223.745C462.992 223.288 463.404 222.914 463.888 222.658C465.432 221.713 467.217 221.233 469.027 221.277C471.056 221.262 472.599 221.763 473.44 222.643ZM471.596 229.479C471.203 230.074 470.392 230.452 468.085 231.578C466.473 232.35 464.521 233.407 464.521 236.208C464.521 238.415 465.771 239.433 467.46 239.433C468.926 239.433 470.362 238.662 471.596 236.655V229.479Z" fill="#E0E0E0"/>
<path d="M260.987 164.61C260.512 166.053 259.591 167.308 258.357 168.194C257.123 169.08 255.639 169.552 254.12 169.541C248.804 169.541 245.687 165.683 245.687 160.027C245.687 153.577 248.943 149.618 253.981 149.618C258.279 149.618 260.841 152.141 260.841 157.681H249.375C249.286 158.45 249.244 159.223 249.251 159.996C249.251 165.027 252.045 167.967 254.861 167.967C257.06 167.967 258.981 167.041 260.262 164.294L260.987 164.61ZM249.321 156.948H257.315C257.438 153.368 256.288 150.282 253.835 150.282C251.651 150.313 249.714 152.357 249.321 156.948Z" fill="#E0E0E0"/>
<path d="M110.901 326.161L111.92 329.818C111.92 329.818 90.1453 328.167 80.6546 337.866C80.5773 338.291 80.3959 338.691 80.1267 339.029C79.8574 339.367 79.5085 339.633 79.1113 339.803L74.4817 341.817C73.9906 342.016 73.451 342.062 72.9333 341.949C72.4157 341.836 71.9441 341.569 71.5805 341.184C71.5805 341.184 58.4632 339.641 48.8798 349.672L45.1221 353.167L38.5635 304.687L89.6592 275.991L110.901 326.161Z" fill="#E0E0E0"/>
<path d="M112.252 320.089L114.235 326.624C114.235 326.624 91.55 321.64 76.496 339.626L70.9404 306.956C70.9404 306.956 108.587 313.993 112.252 320.089Z" fill="#EBEBEB"/>
<path d="M100.192 272.095C100.192 272.095 71.6812 262.226 62.6611 292.311L76.496 339.626C76.496 339.626 90.1997 311.64 114.829 320.776L100.192 272.095Z" fill="#F5F5F5"/>
<path d="M76.4959 339.626C76.4959 339.626 52.769 333.692 43.0545 351.624L32.8848 307.596L63.1394 293.947L76.4959 339.626Z" fill="#EBEBEB"/>
<path d="M62.6998 292.342C62.6998 292.342 50.8943 279.495 37.0594 285.745L28.2939 290.058L37.7075 334.572C37.7075 334.572 59.3125 324.479 76.5347 339.657L62.6998 292.342Z" fill="#F5F5F5"/>
<path d="M76.4962 339.626C76.3965 338.989 76.2494 338.359 76.0563 337.744C75.686 336.44 75.2076 334.734 74.6366 332.674C73.3789 328.299 71.689 322.45 69.8295 315.984C67.9699 309.518 66.3187 303.639 65.0687 299.287C64.4977 297.227 64.0193 295.521 63.6489 294.217C63.5049 293.59 63.3087 292.976 63.0625 292.381C63.1232 293.023 63.242 293.658 63.4174 294.279C63.6721 295.498 64.1042 297.242 64.6443 299.402C65.7323 303.716 67.3449 309.642 69.2276 316.162C71.1103 322.682 72.885 328.561 74.2122 332.805C74.8603 334.842 75.4082 336.524 75.8171 337.821C75.9863 338.443 76.2136 339.047 76.4962 339.626Z" fill="#E0E0E0"/>
<path d="M35.5391 295.498C35.6008 295.606 36.9357 294.842 39.2813 294.086C40.6495 293.645 42.0542 293.327 43.4789 293.137C45.2245 292.922 46.9864 292.873 48.7412 292.99C50.4911 293.143 52.2223 293.463 53.911 293.947C55.288 294.344 56.628 294.861 57.9156 295.49C60.1147 296.601 61.3184 297.566 61.3878 297.473C61.4573 297.38 61.1332 297.18 60.6162 296.74C60.2937 296.458 59.9507 296.2 59.59 295.968C59.1266 295.647 58.6448 295.354 58.1471 295.089C56.863 294.37 55.5081 293.785 54.1039 293.345C50.6534 292.248 46.996 291.962 43.4172 292.512C41.9578 292.753 40.5259 293.138 39.1425 293.661C38.6167 293.852 38.1015 294.071 37.5992 294.317C37.2103 294.483 36.8338 294.676 36.4727 294.896C36.1358 295.053 35.8217 295.256 35.5391 295.498Z" fill="#E0E0E0"/>
<path d="M35.9709 300.76C36.0249 300.868 37.3675 300.097 39.7055 299.341C41.0749 298.906 42.4793 298.591 43.903 298.399C45.6481 298.178 47.4104 298.127 49.1654 298.245C50.9181 298.4 52.6519 298.723 54.3428 299.209C55.7181 299.605 57.0556 300.121 58.3398 300.753C60.5388 301.856 61.7425 302.828 61.8197 302.728C61.5969 302.45 61.3374 302.203 61.0481 301.995C60.7235 301.715 60.3806 301.458 60.0219 301.223C59.5598 300.898 59.0779 300.601 58.579 300.336C57.2933 299.62 55.9387 299.036 54.5357 298.592C52.8129 298.061 51.0386 297.714 49.2425 297.558C47.44 297.437 45.6299 297.505 43.8413 297.759C42.3778 298 40.9429 298.391 39.5589 298.924C39.032 299.109 38.5167 299.325 38.0157 299.572C37.6257 299.738 37.2491 299.935 36.8891 300.158C36.2641 300.513 35.9478 300.722 35.9709 300.76Z" fill="#E0E0E0"/>
<path d="M37.4523 306.162C37.5063 306.27 38.8489 305.498 41.1869 304.742C42.5563 304.306 43.9606 303.988 45.3844 303.793C47.13 303.578 48.892 303.529 50.6468 303.646C52.3995 303.801 54.1333 304.124 55.8243 304.611C57.1995 305.006 58.5371 305.522 59.8212 306.154C62.0202 307.257 63.224 308.229 63.3011 308.129C63.0784 307.851 62.8188 307.604 62.5295 307.396C62.2045 307.117 61.8617 306.859 61.5033 306.625C61.0392 306.305 60.5574 306.011 60.0604 305.745C58.7768 305.03 57.4249 304.446 56.0249 304.001C52.5627 302.919 48.8973 302.652 45.315 303.222C43.8563 303.444 42.4241 303.813 41.0403 304.325C40.5134 304.51 39.9981 304.727 39.4971 304.973C39.1071 305.14 38.7305 305.336 38.3705 305.56C37.7533 305.907 37.4292 306.123 37.4523 306.162Z" fill="#E0E0E0"/>
<path d="M79.0732 325.413C79.189 325.452 79.6982 323.785 81.1411 321.424C82.9981 318.333 85.5745 315.736 88.6511 313.855C91.7276 311.974 95.2132 310.865 98.8109 310.621C101.573 310.421 103.294 310.722 103.302 310.621C102.921 310.474 102.521 310.383 102.113 310.351C101.012 310.199 99.8989 310.145 98.7878 310.189C95.0865 310.317 91.4812 311.399 88.3216 313.331C85.1621 315.263 82.5556 317.979 80.7553 321.215C80.2041 322.181 79.7443 323.197 79.3819 324.248C79.2276 324.621 79.1238 325.013 79.0732 325.413Z" fill="#E0E0E0"/>
<path d="M77.4375 319.286C77.5532 319.332 78.0625 317.666 79.5054 315.297C81.3623 312.206 83.9388 309.609 87.0153 307.728C90.0919 305.848 93.5775 304.738 97.1752 304.494C99.9375 304.294 101.658 304.602 101.674 304.494C101.288 304.354 100.886 304.266 100.478 304.232C99.3761 304.08 98.2632 304.026 97.152 304.07C93.4519 304.198 89.8476 305.28 86.6884 307.211C83.5292 309.141 80.922 311.855 79.1196 315.089C78.573 316.057 78.1134 317.072 77.7461 318.121C77.5929 318.494 77.4892 318.886 77.4375 319.286Z" fill="#E0E0E0"/>
<path d="M75.8096 313.167C75.9176 313.167 76.4269 311.539 77.8698 309.171C79.7274 306.078 82.3051 303.481 85.3831 301.6C88.4611 299.719 91.9482 298.61 95.5472 298.368C98.3019 298.167 100.023 298.468 100.038 298.368C99.6553 298.218 99.252 298.127 98.842 298.098C97.7404 297.946 96.6275 297.891 95.5164 297.936C91.8163 298.064 88.212 299.146 85.0528 301.076C81.8935 303.007 79.2864 305.72 77.484 308.954C76.9388 309.923 76.4792 310.938 76.1105 311.987C75.9508 312.363 75.8493 312.761 75.8096 313.167Z" fill="#E0E0E0"/>
<path d="M74.1738 307.041C74.2819 307.041 74.7911 305.413 76.234 303.052C78.0917 299.959 80.6693 297.362 83.7473 295.481C86.8253 293.6 90.3124 292.492 93.9115 292.249C96.6738 292.049 98.3868 292.349 98.4022 292.249C98.0184 292.104 97.6155 292.016 97.2063 291.987C96.1051 291.831 94.9918 291.776 93.8806 291.825C90.1805 291.953 86.5763 293.035 83.417 294.965C80.2578 296.896 77.6506 299.609 75.8482 302.843C75.3052 303.811 74.8457 304.823 74.4748 305.868C74.3148 306.241 74.2133 306.637 74.1738 307.041Z" fill="#E0E0E0"/>
<path d="M72.5381 300.915C72.6461 300.961 73.1554 299.294 74.5983 296.925C76.4559 293.833 79.0336 291.236 82.1116 289.355C85.1896 287.474 88.6767 286.365 92.2758 286.123C95.0381 285.922 96.7511 286.231 96.7665 286.123C96.3843 285.971 95.9808 285.88 95.5705 285.853C94.4715 285.701 93.3612 285.646 92.2526 285.691C88.5512 285.818 84.9453 286.899 81.7846 288.829C78.6239 290.76 76.0156 293.474 74.2125 296.709C73.6705 297.68 73.2111 298.694 72.839 299.742C72.6807 300.115 72.5793 300.511 72.5381 300.915Z" fill="#E0E0E0"/>
<path d="M70.9023 294.796C71.0104 294.796 71.5273 293.168 72.9625 290.807C74.8202 287.715 77.3978 285.118 80.4758 283.237C83.5538 281.356 87.0409 280.247 90.64 280.004C93.4024 279.804 95.1153 280.105 95.1308 280.004C94.7473 279.858 94.3442 279.77 93.9348 279.742C92.8365 279.583 91.7257 279.526 90.6169 279.572C86.9143 279.699 83.3074 280.78 80.1463 282.712C76.9853 284.644 74.3777 287.361 72.5767 290.599C72.0306 291.566 71.5735 292.581 71.211 293.631C71.0477 294.001 70.9435 294.394 70.9023 294.796Z" fill="#E0E0E0"/>
<path d="M62.0288 313.685L66.2572 326.856C66.2572 326.856 55.1692 322.018 43.163 325.367L39.7217 311.586C39.7217 311.586 52.9084 306.447 62.0288 313.685Z" fill="#EBEBEB"/>
<path d="M463.603 397.141H479.567V358.985H463.857C462.863 358.987 461.911 359.383 461.208 360.086C460.505 360.789 460.109 361.741 460.107 362.735V393.654C460.107 394.112 460.198 394.566 460.374 394.99C460.549 395.414 460.807 395.799 461.132 396.122C461.456 396.446 461.842 396.703 462.266 396.878C462.69 397.053 463.144 397.142 463.603 397.141Z" fill="#EBEBEB"/>
<path d="M463.603 397.141H463.31C463.024 397.128 462.741 397.076 462.469 396.987C461.939 396.816 461.457 396.522 461.063 396.129C460.669 395.736 460.373 395.255 460.2 394.726C460.017 393.953 459.955 393.157 460.015 392.365C460.015 391.501 460.015 390.56 460.015 389.556C460.015 387.535 460.015 385.243 460.015 382.705C460.015 377.627 460.015 371.594 459.969 364.888C459.969 364.047 459.969 363.222 459.969 362.327C460.069 361.412 460.48 360.559 461.134 359.911C461.804 359.248 462.693 358.853 463.634 358.8C464.56 358.8 465.447 358.8 466.358 358.8H479.799V359.001C479.799 373.97 479.753 387.427 479.737 397.157V397.303H479.598L467.901 397.242L464.737 397.203H463.912H463.634C463.726 397.196 463.819 397.196 463.912 397.203H464.737L467.901 397.165L479.598 397.103L479.46 397.242C479.46 387.512 479.421 374.055 479.398 359.086L479.598 359.286H466.327C465.424 359.286 464.498 359.286 463.634 359.286C462.786 359.337 461.984 359.691 461.373 360.282C460.781 360.867 460.408 361.638 460.316 362.465C460.277 363.283 460.316 364.163 460.316 364.989C460.316 371.694 460.316 377.728 460.27 382.805C460.27 385.344 460.27 387.635 460.27 389.657C460.27 390.66 460.27 391.601 460.27 392.465C460.204 393.24 460.253 394.02 460.416 394.78C460.577 395.292 460.854 395.76 461.227 396.147C461.599 396.534 462.056 396.83 462.561 397.01C462.903 397.09 463.252 397.134 463.603 397.141Z" fill="#E0E0E0"/>
<path d="M474.775 358.823H483.517V344.286H482.252C481.548 344.249 480.884 343.943 480.399 343.431C479.914 342.919 479.643 342.241 479.643 341.535C479.643 340.83 479.914 340.152 480.399 339.64C480.884 339.128 481.548 338.822 482.252 338.785H508.703C509.076 338.765 509.45 338.821 509.801 338.951C510.152 339.08 510.472 339.279 510.744 339.537C511.015 339.794 511.231 340.104 511.379 340.448C511.527 340.791 511.603 341.161 511.603 341.535C511.603 341.909 511.527 342.28 511.379 342.623C511.231 342.967 511.015 343.277 510.744 343.534C510.472 343.791 510.152 343.991 509.801 344.12C509.45 344.249 509.076 344.306 508.703 344.286H507.445V358.823L523.332 358.908C524.044 358.908 524.727 359.191 525.231 359.695C525.734 360.198 526.017 360.881 526.017 361.593V394.541C526.017 395.253 525.734 395.936 525.231 396.44C524.727 396.943 524.044 397.226 523.332 397.226L474.775 397.141C474.063 397.141 473.38 396.858 472.876 396.355C472.373 395.851 472.09 395.168 472.09 394.456V361.508C472.09 360.796 472.373 360.113 472.876 359.61C473.38 359.106 474.063 358.823 474.775 358.823Z" fill="#F5F5F5"/>
<path d="M474.775 358.823C474.578 358.843 474.382 358.874 474.189 358.916C473.622 359.05 473.115 359.367 472.746 359.819C472.477 360.149 472.29 360.537 472.198 360.953C472.138 361.465 472.123 361.981 472.152 362.496C472.152 363.623 472.152 364.919 472.152 366.354C472.152 372.218 472.152 380.683 472.213 391.138C472.213 391.786 472.213 392.45 472.213 393.121V394.132C472.197 394.459 472.228 394.786 472.306 395.104C472.479 395.753 472.9 396.307 473.479 396.647C473.767 396.811 474.084 396.918 474.413 396.964C474.759 396.983 475.107 396.983 475.454 396.964H484.359H503.996H522.939C523.371 397.011 523.808 396.952 524.212 396.79C524.616 396.629 524.974 396.37 525.254 396.038C525.532 395.697 525.711 395.286 525.771 394.849C525.794 394.387 525.794 393.923 525.771 393.461C525.771 392.511 525.771 391.562 525.771 390.606V361.886C525.79 361.57 525.761 361.253 525.686 360.945C525.524 360.346 525.144 359.829 524.621 359.494C524.36 359.332 524.073 359.217 523.772 359.155C523.458 359.105 523.14 359.087 522.823 359.101L507.391 359.016H507.198V358.823C507.198 353.813 507.198 348.967 507.198 344.286V344.109H507.383C507.949 344.127 508.516 344.114 509.081 344.07C509.611 343.981 510.1 343.728 510.477 343.345C510.848 342.966 511.093 342.482 511.179 341.958C511.265 341.435 511.187 340.898 510.956 340.42C510.724 339.951 510.357 339.561 509.902 339.303C509.446 339.044 508.924 338.928 508.402 338.97H505.192H492.931H481.967C481.382 339.033 480.836 339.291 480.416 339.702C479.996 340.113 479.727 340.654 479.652 341.237C479.577 341.82 479.701 342.412 480.003 342.916C480.305 343.42 480.769 343.807 481.318 344.016C482.036 344.2 482.78 344.26 483.517 344.194H483.641V344.309C483.641 350.292 483.641 355.137 483.641 358.846V358.923H483.564L477.067 358.885L483.564 358.846L483.487 358.923C483.487 355.204 483.471 350.359 483.44 344.386L483.564 344.51H482.445C482.048 344.524 481.653 344.461 481.28 344.325C480.676 344.094 480.167 343.667 479.834 343.113C479.502 342.559 479.365 341.909 479.446 341.267C479.527 340.626 479.821 340.03 480.281 339.576C480.741 339.121 481.34 338.835 481.982 338.761C485.454 338.723 489.112 338.761 493.001 338.723H508.51C509.104 338.68 509.698 338.82 510.212 339.122C510.725 339.425 511.135 339.876 511.386 340.417C511.637 340.958 511.718 341.562 511.618 342.15C511.517 342.737 511.241 343.281 510.825 343.707C510.374 344.116 509.808 344.374 509.204 344.448C508.619 344.498 508.032 344.513 507.445 344.494L507.63 344.309C507.63 348.985 507.63 353.831 507.63 358.846L507.437 358.653L522.869 358.731C523.212 358.715 523.556 358.733 523.896 358.785C524.423 358.891 524.91 359.142 525.303 359.51C525.696 359.878 525.978 360.348 526.118 360.868C526.203 361.208 526.237 361.559 526.218 361.91V393.545C526.245 394.029 526.245 394.513 526.218 394.996C526.141 395.499 525.933 395.972 525.616 396.369C525.294 396.761 524.877 397.064 524.405 397.249C523.94 397.414 523.446 397.48 522.954 397.442H514.644H504.019L484.359 397.326H475.454C475.094 397.332 474.733 397.319 474.374 397.288C474.004 397.241 473.647 397.12 473.325 396.933C472.689 396.554 472.222 395.947 472.021 395.235C471.935 394.892 471.901 394.539 471.92 394.186V393.175C471.92 392.504 471.92 391.84 471.92 391.192C471.92 380.737 471.967 372.272 471.982 366.408C471.982 364.942 471.982 363.646 471.982 362.55C471.961 362.034 471.987 361.518 472.059 361.007C472.155 360.577 472.353 360.177 472.638 359.842C473.022 359.385 473.55 359.072 474.135 358.954C474.34 358.878 474.556 358.834 474.775 358.823Z" fill="#E0E0E0"/>
<path d="M478.426 393.831L520.092 393.916C520.975 393.914 521.821 393.562 522.444 392.937C523.068 392.312 523.418 391.466 523.418 390.583V381.324L475.139 381.247V390.506C475.139 391.381 475.484 392.221 476.099 392.844C476.714 393.466 477.55 393.821 478.426 393.831Z" fill="#E0E0E0"/>
<path d="M475.1 364.51C475.208 364.51 475.301 368.538 475.301 373.507C475.301 378.476 475.208 382.512 475.1 382.512C474.992 382.512 474.899 378.484 474.899 373.507C474.899 368.53 474.977 364.51 475.1 364.51Z" fill="#E0E0E0"/>
<path d="M523.263 365.56C523.379 365.56 523.464 369.541 523.464 374.441C523.464 379.34 523.379 383.322 523.263 383.322C523.147 383.322 523.062 379.348 523.062 374.441C523.062 369.533 523.155 365.56 523.263 365.56Z" fill="#E0E0E0"/>
<path d="M469.829 393.893H466.141C465.175 393.893 464.249 393.509 463.566 392.826C462.883 392.143 462.499 391.217 462.499 390.251V381.254H469.829V393.893Z" fill="#E0E0E0"/>
<path d="M524.066 189.965C522.345 189.279 513.263 193.507 505.547 210.891L511.234 221.246C508.524 219.222 506.163 216.77 504.243 213.985C504.222 214.049 504.196 214.111 504.166 214.171C496.187 234.317 485.647 274.009 485.03 287.705C484.706 295.421 486.288 303.391 487.723 308.901C488.88 313.299 490.809 320.212 494.575 322.751L495.848 324.047L502.846 323.831C502.846 323.831 510.833 321.123 517.993 308.291C531.411 284.256 533.032 265.853 533.209 256.239L529.289 257.72L533.564 253.09C533.564 253.09 534.397 242.435 534.845 231.1L520.956 232.458C525.387 229.956 530.116 228.022 535.03 226.702C535.246 219.14 535.223 211.856 534.59 207.789C532.87 196.779 525.902 190.691 524.066 189.965Z" fill="#EBEBEB"/>
<path d="M504.213 222.535C504.376 222.812 504.513 223.104 504.622 223.407C504.892 224.055 505.224 224.865 505.625 225.822C506.481 227.859 507.701 230.66 509.159 233.692C510.617 236.725 512.052 239.417 513.117 241.354L514.383 243.669C514.554 243.941 514.697 244.231 514.807 244.533C514.591 244.298 514.402 244.039 514.244 243.762C513.904 243.237 513.434 242.481 512.87 241.524C511.744 239.626 510.27 236.941 508.796 233.9C507.322 230.86 506.15 228.029 505.363 225.961C504.969 224.927 504.668 224.086 504.475 223.499C504.349 223.189 504.261 222.866 504.213 222.535Z" fill="#E0E0E0"/>
<path d="M507.623 237.82C508.424 239.077 509.113 240.402 509.683 241.779C510.377 243.096 510.945 244.475 511.381 245.899C510.579 244.645 509.89 243.323 509.321 241.948C508.63 240.627 508.062 239.245 507.623 237.82Z" fill="#E0E0E0"/>
<path d="M510.107 256.98C510.382 256.829 510.672 256.707 510.972 256.617C511.535 256.409 512.353 256.108 513.356 255.714C515.965 254.699 518.517 253.545 521.002 252.257C523.483 250.96 525.894 249.533 528.225 247.983C529.12 247.381 529.837 246.895 530.331 246.547C530.573 246.357 530.831 246.189 531.103 246.046C530.895 246.282 530.659 246.491 530.401 246.671C529.938 247.057 529.236 247.589 528.364 248.214C523.766 251.476 518.742 254.09 513.433 255.984C512.415 256.339 511.581 256.601 510.995 256.756C510.71 256.868 510.412 256.943 510.107 256.98Z" fill="#E0E0E0"/>
<path d="M530.339 217.203C529.841 217.774 529.285 218.291 528.68 218.746C527.6 219.657 526.064 220.861 524.289 222.08C522.772 223.121 521.201 224.082 519.583 224.958C518.932 225.355 518.241 225.683 517.522 225.938C518.133 225.483 518.775 225.073 519.444 224.711C520.647 223.986 522.291 222.959 524.073 221.748C525.856 220.536 527.399 219.379 528.518 218.523C529.093 218.041 529.702 217.6 530.339 217.203Z" fill="#E0E0E0"/>
<path d="M525.678 216.601C524.774 217.966 523.669 219.186 522.399 220.22C521.217 221.354 519.872 222.306 518.41 223.044C518.348 222.944 520.13 221.702 522.129 219.919C524.127 218.137 525.586 216.524 525.678 216.601Z" fill="#E0E0E0"/>
<path d="M496.805 309.472C500.285 294.093 502.746 277.751 506.18 262.404C509.544 247.396 518.95 208.962 522.862 193.044C522.892 192.926 522.964 192.824 523.066 192.759C523.168 192.693 523.291 192.668 523.41 192.689C523.533 192.712 523.643 192.782 523.715 192.884C523.787 192.987 523.816 193.113 523.796 193.237C522.646 200.953 521.327 208.669 520.015 216.385C515.678 243.245 508.333 283.839 504.722 310.752C503.063 322.465 500.91 338.391 498.425 349.965L489.328 348.731C492.075 336.81 494.151 321.609 496.805 309.472Z" fill="#E0E0E0"/>
<path d="M496.805 309.471C496.805 309.471 496.805 309.711 496.682 310.158C496.558 310.606 496.45 311.285 496.281 312.164C495.926 313.924 495.424 316.532 494.814 319.88L492.639 332.265C491.782 337.11 490.81 342.65 489.452 348.754L489.344 348.592L498.449 349.819L498.287 349.934C501.373 335.459 503.441 317.998 506.25 298.715C509.058 279.433 512.77 258.345 516.52 236.215C518.426 225.027 520.193 214.093 521.921 203.53C522.353 200.891 522.785 198.275 523.202 195.683L523.526 193.746L523.603 193.26C523.621 193.209 523.624 193.154 523.613 193.101C523.603 193.048 523.578 192.999 523.541 192.959C523.51 192.922 523.469 192.895 523.424 192.879C523.378 192.863 523.329 192.859 523.282 192.867C523.234 192.876 523.19 192.897 523.153 192.928C523.116 192.959 523.087 192.999 523.071 193.044C522.762 194.294 522.458 195.544 522.16 196.794L518.626 211.454C513.997 230.575 509.853 247.789 506.365 262.249C504.73 269.502 503.48 276.138 502.376 281.917C501.273 287.697 500.308 292.72 499.529 296.802C498.75 300.883 498.047 304.039 497.577 306.177C497.33 307.242 497.145 308.052 497.021 308.607C496.89 309.147 496.813 309.425 496.813 309.425C496.813 309.425 496.867 309.147 496.983 308.6C497.098 308.052 497.268 307.226 497.492 306.161C497.939 304.016 498.588 300.853 499.375 296.771C500.162 292.689 501.072 287.681 502.152 281.871C503.233 276.061 504.467 269.448 506.088 262.187C509.552 247.72 513.68 230.498 518.264 211.37C519.416 206.596 520.591 201.709 521.79 196.709C522.093 195.454 522.399 194.188 522.708 192.913C522.75 192.806 522.819 192.712 522.907 192.639C522.996 192.566 523.102 192.517 523.215 192.497C523.328 192.477 523.444 192.486 523.553 192.524C523.661 192.562 523.758 192.626 523.835 192.712C523.906 192.794 523.957 192.893 523.982 192.999C524.008 193.105 524.007 193.216 523.981 193.322L523.904 193.808C523.804 194.456 523.696 195.096 523.588 195.745C523.171 198.337 522.739 200.961 522.314 203.599C520.594 214.163 518.827 225.104 516.913 236.292C513.171 258.43 509.521 279.502 506.62 298.792C503.719 318.083 501.651 335.529 498.564 350.012V350.143H498.433L489.336 348.893H489.189V348.746C490.563 342.666 491.551 337.126 492.43 332.288C493.31 327.45 494.051 323.299 494.668 319.942C495.285 316.586 495.825 313.954 496.211 312.226L496.651 310.228C496.743 309.726 496.805 309.471 496.805 309.471Z" fill="#E0E0E0"/>
<path d="M493.402 264.201C493.922 264.795 494.396 265.427 494.822 266.092C495.671 267.272 496.859 268.893 498.248 270.621C499.637 272.349 500.972 273.854 501.944 274.934C502.501 275.493 503.017 276.091 503.487 276.724C502.851 276.255 502.265 275.722 501.736 275.135C500.399 273.777 499.132 272.353 497.939 270.868C496.543 269.132 495.378 267.48 494.583 266.238C494.126 265.598 493.73 264.916 493.402 264.201Z" fill="#E0E0E0"/>
<path d="M484.397 365.39C484.397 365.39 488.07 358.206 489.328 354.426C490.239 351.694 488.325 348.253 488.325 348.253L489.536 346.709L498.927 347.605L499.644 349.742C499.644 349.742 496.419 352.095 496.288 355.49C496.157 358.885 497.893 366.756 497.893 366.756C494.393 369.78 491.817 373.73 490.462 378.152L489.845 378.044L491.689 366.74H492.005C492.383 366.691 492.745 366.556 493.063 366.346C493.381 366.136 493.648 365.857 493.842 365.529C493.986 365.261 494.074 364.966 494.1 364.662C494.126 364.359 494.09 364.054 493.994 363.765C493.898 363.476 493.744 363.209 493.541 362.982C493.338 362.755 493.092 362.571 492.816 362.443C492.237 362.158 491.573 362.102 490.955 362.283C490.336 362.464 489.808 362.871 489.475 363.422C489.328 363.69 489.239 363.985 489.211 364.289C489.184 364.593 489.22 364.899 489.316 365.189C489.412 365.479 489.567 365.745 489.771 365.972C489.975 366.199 490.223 366.382 490.501 366.509L489.058 377.929L488.286 377.805C488.286 377.805 488.263 368.963 484.397 365.39Z" fill="#EBEBEB"/>
<path d="M484.397 365.39C484.397 365.39 484.459 365.444 484.567 365.552L485.038 366.022C485.239 366.246 485.447 366.555 485.709 366.902C485.976 367.333 486.218 367.779 486.435 368.237C487.726 371.257 488.398 374.505 488.41 377.789L488.302 377.658L489.073 377.782L488.927 377.898C489.328 374.603 489.799 370.745 490.323 366.47L490.416 366.64C489.901 366.4 489.486 365.986 489.245 365.471C489.004 364.956 488.951 364.373 489.097 363.823C489.275 363.256 489.637 362.765 490.127 362.428C490.616 362.092 491.204 361.928 491.797 361.964C492.411 361.988 492.998 362.219 493.464 362.62C493.707 362.825 493.906 363.077 494.049 363.361C494.193 363.645 494.278 363.955 494.299 364.272C494.321 364.589 494.278 364.908 494.175 365.209C494.071 365.509 493.908 365.786 493.695 366.022C493.26 366.508 492.667 366.822 492.021 366.91H491.689L491.867 366.748C491.288 370.343 490.671 374.14 490.038 378.06L489.868 377.828L490.485 377.928L490.262 378.067C490.871 376.021 491.759 374.068 492.901 372.265C494.247 370.156 495.881 368.245 497.754 366.586L497.692 366.779C496.998 363.689 496.482 360.561 496.149 357.411C496.083 356.641 496.083 355.867 496.149 355.097C496.232 354.335 496.446 353.594 496.782 352.905C497.448 351.597 498.397 350.453 499.56 349.556L499.49 349.757C499.248 349.032 499.009 348.322 498.772 347.627L498.927 347.743L489.536 346.817L489.668 346.763L488.456 348.306V348.144C489.098 349.362 489.509 350.689 489.668 352.056C489.734 352.688 489.703 353.325 489.575 353.947C489.421 354.519 489.23 355.081 489.004 355.629C488.163 357.735 487.33 359.487 486.643 360.93C485.956 362.373 485.393 363.468 485.007 364.217C484.822 364.572 484.675 364.85 484.56 365.058C484.512 365.156 484.458 365.252 484.397 365.343C484.431 365.24 484.472 365.14 484.521 365.043C484.629 364.826 484.76 364.541 484.93 364.178L486.473 360.86C487.137 359.418 487.947 357.643 488.788 355.544C489.007 355.009 489.19 354.46 489.336 353.901C489.455 353.301 489.481 352.687 489.413 352.08C489.25 350.759 488.845 349.48 488.217 348.306L488.171 348.222L488.225 348.144L489.428 346.601L489.482 346.532H489.567L498.958 347.411H499.073L499.112 347.519L499.83 349.649L499.876 349.772L499.768 349.85C498.659 350.717 497.755 351.818 497.121 353.075C496.804 353.724 496.603 354.424 496.527 355.143C496.462 355.882 496.462 356.626 496.527 357.365C496.862 360.499 497.377 363.611 498.07 366.686V366.802L497.985 366.879C496.139 368.51 494.529 370.39 493.202 372.465C492.078 374.24 491.205 376.161 490.609 378.175L490.555 378.345H490.385L489.768 378.245H489.567L489.606 378.044C490.246 374.124 490.864 370.328 491.458 366.748V366.586H491.905C492.464 366.507 492.978 366.234 493.356 365.814C493.717 365.402 493.9 364.864 493.865 364.317C493.804 363.786 493.552 363.294 493.156 362.934C492.76 362.574 492.247 362.369 491.712 362.357C491.204 362.333 490.701 362.477 490.283 362.767C489.864 363.057 489.553 363.477 489.397 363.962C489.274 364.434 489.32 364.934 489.527 365.375C489.734 365.817 490.09 366.171 490.532 366.377L490.64 366.431V366.555C490.092 370.822 489.59 374.672 489.166 377.967V378.106H489.035L488.263 377.975H488.155V377.867C488.161 374.611 487.535 371.385 486.311 368.368C485.862 367.266 485.213 366.256 484.397 365.39Z" fill="#E0E0E0"/>
<path d="M499.999 349.572C496.257 349.711 492.391 349.009 488.695 348.415Z" fill="#EBEBEB"/>
<path d="M488.695 348.415C490.588 348.529 492.474 348.745 494.343 349.063C495.887 349.256 497.306 349.379 498.333 349.433C498.891 349.426 499.449 349.473 499.999 349.572C498.104 349.817 496.182 349.78 494.297 349.464C492.754 349.271 491.326 349.016 490.316 348.824C489.761 348.753 489.217 348.616 488.695 348.415Z" fill="#E0E0E0"/>
<path d="M483.966 344.171C483.966 344.055 489.467 343.97 496.242 343.97C503.017 343.97 508.526 344.055 508.526 344.171C508.526 344.287 503.025 344.371 496.242 344.371C489.46 344.371 483.966 344.279 483.966 344.171Z" fill="#E0E0E0"/>
<path d="M537.947 477.721C537.947 477.836 425.509 477.921 286.843 477.921C148.178 477.921 35.709 477.836 35.709 477.721C35.709 477.605 148.124 477.52 286.843 477.52C425.563 477.52 537.947 477.613 537.947 477.721Z" fill="#263238"/>
<path d="M358.342 190.436C360.186 185.706 363.705 184.14 367.277 184.14C369.97 184.14 371.644 184.865 372.848 186.123C374.16 187.558 374.7 189.433 374.7 193.068V207.103C374.7 210.035 375.803 210.884 378.705 210.884V211.987C377.47 211.933 374.7 211.779 372.385 211.779C370.07 211.779 367.586 211.933 366.482 211.987V210.884C369.021 210.884 369.97 210.035 369.97 207.103V191.872C369.97 188.615 369.484 185.814 365.711 185.814C361.398 185.814 358.342 189.765 358.342 195.336V207.103C358.342 210.035 359.291 210.884 361.807 210.884V211.987C360.703 211.933 358.234 211.779 355.927 211.779C353.62 211.779 350.819 211.933 349.607 211.987V210.884C352.509 210.884 353.612 210.035 353.612 207.103V177.08C353.612 173.924 352.663 172.45 349.607 172.45V171.355C350.711 171.463 351.814 171.509 352.871 171.509C354.725 171.555 356.574 171.295 358.342 170.737V190.436Z" fill="white"/>
<path d="M278.156 199.911C278.035 200.149 277.849 200.348 277.62 200.484C277.391 200.621 277.127 200.69 276.86 200.683C276.251 200.683 275.788 200.405 275.556 199.371L275.294 198.159C275.062 197.133 274.885 196.447 273.928 196.447H272.778V199.224C272.778 200.104 272.933 200.235 273.758 200.266V200.513C273.388 200.513 272.778 200.513 272.215 200.513C271.652 200.513 271.004 200.513 270.672 200.513V200.266C271.49 200.266 271.652 200.104 271.652 199.224V193.213C271.652 192.334 271.49 192.21 270.672 192.172V191.933C271.011 191.933 271.621 191.933 272.146 191.933C272.917 191.933 273.689 191.933 273.974 191.933C275.927 191.933 276.899 192.859 276.899 194.039C276.899 194.88 276.366 196.084 274.545 196.354H274.692C275.121 196.367 275.531 196.537 275.843 196.831C276.156 197.125 276.35 197.524 276.389 197.951L276.69 199.186C276.837 199.888 276.976 200.181 277.308 200.181C277.639 200.181 277.747 200.004 277.971 199.718L278.156 199.911ZM272.755 193.229V196.207H273.527C275.248 196.207 275.626 195.312 275.626 194.201C275.626 192.928 275.078 192.187 273.612 192.187C272.94 192.187 272.778 192.396 272.778 193.213L272.755 193.229Z" fill="white"/>
<path d="M383.21 225.042C383.21 225.814 383.21 226.447 383.28 226.925H382.747C382.423 223.731 382.092 222.635 379.221 222.635H377.971V235.691C377.971 237.55 378.365 237.836 380.286 237.897V238.36C379.514 238.314 378.156 238.291 376.914 238.291C375.533 238.291 374.244 238.291 373.519 238.36V237.897C375.448 237.836 375.834 237.55 375.834 235.691V222.635H374.592C371.721 222.635 371.374 223.731 371.065 226.925H370.533C370.579 226.447 370.602 225.783 370.602 225.042C370.602 224.471 370.556 223.275 370.433 222.11C372.338 222.172 375.062 222.172 376.914 222.172C378.766 222.172 381.451 222.172 383.357 222.11C383.28 223.306 383.21 224.471 383.21 225.042Z" fill="white"/>
<path d="M186.389 219.047C188.557 219.047 190.432 219.819 190.432 222.249C190.432 225.336 187.462 229.325 180.779 229.325C177.292 229.325 173.835 228.268 173.835 226.161C173.835 224.479 175.972 222.944 178.164 221.948H178.032C176.821 221.948 174.576 221.632 174.576 219.317C174.576 217.835 175.602 216.439 178.889 214.957C177.898 214.592 177.053 213.914 176.481 213.026C175.908 212.138 175.641 211.088 175.718 210.035C175.718 206.246 178.465 204.633 182.091 204.633C182.914 204.626 183.733 204.728 184.529 204.934C184.697 203.826 185.114 202.771 185.749 201.848C186.024 201.486 186.381 201.194 186.789 200.995C187.198 200.795 187.647 200.694 188.102 200.698C188.344 200.68 188.588 200.714 188.816 200.798C189.044 200.882 189.252 201.014 189.424 201.185C189.597 201.357 189.731 201.563 189.817 201.79C189.903 202.018 189.939 202.261 189.923 202.504C189.928 202.722 189.889 202.939 189.808 203.142C189.727 203.345 189.605 203.529 189.451 203.683C189.297 203.837 189.113 203.959 188.91 204.04C188.707 204.121 188.49 204.16 188.272 204.155C187.022 204.155 186.651 203.329 186.435 201.979C185.998 202.461 185.68 203.04 185.509 203.669C185.355 204.135 185.236 204.612 185.154 205.096C186.178 205.439 187.058 206.111 187.659 207.007C188.259 207.903 188.545 208.974 188.472 210.05C188.472 213.846 185.71 215.513 182.091 215.513C181.231 215.526 180.374 215.417 179.545 215.189C178.002 216.015 176.644 216.856 176.644 217.92C176.644 218.692 177.122 219.062 178.295 219.062L186.389 219.047ZM188.056 223.869C188.056 222.604 187.531 221.948 185.424 221.948H179.005C178.34 222.267 177.775 222.759 177.367 223.373C176.96 223.987 176.726 224.7 176.69 225.436C176.69 227.751 179.421 228.738 181.728 228.738C184.599 228.707 188.063 227.164 188.063 223.869H188.056ZM178.943 210.035C178.943 213.723 180.154 214.873 182.076 214.873C183.997 214.873 185.224 213.723 185.224 210.035C185.224 206.346 184.012 205.204 182.076 205.204C180.139 205.204 178.943 206.331 178.943 210.035Z" fill="white"/>
<path d="M186.52 243.568C183.341 243.7 182.723 244.186 182.723 247.588V270.806C182.723 274.209 183.341 274.664 186.52 274.826V275.775C185.054 275.683 182.723 275.636 180.578 275.636C178.132 275.636 175.895 275.683 174.591 275.775V274.834C177.77 274.695 178.364 274.217 178.364 270.814V245.76L167.091 275.991H166.319L154.521 245.621V270.312C154.521 273.738 155.139 274.672 158.773 274.811V275.775C157.654 275.683 155.602 275.636 153.997 275.636C152.392 275.636 150.686 275.683 149.66 275.775V274.834C152.831 274.695 153.449 273.761 153.449 270.335V247.588C153.449 244.186 152.831 243.73 149.66 243.568V242.596C150.686 242.689 152.423 242.735 153.997 242.735C155.37 242.735 156.967 242.689 158.001 242.596L168.279 269.749L178.31 242.743H180.524C182.669 242.743 185 242.696 186.466 242.604L186.52 243.568Z" fill="white"/>
<path d="M266.884 183.113C263.712 183.244 263.095 184.186 263.095 187.612V215.536H262.015L242.362 185.166V209.857C242.362 213.283 242.979 214.224 246.614 214.356V215.297C245.495 215.204 243.435 215.158 241.837 215.158C240.24 215.158 238.527 215.204 237.493 215.297V214.356C240.672 214.224 241.289 213.283 241.289 209.857V187.133C241.289 183.731 240.672 183.275 237.493 183.113V182.172C238.527 182.264 240.263 182.311 241.837 182.311C243.211 182.311 244.468 182.264 245.495 182.172L262.015 207.635V187.612C262.015 184.186 261.421 183.244 257.771 183.113V182.172C258.89 182.264 260.942 182.311 262.539 182.311C264.137 182.311 265.857 182.264 266.884 182.172V183.113Z" fill="white"/>
<path d="M131.521 267.396C131.521 269.078 132.03 269.857 133.65 269.857V270.436C133.064 270.382 132.477 270.359 131.922 270.359C130.937 270.329 129.954 270.462 129.013 270.752V267.457C128.705 268.429 128.095 269.278 127.273 269.88C126.45 270.482 125.457 270.806 124.437 270.806C123.905 270.839 123.372 270.762 122.871 270.579C122.371 270.395 121.913 270.11 121.528 269.741C120.834 268.97 120.602 267.851 120.602 266.092V259.085C120.602 257.403 120.116 256.616 118.488 256.616V256.03C119.075 256.084 119.661 256.107 120.224 256.107C121.205 256.132 122.184 256.005 123.126 255.729V266.701C123.126 268.437 123.234 269.911 125.24 269.911C127.423 269.911 129.013 267.697 129.013 264.849V259.085C129.013 257.403 128.511 256.616 126.891 256.616V256.03C127.477 256.084 128.064 256.107 128.619 256.107C129.6 256.134 130.579 256.006 131.521 255.729V267.396Z" fill="white"/>
<path d="M141.697 227.511C141.697 236.817 136.065 242.944 126.265 242.944C124.977 242.944 122.114 242.82 120.278 242.82C118.279 242.82 116.173 242.82 114.984 242.944V242.087C117.886 241.964 118.449 241.524 118.449 238.414V217.249C118.449 214.163 117.886 213.7 114.984 213.576V212.72C115.964 212.781 117.569 212.866 119.151 212.866H120.2C122.16 212.82 125.015 212.735 126.643 212.735C136.798 212.72 141.697 217.982 141.697 227.511ZM122.407 217.164V238.53C122.407 241.516 122.97 242.203 125.625 242.203C134.93 242.203 137.454 236.987 137.454 227.681C137.454 218.106 134.429 213.491 125.579 213.491C122.94 213.491 122.376 214.224 122.376 217.133L122.407 217.164Z" fill="white"/>
<path d="M207.832 169.757C208.007 169.924 208.232 170.027 208.473 170.05C208.928 170.05 209.198 169.441 209.314 168.09H210.085C209.993 169.695 209.962 171.833 209.962 175.652H209.19C208.727 172.859 208.465 171.972 207.539 170.783C206.833 169.935 205.941 169.262 204.932 168.816C203.922 168.371 202.823 168.164 201.721 168.214C197.431 168.214 194.607 172.666 194.607 179.788C194.607 187.126 197.801 191.177 202.045 191.177C204.021 191.177 206.428 190.452 207.663 188.669C208.627 187.381 208.851 186.131 209.206 183.469H209.977C209.977 187.45 209.977 189.695 210.101 191.37H209.329C209.214 190.019 208.99 189.425 208.558 189.425C208.311 189.452 208.076 189.545 207.879 189.695C206.157 191.09 204.006 191.845 201.791 191.833C195.548 191.833 191.374 187.45 191.374 179.919C191.374 172.558 195.703 167.573 201.822 167.573C204.022 167.559 206.154 168.334 207.832 169.757Z" fill="white"/>
<path d="M230.378 198.847C230.378 199.781 230.655 200.205 231.558 200.205V200.537C231.234 200.537 230.902 200.491 230.594 200.491C230.05 200.472 229.508 200.545 228.989 200.707V198.878C228.818 199.417 228.48 199.889 228.024 200.223C227.567 200.557 227.016 200.738 226.45 200.737C226.157 200.756 225.862 200.713 225.586 200.612C225.31 200.511 225.058 200.354 224.845 200.151C224.428 199.565 224.246 198.843 224.336 198.129V194.271C224.336 193.338 224.058 192.906 223.163 192.906V192.582C223.487 192.582 223.811 192.628 224.12 192.628C224.666 192.642 225.21 192.569 225.733 192.412V198.492C225.733 199.449 225.787 200.259 226.898 200.259C228.009 200.259 228.989 199.04 228.989 197.458V194.248C228.989 193.315 228.711 192.882 227.808 192.882V192.558C228.14 192.558 228.464 192.605 228.773 192.605C229.316 192.619 229.858 192.546 230.378 192.389V198.847Z" fill="white"/>
<path d="M155.595 222.149C154.892 222.149 154.754 222.288 154.754 223.036V228.16C154.754 228.931 154.892 229.016 155.595 229.016H156.366C157.655 229.016 157.909 228.522 158.056 227.087H158.295C158.295 227.303 158.295 227.596 158.295 227.928C158.295 228.26 158.295 228.7 158.365 229.248C157.663 229.248 156.69 229.248 156.004 229.248C155.317 229.248 154.021 229.248 153.01 229.248V229.047C153.712 229.047 153.843 228.908 153.843 228.16V223.036C153.843 222.265 153.712 222.18 153.01 222.149V221.948C153.295 221.948 153.781 221.948 154.329 221.948C154.877 221.948 155.325 221.948 155.641 221.948L155.595 222.149Z" fill="white"/>
<path d="M395.949 234.294C395.255 234.294 395.116 234.425 395.116 235.181V240.281C395.116 241.053 395.255 241.138 395.949 241.138H396.721C398.009 241.138 398.264 240.644 398.418 239.209H398.65C398.65 239.425 398.65 239.726 398.65 240.057C398.65 240.389 398.65 240.829 398.727 241.377C398.025 241.377 397.053 241.377 396.358 241.377C395.664 241.377 394.383 241.377 393.364 241.377V241.169C394.066 241.169 394.205 241.03 394.205 240.281V235.165C394.205 234.394 394.066 234.309 393.364 234.278V234.108C393.657 234.108 394.136 234.108 394.691 234.108C395.247 234.108 395.679 234.108 395.995 234.108L395.949 234.294Z" fill="white"/>
<path d="M167.477 194.795C167.477 201.794 163.349 206.501 157.524 206.501C151.698 206.501 147.608 202.326 147.608 195.158C147.608 188.159 151.736 183.453 157.554 183.453C163.503 183.453 167.477 187.627 167.477 194.795ZM150.726 195.034C150.726 201.701 153.812 205.93 157.67 205.93C161.736 205.93 164.368 201.392 164.368 194.911C164.368 188.252 161.281 184.016 157.423 184.016C153.341 184.016 150.726 188.584 150.726 195.034Z" fill="white"/>
<path d="M150.517 284.556V284.873C150.1 284.965 149.637 285.289 149.275 286.238L145.579 295.76H145.332L141.474 285.876C141.157 285.104 140.702 284.888 140.394 284.873V284.556C140.818 284.556 141.474 284.602 142.076 284.602C142.886 284.602 143.619 284.602 144.082 284.556V284.873C143.31 284.873 142.971 285.011 142.971 285.451C142.985 285.718 143.047 285.979 143.156 286.223L146.003 293.777L148.565 287.133C148.744 286.728 148.851 286.295 148.881 285.852C148.881 285.158 148.411 284.927 147.508 284.903V284.587C148.11 284.587 148.765 284.633 149.321 284.633C149.721 284.628 150.12 284.603 150.517 284.556Z" fill="white"/>
<path d="M103.396 208.515C104.229 209.364 104.453 210.343 104.453 212.211V219.533C104.453 220.382 104.654 220.783 105.263 220.783C105.712 220.752 106.133 220.554 106.444 220.228L106.737 220.675C106.09 221.292 105.231 221.637 104.337 221.64C102.493 221.64 102.069 220.536 102.069 219.325C101.659 220.035 101.068 220.623 100.356 221.03C99.6444 221.437 98.8374 221.647 98.0177 221.64C96.2507 221.64 94.6689 220.752 94.6689 218.692C94.6689 216.632 96.2816 215.683 98.9128 214.58C100.68 213.808 102.069 213.391 102.069 212.334V210.706C102.069 208.492 100.988 208.052 99.6227 208.052C99.1456 208.009 98.6648 208.071 98.2143 208.233C97.7637 208.396 97.3542 208.655 97.0146 208.993C97.3714 209.082 97.6876 209.289 97.9118 209.58C98.1359 209.872 98.2549 210.23 98.2492 210.598C98.2573 210.798 98.222 210.997 98.1456 211.182C98.0693 211.366 97.9538 211.532 97.807 211.668C97.6603 211.804 97.4859 211.906 97.2958 211.968C97.1057 212.029 96.9045 212.049 96.706 212.026C96.5005 212.026 96.2973 211.983 96.1099 211.899C95.9225 211.814 95.7553 211.691 95.6194 211.537C95.4835 211.383 95.3821 211.201 95.322 211.005C95.2619 210.808 95.2444 210.601 95.2708 210.397C95.305 210.005 95.4366 209.627 95.6535 209.299C95.8704 208.97 96.1658 208.701 96.5131 208.515C97.6227 207.84 98.9028 207.497 100.201 207.527C101.353 207.438 102.495 207.792 103.396 208.515ZM102.069 213.422C101.783 213.847 101.204 214.117 99.5455 214.965C98.3881 215.513 96.9838 216.277 96.9838 218.306C96.9838 219.888 97.8865 220.621 99.098 220.621C100.155 220.621 101.181 220.066 102.069 218.623V213.422Z" fill="white"/>
<path d="M85.9029 250.876C88.2177 251.185 88.8967 252.335 88.8967 253.523C88.8967 255.197 87.5696 256.37 85.3705 256.37C84.9307 256.37 84.0511 256.37 82.8474 256.37C82.1606 256.37 81.4353 256.37 81.0264 256.37V256.077C82.0217 256.031 82.2146 255.884 82.2146 254.811V247.527C82.2146 246.463 82.0217 246.308 81.0264 246.27V245.977C81.4353 245.977 82.1761 246.015 82.8165 246.015C83.7424 246.015 84.6838 246.015 85.031 246.015C87.0912 246.015 88.1174 246.964 88.1174 248.33C88.1174 249.364 87.531 250.382 85.8875 250.884L85.9029 250.876ZM83.5881 247.527V250.853H84.5758C86.3041 250.853 86.7362 249.734 86.7362 248.453C86.7362 247.011 86.1498 246.27 84.6761 246.27C83.7733 246.27 83.5804 246.517 83.5804 247.527H83.5881ZM87.4461 253.461C87.4461 251.972 86.6745 251.1 84.8304 251.1H83.5958V254.811C83.5958 255.838 83.7887 256.031 84.6992 256.031C86.6051 256.031 87.4307 255.112 87.4307 253.461H87.4461Z" fill="white"/>
<path d="M450.201 211.084C451.127 211.084 451.922 211.423 451.922 212.442C451.922 213.753 450.664 215.459 447.817 215.459C446.327 215.459 444.861 215.003 444.861 214.108C444.861 213.391 445.772 212.743 446.705 212.318H446.651C446.134 212.318 445.185 212.179 445.185 211.199C445.185 210.567 445.617 209.973 447.022 209.34C446.597 209.188 446.234 208.901 445.988 208.524C445.741 208.146 445.625 207.699 445.656 207.249C445.656 205.636 446.829 204.934 448.364 204.934C448.716 204.929 449.066 204.971 449.406 205.057C449.478 204.589 449.655 204.144 449.923 203.753C450.042 203.601 450.194 203.478 450.368 203.393C450.542 203.309 450.733 203.266 450.926 203.267C451.03 203.259 451.133 203.274 451.231 203.31C451.328 203.345 451.416 203.402 451.49 203.475C451.563 203.549 451.62 203.637 451.656 203.734C451.691 203.832 451.706 203.936 451.698 204.039C451.701 204.132 451.685 204.225 451.651 204.311C451.617 204.398 451.565 204.477 451.499 204.543C451.433 204.608 451.355 204.66 451.268 204.694C451.181 204.728 451.089 204.744 450.996 204.741C450.471 204.741 450.309 204.394 450.224 203.823C450.035 204.026 449.9 204.272 449.83 204.54C449.762 204.739 449.71 204.943 449.676 205.15C450.113 205.293 450.489 205.579 450.745 205.96C451.001 206.342 451.121 206.798 451.088 207.257C451.088 208.869 449.915 209.571 448.372 209.571C448.017 209.567 447.664 209.516 447.323 209.417C446.659 209.772 446.088 210.127 446.088 210.582C446.088 210.906 446.289 211.068 446.79 211.068L450.201 211.084ZM450.911 213.136C450.911 212.596 450.687 212.318 449.792 212.318H447.06C446.775 212.451 446.531 212.659 446.356 212.92C446.18 213.181 446.08 213.485 446.065 213.8C446.065 214.795 447.23 215.204 448.21 215.204C449.445 215.204 450.911 214.548 450.911 213.136ZM447.053 207.249C447.053 208.792 447.57 209.301 448.388 209.301C449.205 209.301 449.73 208.815 449.73 207.249C449.73 205.682 449.213 205.189 448.388 205.189C447.562 205.189 447.03 205.675 447.03 207.249H447.053Z" fill="white"/>
<path d="M290.386 175.521C291.312 175.521 292.107 175.861 292.107 176.887C292.107 178.191 290.849 179.896 288.002 179.896C286.521 179.896 285.047 179.441 285.047 178.546C285.047 177.828 285.957 177.18 286.891 176.756H286.829C286.312 176.756 285.363 176.617 285.363 175.637C285.363 175.004 285.803 174.41 287.2 173.777C286.775 173.625 286.412 173.339 286.165 172.961C285.919 172.584 285.802 172.136 285.834 171.686C285.834 170.074 287.007 169.371 288.55 169.371C288.899 169.367 289.246 169.409 289.584 169.495C289.656 169.027 289.833 168.581 290.101 168.191C290.22 168.039 290.372 167.916 290.546 167.831C290.72 167.747 290.911 167.704 291.104 167.705C291.207 167.698 291.31 167.713 291.407 167.75C291.504 167.786 291.592 167.843 291.665 167.916C291.738 167.989 291.794 168.076 291.831 168.173C291.867 168.27 291.882 168.373 291.876 168.476C291.878 168.569 291.861 168.662 291.827 168.749C291.792 168.835 291.741 168.914 291.675 168.98C291.61 169.046 291.531 169.099 291.445 169.134C291.359 169.17 291.267 169.187 291.173 169.186C290.641 169.186 290.479 168.831 290.402 168.26C290.216 168.465 290.081 168.711 290.008 168.978C289.942 169.177 289.893 169.38 289.862 169.587C290.297 169.733 290.671 170.019 290.927 170.4C291.182 170.781 291.304 171.236 291.274 171.694C291.274 173.307 290.093 174.009 288.558 174.009C288.19 174.013 287.824 173.966 287.47 173.87C286.814 174.225 286.235 174.58 286.235 175.035C286.235 175.359 286.436 175.521 286.937 175.521H290.386ZM291.096 177.574C291.096 177.033 290.88 176.756 289.977 176.756H287.246C286.962 176.891 286.721 177.099 286.545 177.36C286.37 177.621 286.268 177.924 286.251 178.237C286.251 179.232 287.416 179.641 288.396 179.641C289.63 179.641 291.096 178.986 291.096 177.574ZM287.238 171.686C287.238 173.229 287.755 173.746 288.573 173.746C289.391 173.746 289.916 173.253 289.916 171.686C289.916 170.12 289.399 169.626 288.581 169.626C287.763 169.626 287.223 170.112 287.223 171.686H287.238Z" fill="white"/>
<path d="M424.807 226.91C431.605 227.813 433.573 231.169 433.573 234.626C433.573 239.51 429.715 242.951 423.256 242.951C421.983 242.951 419.398 242.828 415.88 242.828C413.866 242.828 411.744 242.828 410.548 242.951V242.087C413.465 241.964 414.035 241.524 414.035 238.399V217.134C414.035 214.047 413.465 213.569 410.548 213.445V212.581C411.744 212.666 413.904 212.712 415.795 212.712C418.495 212.712 421.242 212.627 422.276 212.627C428.295 212.627 431.335 215.413 431.335 219.379C431.335 222.419 429.614 225.374 424.807 226.84V226.91ZM418.002 217.134V226.84H420.895C425.949 226.84 427.207 223.569 427.207 219.842C427.207 215.621 425.486 213.445 421.188 213.445C418.58 213.43 418.002 214.163 418.002 217.134ZM429.259 234.479C429.259 230.112 427.06 227.581 421.605 227.581H418.002V238.438C418.002 241.439 418.565 242.002 421.227 242.002C426.867 241.987 429.275 239.286 429.275 234.464L429.259 234.479Z" fill="white"/>
<path d="M426.621 196.871C425.617 196.871 424.236 196.871 423.256 196.871C422.276 196.871 420.44 196.871 418.997 196.871V196.578C419.992 196.578 420.185 196.385 420.185 195.32V188.036C420.185 186.964 419.992 186.817 418.997 186.771V186.478C420.44 186.524 422.369 186.524 423.256 186.524C424.144 186.524 425.417 186.524 426.343 186.478C426.266 187.164 426.235 187.874 426.235 188.214C426.231 188.518 426.247 188.822 426.281 189.124H425.942C425.749 187.388 425.525 186.809 423.974 186.809H422.755C421.759 186.809 421.567 186.956 421.567 188.028V191.493H422.539C423.812 191.493 423.789 190.258 423.905 189.556H424.236C424.236 190.181 424.19 190.598 424.19 190.937C424.19 191.277 424.19 191.424 424.19 191.64C424.19 192.118 424.19 192.604 424.275 193.723H423.935C423.82 192.789 423.804 191.786 422.531 191.786H421.551V195.312C421.551 196.377 421.744 196.532 422.739 196.532H423.812C425.648 196.532 426.019 195.868 426.219 193.924H426.559C426.559 194.194 426.52 194.579 426.52 194.988C426.52 195.397 426.543 196.13 426.621 196.871Z" fill="white"/>
<path d="M128.65 191.748C128.839 191.155 129.216 190.64 129.725 190.282C130.233 189.924 130.845 189.742 131.467 189.765C131.787 189.737 132.111 189.779 132.414 189.886C132.717 189.994 132.994 190.166 133.226 190.39C133.697 191.011 133.905 191.792 133.805 192.566V196.995C133.805 197.921 134.152 198.191 135.07 198.191V198.538C134.684 198.538 133.805 198.468 133.079 198.468C132.354 198.468 131.536 198.522 131.212 198.538V198.191C131.984 198.191 132.315 197.921 132.315 196.995V192.203C132.315 191.169 132.161 190.289 130.973 190.289C129.607 190.289 128.658 191.539 128.658 193.291V196.995C128.658 197.921 128.951 198.191 129.746 198.191V198.538C129.399 198.538 128.619 198.468 127.894 198.468C127.169 198.468 126.281 198.522 125.903 198.538V198.191C126.814 198.191 127.161 197.921 127.161 196.995V187.535C127.161 186.539 126.86 186.076 125.903 186.076V185.729C126.251 185.729 126.598 185.775 126.93 185.775C127.514 185.794 128.098 185.715 128.658 185.544L128.65 191.748Z" fill="white"/>
<path d="M402.77 207.365C402.77 208.136 402.994 208.453 403.719 208.453V208.715C403.457 208.715 403.195 208.715 402.948 208.715C402.511 208.701 402.076 208.761 401.659 208.892V207.426C401.522 207.859 401.25 208.236 400.884 208.504C400.518 208.771 400.076 208.916 399.622 208.916C399.385 208.93 399.148 208.896 398.925 208.815C398.702 208.734 398.498 208.608 398.326 208.445C397.991 207.973 397.845 207.392 397.917 206.817V203.73C397.917 202.959 397.701 202.635 396.976 202.635V202.372C397.238 202.372 397.5 202.372 397.747 202.372C398.183 202.385 398.618 202.328 399.036 202.203V207.087C399.036 207.859 399.09 208.507 399.977 208.507C400.864 208.507 401.659 207.527 401.659 206.261V203.692C401.659 202.92 401.435 202.596 400.71 202.596V202.334C400.973 202.334 401.235 202.334 401.482 202.334C401.918 202.347 402.353 202.29 402.77 202.164V207.365Z" fill="white"/>
<path d="M396.643 173.792C397.477 174.641 397.7 175.621 397.7 177.488V184.811C397.7 185.66 397.901 186.053 398.472 186.053C398.92 186.025 399.341 185.829 399.653 185.505L399.946 185.953C399.299 186.569 398.44 186.915 397.546 186.917C395.702 186.917 395.278 185.814 395.278 184.603C394.868 185.313 394.277 185.901 393.565 186.308C392.853 186.714 392.046 186.925 391.227 186.917C389.46 186.917 387.878 186.03 387.878 183.97C387.878 181.91 389.491 180.961 392.129 179.85C393.889 179.078 395.278 178.669 395.278 177.612V175.976C395.278 173.769 394.197 173.33 392.832 173.33C392.355 173.287 391.874 173.349 391.424 173.512C390.973 173.674 390.564 173.933 390.224 174.271C390.582 174.357 390.9 174.563 391.124 174.855C391.349 175.147 391.467 175.508 391.458 175.876C391.466 176.076 391.431 176.275 391.355 176.459C391.278 176.644 391.163 176.81 391.016 176.946C390.869 177.081 390.695 177.184 390.505 177.245C390.315 177.307 390.113 177.327 389.915 177.303C389.709 177.303 389.506 177.259 389.319 177.173C389.132 177.088 388.965 176.964 388.83 176.809C388.695 176.654 388.595 176.472 388.535 176.275C388.476 176.078 388.46 175.871 388.488 175.667C388.517 175.276 388.646 174.898 388.862 174.57C389.078 174.242 389.374 173.975 389.722 173.792C390.832 173.117 392.112 172.774 393.41 172.805C394.575 172.706 395.733 173.06 396.643 173.792ZM395.316 178.692C395.031 179.117 394.452 179.387 392.793 180.235C391.636 180.783 390.231 181.547 390.231 183.576C390.231 185.12 391.134 185.891 392.346 185.891C393.403 185.891 394.429 185.343 395.316 183.901V178.692Z" fill="white"/>
<path d="M312.987 169.294C313.394 169.627 313.89 169.834 314.414 169.888C314.947 169.888 315.186 169.255 315.332 168.052H316.297C316.173 169.518 316.088 171.323 316.088 176.593H315.132C314.823 172.604 312.902 168.538 308.264 168.538C305.278 168.538 303.156 170.521 303.156 173.406C303.156 177.203 306.428 178.715 310.186 181.069C314.538 183.785 317.724 185.991 317.724 190.482C317.724 195.798 313.697 198.43 308.835 198.43C306.815 198.523 304.817 197.983 303.118 196.886C302.702 196.563 302.206 196.358 301.683 196.292C301.158 196.292 300.911 196.933 300.764 198.136H299.808C299.931 196.416 299.97 194.008 299.97 188.106H300.926C301.274 193.167 303.195 197.604 308.55 197.604C311.266 197.604 313.951 195.968 313.951 192.025C313.951 188.63 311.32 186.709 307.439 184.386C303.558 182.064 299.977 179.757 299.977 175.004C299.977 170.058 303.72 167.751 307.848 167.751C309.688 167.65 311.506 168.196 312.987 169.294Z" fill="white"/>
<path d="M332.354 186.964C334.669 187.272 335.348 188.422 335.348 189.61C335.348 191.277 334.021 192.457 331.822 192.457C331.382 192.457 330.502 192.411 329.299 192.411C328.612 192.411 327.886 192.411 327.478 192.457V192.164C328.473 192.118 328.666 191.971 328.666 190.899V183.615C328.666 182.55 328.473 182.396 327.478 182.349V182.056C327.886 182.056 328.62 182.102 329.268 182.102C330.194 182.102 331.135 182.102 331.482 182.102C333.542 182.102 334.569 183.059 334.569 184.417C334.569 185.459 333.974 186.47 332.339 186.971L332.354 186.964ZM330.039 183.615V186.933H331.027C332.755 186.933 333.187 185.814 333.187 184.541C333.187 183.098 332.593 182.349 331.127 182.349C330.201 182.349 330.039 182.604 330.039 183.615ZM333.897 189.541C333.897 188.052 333.126 187.226 331.274 187.226H330.039V190.899C330.039 191.925 330.232 192.118 331.143 192.118C333.033 192.118 333.897 191.192 333.897 189.541Z" fill="white"/>
<path d="M439.468 424.333H390.595C386.995 424.333 383.543 422.903 380.998 420.357C378.452 417.812 377.022 414.36 377.022 410.76C377.025 407.161 378.455 403.71 381 401.165C383.545 398.62 386.996 397.19 390.595 397.188H439.468V424.333Z" fill="#ADD8E6"/>
<path d="M425.942 397.188H535.341C535.738 397.188 536.118 397.345 536.399 397.626C536.68 397.907 536.838 398.287 536.838 398.684V400.228C536.838 400.625 536.68 401.005 536.399 401.286C536.118 401.567 535.738 401.725 535.341 401.725H425.942V397.218V397.188Z" fill="#ADD8E6"/>
<path d="M425.942 419.826H535.341C535.738 419.826 536.118 419.984 536.399 420.265C536.68 420.545 536.838 420.926 536.838 421.323V422.866C536.838 423.263 536.68 423.644 536.399 423.925C536.118 424.206 535.738 424.363 535.341 424.363H425.942V419.857V419.826Z" fill="#ADD8E6"/>
<path d="M533.527 419.827H438.318C435.913 419.827 433.606 418.872 431.905 417.172C430.203 415.472 429.246 413.165 429.244 410.76C429.246 408.355 430.203 406.049 431.905 404.349C433.606 402.649 435.913 401.694 438.318 401.694H533.527C532.261 404.549 531.608 407.637 531.608 410.76C531.608 413.883 532.261 416.971 533.527 419.827Z" fill="#F5F5F5"/>
<g opacity="0.3">
<path d="M429.244 424.333H390.664C387.053 424.333 383.59 422.899 381.037 420.346C378.483 417.794 377.047 414.332 377.045 410.721C377.045 407.132 378.471 403.69 381.009 401.151C383.547 398.613 386.989 397.188 390.579 397.188H430.301C420.448 403.144 421.188 417.404 429.244 424.333Z" fill="black"/>
</g>
<path d="M521.961 411.579C521.961 411.671 502.416 411.741 478.319 411.741C454.221 411.741 434.669 411.671 434.669 411.579C434.669 411.486 454.206 411.417 478.319 411.417C502.431 411.417 521.961 411.517 521.961 411.579Z" fill="#263238"/>
<path d="M530.942 415.637C530.942 415.722 511.397 415.799 487.3 415.799C463.203 415.799 443.65 415.722 443.65 415.637C443.65 415.552 463.187 415.475 487.3 415.475C511.413 415.475 530.942 415.544 530.942 415.637Z" fill="#263238"/>
<path d="M528.296 405.892C528.296 405.976 508.751 406.054 484.654 406.054C460.556 406.054 441.004 405.976 441.004 405.892C441.004 405.807 460.541 405.729 484.654 405.729C508.766 405.729 528.296 405.799 528.296 405.892Z" fill="#263238"/>
<path d="M424.468 422.435C424.468 422.527 415.317 422.597 404.036 422.597C392.755 422.597 383.604 422.527 383.604 422.435C383.604 422.342 392.755 422.272 404.036 422.272C415.317 422.272 424.468 422.381 424.468 422.435Z" fill="#263238"/>
<path d="M424.468 399.441C424.468 399.533 415.317 399.603 404.036 399.603C392.755 399.603 383.604 399.533 383.604 399.441C383.604 399.348 392.755 399.279 404.036 399.279C415.317 399.279 424.468 399.348 424.468 399.441Z" fill="#263238"/>
<path d="M371.667 443.392H434.599V478.353H371.667C367.03 478.353 362.583 476.511 359.304 473.232C356.025 469.953 354.183 465.506 354.183 460.868C354.183 456.231 356.025 451.784 359.304 448.505C362.583 445.226 367.03 443.384 371.667 443.384V443.392Z" fill="#ADD8E6"/>
<path d="M417.184 443.392H558.079C558.588 443.392 559.077 443.594 559.437 443.954C559.798 444.315 560 444.803 560 445.313V447.265C560 447.775 559.798 448.263 559.437 448.624C559.077 448.984 558.588 449.186 558.079 449.186H417.184V443.384V443.392Z" fill="#ADD8E6"/>
<path d="M417.184 472.535H558.079C558.588 472.535 559.077 472.738 559.437 473.098C559.798 473.458 560 473.947 560 474.456V476.409C560 476.918 559.798 477.407 559.437 477.767C559.077 478.127 558.588 478.33 558.079 478.33H417.184V472.535Z" fill="#ADD8E6"/>
<path d="M555.734 472.535H433.118C431.584 472.536 430.066 472.235 428.649 471.649C427.232 471.062 425.945 470.203 424.86 469.118C423.776 468.034 422.916 466.747 422.33 465.33C421.744 463.913 421.442 462.394 421.443 460.861C421.442 459.328 421.744 457.809 422.33 456.392C422.916 454.975 423.776 453.688 424.86 452.604C425.945 451.519 427.232 450.659 428.649 450.073C430.066 449.487 431.584 449.186 433.118 449.187H555.734C554.108 452.864 553.268 456.84 553.268 460.861C553.268 464.882 554.108 468.858 555.734 472.535Z" fill="#F5F5F5"/>
<g opacity="0.4">
<path d="M421.443 478.361H371.474C369.203 478.361 366.954 477.913 364.855 477.044C362.757 476.174 360.85 474.9 359.244 473.293C357.639 471.687 356.365 469.78 355.497 467.681C354.628 465.582 354.182 463.333 354.183 461.061C354.183 456.375 356.044 451.881 359.358 448.567C362.672 445.253 367.166 443.392 371.852 443.392H422.778C410.109 451.061 411.058 469.449 421.443 478.361Z" fill="black"/>
</g>
<path d="M540.842 461.956C540.842 462.049 515.672 462.118 484.63 462.118C453.589 462.118 428.419 462.049 428.419 461.956C428.419 461.863 453.581 461.794 484.63 461.794C515.68 461.794 540.842 461.871 540.842 461.956Z" fill="#263238"/>
<path d="M552.408 467.133C552.408 467.226 527.239 467.295 496.197 467.295C465.155 467.295 439.985 467.226 439.985 467.133C439.985 467.041 465.147 466.971 496.197 466.971C527.246 466.971 552.408 467.064 552.408 467.133Z" fill="#263238"/>
<path d="M548.997 457.142C548.997 457.234 523.827 457.304 492.786 457.304C461.744 457.304 436.574 457.234 436.574 457.142C436.574 457.049 461.736 456.979 492.786 456.979C523.835 456.979 548.997 457.057 548.997 457.142Z" fill="#263238"/>
<path d="M415.286 475.907C415.286 475.999 403.503 476.069 388.974 476.069C374.445 476.069 362.662 475.999 362.662 475.907C362.662 475.814 374.437 475.745 388.974 475.745C403.511 475.745 415.286 475.814 415.286 475.907Z" fill="#263238"/>
<path d="M415.286 446.3C415.286 446.393 403.503 446.462 388.974 446.462C374.445 446.462 362.662 446.393 362.662 446.3C362.662 446.208 374.437 446.138 388.974 446.138C403.511 446.138 415.286 446.208 415.286 446.3Z" fill="#263238"/>
<path d="M455.486 443.523H400.154C397.494 443.523 394.942 442.466 393.061 440.585C391.18 438.704 390.123 436.152 390.123 433.492C390.123 430.831 391.18 428.28 393.061 426.399C394.942 424.518 397.494 423.461 400.154 423.461H455.486V443.523Z" fill="#455A64"/>
<path d="M441.327 423.5H555.803C556.212 423.5 556.604 423.662 556.894 423.952C557.183 424.241 557.346 424.633 557.346 425.043V426.632C557.346 427.042 557.183 427.434 556.894 427.723C556.604 428.013 556.212 428.175 555.803 428.175H441.327V423.461V423.5Z" fill="#455A64"/>
<path d="M441.327 438.808H555.803C556.212 438.808 556.604 438.971 556.894 439.26C557.183 439.55 557.346 439.942 557.346 440.351V441.941C557.346 442.35 557.183 442.743 556.894 443.032C556.604 443.321 556.212 443.484 555.803 443.484H441.327V438.77V438.808Z" fill="#455A64"/>
<path d="M553.905 438.808H450.085C448.681 438.808 447.335 438.25 446.342 437.258C445.35 436.265 444.792 434.919 444.792 433.515C444.792 432.111 445.35 430.765 446.342 429.772C447.335 428.779 448.681 428.222 450.085 428.222H553.905C551.235 431.745 551.235 435.274 553.905 438.808Z" fill="#F5F5F5"/>
<g opacity="0.3">
<path d="M444.792 443.523H400.039C397.405 443.523 394.879 442.477 393.017 440.614C391.155 438.752 390.108 436.226 390.108 433.592C390.108 432.262 390.371 430.945 390.882 429.717C391.392 428.489 392.141 427.374 393.084 426.437C394.026 425.499 395.145 424.756 396.376 424.252C397.607 423.748 398.925 423.493 400.255 423.5H445.895C435.587 427.89 436.358 438.407 444.792 443.523Z" fill="black"/>
</g>
<path d="M541.799 432.682C541.799 432.766 521.351 432.844 496.135 432.844C470.919 432.844 450.464 432.766 450.464 432.682C450.464 432.597 470.904 432.52 496.135 432.52C521.367 432.52 541.799 432.589 541.799 432.682Z" fill="#263238"/>
<path d="M551.196 435.497C551.196 435.59 530.749 435.66 505.533 435.66C480.317 435.66 459.861 435.59 459.861 435.497C459.861 435.405 480.301 435.335 505.533 435.335C530.764 435.335 551.196 435.436 551.196 435.497Z" fill="#263238"/>
<path d="M439.792 441.532C439.792 441.617 430.216 441.694 418.411 441.694C406.605 441.694 397.037 441.617 397.037 441.532C397.037 441.447 406.605 441.37 418.411 441.37C430.216 441.37 439.792 441.439 439.792 441.532Z" fill="#263238"/>
<path d="M439.792 425.861C439.792 425.953 430.216 426.023 418.411 426.023C406.605 426.023 397.037 425.953 397.037 425.861C397.037 425.768 406.605 425.699 418.411 425.699C430.216 425.699 439.792 425.768 439.792 425.861Z" fill="#263238"/>
<path d="M556.003 423.499C556.003 423.592 520.888 423.661 477.585 423.661C434.283 423.661 399.167 423.592 399.167 423.499C399.167 423.407 434.267 423.337 477.585 423.337C520.903 423.337 556.003 423.415 556.003 423.499Z" fill="#263238"/>
<path d="M469.606 406.007V416.879L473.38 414.464L477.585 416.879V406.007H469.606Z" fill="#ADD8E6"/>
<path d="M385.247 303.785H162.924V337.974H385.247V303.785Z" fill="#EBEBEB"/>
<path d="M380.531 319.556H378.988V298.615C379.001 297.331 378.503 296.095 377.604 295.178C376.706 294.26 375.48 293.737 374.197 293.723H175.848C174.791 293.735 173.782 294.166 173.043 294.921C172.304 295.676 171.894 296.694 171.905 297.751V314.356H170.361V297.751C170.351 296.285 170.923 294.875 171.952 293.83C172.98 292.786 174.382 292.192 175.848 292.18H374.197C375.89 292.194 377.508 292.88 378.696 294.086C379.883 295.293 380.544 296.922 380.531 298.615V319.556Z" fill="#E0E0E0"/>
<path d="M409.435 316.408H141.827V332.257H409.435V316.408Z" fill="#455A64"/>
<path d="M146.728 310.914H136.921V337.288H146.728V310.914Z" fill="#263238"/>
<path d="M146.735 331.424C145.127 331.608 143.507 331.67 141.89 331.609C140.275 331.669 138.657 331.607 137.052 331.424C138.657 331.236 140.275 331.174 141.89 331.239C143.507 331.174 145.128 331.236 146.735 331.424Z" fill="#455A64"/>
<path d="M146.735 328.569C145.127 328.752 143.507 328.814 141.89 328.754C140.275 328.814 138.657 328.752 137.052 328.569C138.657 328.385 140.275 328.323 141.89 328.384C143.507 328.323 145.127 328.385 146.735 328.569Z" fill="#455A64"/>
<path d="M146.735 325.714C145.127 325.898 143.507 325.96 141.89 325.9C140.275 325.96 138.657 325.898 137.052 325.714C138.657 325.531 140.275 325.469 141.89 325.529C143.507 325.469 145.127 325.531 146.735 325.714Z" fill="#455A64"/>
<path d="M146.735 322.844C145.127 323.027 143.507 323.089 141.89 323.029C140.275 323.089 138.657 323.027 137.052 322.844C138.657 322.66 140.275 322.598 141.89 322.659C143.507 322.598 145.127 322.66 146.735 322.844Z" fill="#455A64"/>
<path d="M146.735 320.004C145.128 320.193 143.507 320.255 141.89 320.19C140.275 320.254 138.657 320.193 137.052 320.004C138.657 319.821 140.275 319.759 141.89 319.819C143.507 319.759 145.127 319.821 146.735 320.004Z" fill="#455A64"/>
<path d="M146.735 317.157C145.127 317.34 143.507 317.402 141.89 317.342C140.275 317.402 138.657 317.34 137.052 317.157C138.657 316.964 140.275 316.899 141.89 316.964C143.508 316.899 145.128 316.963 146.735 317.157Z" fill="#455A64"/>
<path d="M146.735 314.302C145.127 314.486 143.507 314.547 141.89 314.487C140.275 314.547 138.657 314.485 137.052 314.302C138.657 314.114 140.275 314.052 141.89 314.117C143.507 314.052 145.128 314.114 146.735 314.302Z" fill="#455A64"/>
<path d="M146.735 334.418C145.127 334.601 143.507 334.663 141.89 334.603C140.275 334.663 138.657 334.601 137.052 334.418C138.657 334.224 140.275 334.16 141.89 334.225C143.508 334.16 145.128 334.224 146.735 334.418Z" fill="#455A64"/>
<path d="M411.242 310.914H401.435V337.288H411.242V310.914Z" fill="#263238"/>
<path d="M411.241 331.424C408.021 331.67 404.786 331.67 401.565 331.424C404.786 331.177 408.021 331.177 411.241 331.424Z" fill="#455A64"/>
<path d="M411.241 328.569C408.021 328.816 404.786 328.816 401.565 328.569C404.786 328.322 408.021 328.322 411.241 328.569Z" fill="#455A64"/>
<path d="M411.241 325.714C408.021 325.961 404.786 325.961 401.565 325.714C404.786 325.467 408.021 325.467 411.241 325.714Z" fill="#455A64"/>
<path d="M411.241 322.844C408.021 323.091 404.786 323.091 401.565 322.844C404.786 322.597 408.021 322.597 411.241 322.844Z" fill="#455A64"/>
<path d="M411.241 320.004C408.021 320.251 404.786 320.251 401.565 320.004C404.786 319.757 408.021 319.757 411.241 320.004Z" fill="#455A64"/>
<path d="M411.241 317.157C408.021 317.404 404.786 317.404 401.565 317.157C404.786 316.9 408.021 316.9 411.241 317.157Z" fill="#455A64"/>
<path d="M411.241 314.302C408.021 314.549 404.786 314.549 401.565 314.302C404.786 314.055 408.021 314.055 411.241 314.302Z" fill="#455A64"/>
<path d="M411.241 334.418C408.021 334.664 404.786 334.664 401.565 334.418C404.786 334.16 408.021 334.16 411.241 334.418Z" fill="#455A64"/>
<path d="M364.042 205.845H186.712V350.714H364.042V205.845Z" fill="white"/>
<path d="M364.043 350.714C364.043 349.31 363.981 293.145 363.873 205.845L364.043 206.015H186.728L186.928 205.814C186.928 258.214 186.928 307.666 186.928 350.683L186.751 350.506L364.081 350.683L186.751 350.861H186.52V350.683C186.52 307.682 186.52 258.214 186.52 205.814V205.614H186.736H364.051H364.22V205.776C364.112 293.145 364.043 349.318 364.043 350.714Z" fill="#263238"/>
<path d="M159.267 325.575V313.693H181.79V319.634H250.092C250.869 319.641 251.637 319.801 252.352 320.105C253.067 320.409 253.715 320.851 254.259 321.406C254.803 321.961 255.232 322.617 255.522 323.338C255.812 324.058 255.957 324.829 255.949 325.606V340.591H268.85V325.575C268.85 324.359 269.328 323.192 270.181 322.326C271.035 321.46 272.194 320.964 273.41 320.946C274.625 320.966 275.782 321.463 276.634 322.329C277.486 323.195 277.963 324.361 277.963 325.575V341.239H291.381V326.355C291.362 324.387 292.126 322.493 293.503 321.088C294.88 319.683 296.759 318.883 298.727 318.862H365.031V312.142H390.339V349.588H159.267V325.575Z" fill="#263238"/>
<path d="M145.894 453.585C144.883 461.039 144.096 465.684 145.747 470.684C146.317 472.4 147.412 473.895 148.876 474.957C150.341 476.018 152.102 476.594 153.911 476.602L395.099 478.029C399.251 478.029 402.553 475.221 404.019 471.27C405.663 466.841 404.112 456.61 402.746 451.687L390.747 387.312L390.369 340.089L158.965 340.421L159.189 386.432L145.894 453.585Z" fill="#ADD8E6"/>
<g opacity="0.4">
<path d="M169.467 394.958L162.113 450.197L383.857 449.464L377.314 394.958H169.467Z" fill="black"/>
<path d="M226.789 450.197L234.366 455.645H309.721L315.801 449.696L226.789 450.197Z" fill="black"/>
</g>
<path d="M391.944 363.291H156.218C155.826 363.288 155.439 363.208 155.078 363.055C154.718 362.902 154.391 362.679 154.116 362.4C153.842 362.12 153.625 361.789 153.478 361.426C153.332 361.062 153.259 360.673 153.263 360.282C153.257 359.491 153.564 358.73 154.118 358.166C154.672 357.602 155.427 357.281 156.218 357.272H391.944C392.734 357.281 393.489 357.602 394.043 358.166C394.597 358.73 394.905 359.491 394.899 360.282C394.903 360.673 394.83 361.062 394.683 361.426C394.537 361.789 394.32 362.12 394.046 362.4C393.771 362.679 393.444 362.902 393.083 363.055C392.723 363.208 392.335 363.288 391.944 363.291Z" fill="#ADD8E6"/>
<path d="M391.944 363.291C392.366 363.28 392.781 363.183 393.163 363.006C393.717 362.735 394.174 362.302 394.475 361.764C394.776 361.227 394.905 360.61 394.845 359.997C394.802 359.547 394.657 359.112 394.42 358.727C394.184 358.342 393.862 358.016 393.48 357.774C392.639 357.165 391.474 357.358 390.293 357.335H382.052L329.529 357.396L156.234 357.458C155.739 357.46 155.254 357.595 154.829 357.849C154.404 358.103 154.055 358.466 153.819 358.901C153.583 359.335 153.464 359.822 153.472 360.315C153.48 360.809 153.616 361.292 153.865 361.717C154.114 362.142 154.472 362.492 154.903 362.731C155.333 362.97 155.819 363.089 156.311 363.075H242.253L320.185 363.122L372.708 363.183L386.991 363.222H372.708L320.185 363.284L242.253 363.322H196.242H156.311C155.751 363.337 155.196 363.202 154.705 362.931C154.214 362.659 153.804 362.262 153.518 361.779C153.231 361.293 153.075 360.741 153.066 360.177C153.056 359.613 153.194 359.056 153.464 358.561C153.737 358.064 154.137 357.649 154.624 357.358C155.111 357.068 155.667 356.913 156.234 356.91L329.529 356.972L382.052 357.034H390.293H392.014C392.562 357.044 393.096 357.207 393.557 357.504C393.904 357.73 394.202 358.024 394.433 358.368C394.664 358.712 394.824 359.099 394.903 359.506C394.981 359.912 394.977 360.331 394.89 360.736C394.803 361.141 394.636 361.525 394.398 361.864C394.096 362.295 393.682 362.636 393.202 362.852C392.912 362.984 392.601 363.068 392.284 363.098C392.176 363.172 392.062 363.236 391.944 363.291Z" fill="#263238"/>
<path d="M321.342 411.585H318.826V449.564H321.342V411.585Z" fill="#E0E0E0"/>
<path d="M327.06 412.025C324.935 413.238 322.531 413.877 320.085 413.877C317.638 413.877 315.234 413.238 313.109 412.025V406.385H327.06V412.025Z" fill="#263238"/>
<path d="M327.253 406.763C327.253 408.006 324.043 409.009 320.084 409.009C316.126 409.009 312.924 408.006 312.924 406.763C312.924 405.521 316.126 404.51 320.084 404.51C324.043 404.51 327.253 405.521 327.253 406.763Z" fill="#455A64"/>
<path d="M182.376 399.788H179.86V449.973H182.376V399.788Z" fill="#E0E0E0"/>
<path d="M188.063 400.228C185.937 401.438 183.534 402.075 181.088 402.075C178.642 402.075 176.238 401.438 174.112 400.228V394.603H188.063V400.228Z" fill="#263238"/>
<path d="M188.278 394.958C188.278 396.2 185.076 397.211 181.118 397.211C177.159 397.211 173.957 396.2 173.957 394.958C173.957 393.715 177.159 392.712 181.118 392.712C185.076 392.712 188.278 393.715 188.278 394.958Z" fill="#455A64"/>
<path d="M191.79 411.925H189.274V449.965H191.79V411.925Z" fill="#E0E0E0"/>
<path d="M197.5 412.349C195.376 413.563 192.973 414.201 190.528 414.201C188.083 414.201 185.68 413.563 183.557 412.349V406.709H197.5V412.349Z" fill="#263238"/>
<path d="M197.692 407.103C197.692 408.345 194.49 409.348 190.531 409.348C186.573 409.348 183.363 408.345 183.363 407.103C183.363 405.86 186.573 404.85 190.531 404.85C194.49 404.85 197.692 405.86 197.692 407.103Z" fill="#455A64"/>
<path d="M188.063 423.638C185.937 424.849 183.534 425.485 181.088 425.485C178.642 425.485 176.238 424.849 174.112 423.638V417.99H188.063V423.638Z" fill="#263238"/>
<path d="M188.278 418.368C188.278 419.611 185.076 420.621 181.118 420.621C177.159 420.621 173.957 419.611 173.957 418.368C173.957 417.126 177.159 416.123 181.118 416.123C185.076 416.123 188.278 417.126 188.278 418.368Z" fill="#455A64"/>
<path d="M209.736 411.925H207.221V449.965H209.736V411.925Z" fill="#E0E0E0"/>
<path d="M215.455 412.349C213.332 413.563 210.929 414.201 208.483 414.201C206.038 414.201 203.635 413.563 201.512 412.349V406.709H215.455V412.349Z" fill="#263238"/>
<path d="M215.647 407.103C215.647 408.345 212.437 409.348 208.479 409.348C204.521 409.348 201.318 408.345 201.318 407.103C201.318 405.86 204.528 404.85 208.479 404.85C212.429 404.85 215.647 405.86 215.647 407.103Z" fill="#455A64"/>
<path d="M228.726 451.416L226.789 449.965H226.025V411.925H228.541L228.726 451.416Z" fill="#E0E0E0"/>
<path d="M234.258 412.349C232.134 413.563 229.729 414.201 227.283 414.201C224.836 414.201 222.432 413.563 220.308 412.349V406.709H234.258V412.349Z" fill="#263238"/>
<path d="M234.444 407.103C234.444 408.345 231.242 409.348 227.284 409.348C223.325 409.348 220.123 408.345 220.123 407.103C220.123 405.86 223.325 404.85 227.284 404.85C231.242 404.85 234.444 405.86 234.444 407.103Z" fill="#455A64"/>
<path d="M247.075 411.925H244.56V450.305H247.075V411.925Z" fill="#E0E0E0"/>
<path d="M252.792 412.349C250.668 413.563 248.264 414.201 245.817 414.201C243.371 414.201 240.966 413.563 238.842 412.349V406.709H252.792V412.349Z" fill="#263238"/>
<path d="M252.977 407.103C252.977 408.345 249.775 409.348 245.817 409.348C241.858 409.348 238.656 408.345 238.656 407.103C238.656 405.86 241.858 404.85 245.817 404.85C249.775 404.85 252.977 405.86 252.977 407.103Z" fill="#455A64"/>
<path d="M265.392 411.925H262.877V450.305H265.392V411.925Z" fill="#E0E0E0"/>
<path d="M271.103 412.349C268.98 413.563 266.577 414.201 264.132 414.201C261.686 414.201 259.283 413.563 257.16 412.349V406.709H271.103V412.349Z" fill="#263238"/>
<path d="M271.296 407.103C271.296 408.345 268.093 409.348 264.135 409.348C260.177 409.348 256.967 408.345 256.967 407.103C256.967 405.86 260.177 404.85 264.135 404.85C268.093 404.85 271.296 405.86 271.296 407.103Z" fill="#455A64"/>
<path d="M284.004 411.925H281.488V450.305H284.004V411.925Z" fill="#E0E0E0"/>
<path d="M289.721 412.349C287.598 413.563 285.195 414.201 282.75 414.201C280.304 414.201 277.901 413.563 275.778 412.349V406.709H289.721V412.349Z" fill="#263238"/>
<path d="M289.915 407.103C289.915 408.345 286.705 409.348 282.746 409.348C278.788 409.348 275.586 408.345 275.586 407.103C275.586 405.86 278.796 404.85 282.746 404.85C286.697 404.85 289.915 405.86 289.915 407.103Z" fill="#455A64"/>
<path d="M302.731 411.925H300.216V450.305H302.731V411.925Z" fill="#E0E0E0"/>
<path d="M308.433 412.349C306.31 413.563 303.907 414.201 301.462 414.201C299.016 414.201 296.613 413.563 294.49 412.349V406.709H308.433V412.349Z" fill="#263238"/>
<path d="M308.633 407.103C308.633 408.345 305.424 409.348 301.465 409.348C297.507 409.348 294.305 408.345 294.305 407.103C294.305 405.86 297.515 404.85 301.465 404.85C305.416 404.85 308.633 405.86 308.633 407.103Z" fill="#455A64"/>
<path d="M340.169 411.925H337.653V449.464H340.169V411.925Z" fill="#E0E0E0"/>
<path d="M345.879 412.349C343.756 413.563 341.353 414.201 338.908 414.201C336.463 414.201 334.06 413.563 331.937 412.349V406.709H345.879V412.349Z" fill="#263238"/>
<path d="M346.072 407.103C346.072 408.345 342.87 409.348 338.911 409.348C334.953 409.348 331.743 408.345 331.743 407.103C331.743 405.86 334.953 404.85 338.911 404.85C342.87 404.85 346.072 405.86 346.072 407.103Z" fill="#455A64"/>
<path d="M359.096 411.925H356.581V449.464H359.096V411.925Z" fill="#E0E0E0"/>
<path d="M364.814 412.349C362.69 413.561 360.288 414.199 357.843 414.199C355.398 414.199 352.995 413.561 350.871 412.349V406.709H364.822L364.814 412.349Z" fill="#263238"/>
<path d="M365 407.103C365 408.345 361.798 409.348 357.839 409.348C353.881 409.348 350.679 408.345 350.679 407.103C350.679 405.86 353.881 404.85 357.839 404.85C361.798 404.85 365 405.86 365 407.103Z" fill="#455A64"/>
<path d="M200.932 399.788H198.417V449.973H200.932V399.788Z" fill="#E0E0E0"/>
<path d="M206.651 400.228C204.525 401.438 202.121 402.075 199.676 402.075C197.23 402.075 194.826 401.438 192.7 400.228V394.603H206.651V400.228Z" fill="#263238"/>
<path d="M206.836 394.958C206.836 396.2 203.633 397.211 199.675 397.211C195.717 397.211 192.507 396.2 192.507 394.958C192.507 393.715 195.717 392.712 199.675 392.712C203.633 392.712 206.836 393.715 206.836 394.958Z" fill="#455A64"/>
<path d="M219.49 399.788H216.975V449.973H219.49V399.788Z" fill="#E0E0E0"/>
<path d="M225.2 400.228C223.075 401.437 220.673 402.073 218.228 402.073C215.784 402.073 213.381 401.437 211.257 400.228V394.603H225.2V400.228Z" fill="#263238"/>
<path d="M225.393 394.958C225.393 396.2 222.183 397.211 218.233 397.211C214.282 397.211 211.064 396.2 211.064 394.958C211.064 393.715 214.274 392.712 218.233 392.712C222.191 392.712 225.393 393.715 225.393 394.958Z" fill="#455A64"/>
<path d="M238.047 399.788H235.531V455.645H238.047V399.788Z" fill="#E0E0E0"/>
<path d="M243.757 400.228C241.633 401.437 239.23 402.073 236.786 402.073C234.341 402.073 231.939 401.437 229.814 400.228V394.603H243.757V400.228Z" fill="#263238"/>
<path d="M243.95 394.958C243.95 396.2 240.74 397.211 236.789 397.211C232.839 397.211 229.621 396.2 229.621 394.958C229.621 393.715 232.831 392.712 236.789 392.712C240.748 392.712 243.95 393.715 243.95 394.958Z" fill="#455A64"/>
<path d="M256.604 399.788H254.089V449.78H256.604V399.788Z" fill="#E0E0E0"/>
<path d="M262.314 400.228C260.19 401.438 257.787 402.074 255.343 402.074C252.898 402.074 250.495 401.438 248.371 400.228V394.603H262.314V400.228Z" fill="#263238"/>
<path d="M262.506 394.958C262.506 396.2 259.297 397.211 255.338 397.211C251.38 397.211 248.178 396.2 248.178 394.958C248.178 393.715 251.388 392.712 255.338 392.712C259.289 392.712 262.506 393.715 262.506 394.958Z" fill="#455A64"/>
<path d="M275.154 399.788H272.639V449.78H275.154V399.788Z" fill="#E0E0E0"/>
<path d="M280.872 400.228C278.747 401.437 276.345 402.073 273.9 402.073C271.456 402.073 269.053 401.437 266.929 400.228V394.603H280.872V400.228Z" fill="#263238"/>
<path d="M281.064 394.958C281.064 396.2 277.854 397.211 273.896 397.211C269.938 397.211 266.735 396.2 266.735 394.958C266.735 393.715 269.945 392.712 273.896 392.712C277.846 392.712 281.064 393.715 281.064 394.958Z" fill="#455A64"/>
<path d="M293.711 399.788H291.195V449.78H293.711V399.788Z" fill="#E0E0E0"/>
<path d="M299.428 400.228C297.304 401.438 294.901 402.074 292.457 402.074C290.012 402.074 287.61 401.438 285.485 400.228V394.603H299.428V400.228Z" fill="#263238"/>
<path d="M299.621 394.958C299.621 396.2 296.411 397.211 292.452 397.211C288.494 397.211 285.292 396.2 285.292 394.958C285.292 393.715 288.494 392.712 292.452 392.712C296.411 392.712 299.621 393.715 299.621 394.958Z" fill="#455A64"/>
<path d="M312.268 453.013L309.753 455.645V399.78H312.268V453.013Z" fill="#E0E0E0"/>
<path d="M317.985 400.228C315.859 401.438 313.455 402.075 311.009 402.075C308.564 402.075 306.16 401.438 304.034 400.228V394.603H317.985V400.228Z" fill="#263238"/>
<path d="M318.178 394.958C318.178 396.2 314.968 397.211 311.01 397.211C307.052 397.211 303.85 396.2 303.85 394.958C303.85 393.715 307.052 392.712 311.01 392.712C314.968 392.712 318.178 393.715 318.178 394.958Z" fill="#455A64"/>
<path d="M330.825 399.788H328.31V449.572H330.825V399.788Z" fill="#E0E0E0"/>
<path d="M336.542 400.228C334.417 401.438 332.013 402.074 329.567 402.074C327.121 402.074 324.717 401.438 322.592 400.228V394.603H336.542V400.228Z" fill="#263238"/>
<path d="M336.727 394.958C336.727 396.2 333.525 397.211 329.567 397.211C325.608 397.211 322.406 396.2 322.406 394.958C322.406 393.715 325.608 392.712 329.567 392.712C333.525 392.712 336.727 393.715 336.727 394.958Z" fill="#455A64"/>
<path d="M349.383 399.788H346.867V449.464H349.383V399.788Z" fill="#E0E0E0"/>
<path d="M355.099 400.228C352.974 401.438 350.57 402.075 348.124 402.075C345.678 402.075 343.274 401.438 341.148 400.228V394.603H355.099V400.228Z" fill="#263238"/>
<path d="M355.285 394.958C355.285 396.2 352.083 397.211 348.124 397.211C344.166 397.211 340.956 396.2 340.956 394.958C340.956 393.715 344.166 392.712 348.124 392.712C352.083 392.712 355.285 393.715 355.285 394.958Z" fill="#455A64"/>
<path d="M367.939 399.788H365.424V449.526H367.939V399.788Z" fill="#E0E0E0"/>
<path d="M373.649 400.228C371.525 401.438 369.122 402.074 366.677 402.074C364.233 402.074 361.83 401.438 359.706 400.228V394.603H373.649V400.228Z" fill="#263238"/>
<path d="M373.842 394.958C373.842 396.2 370.64 397.211 366.682 397.211C362.724 397.211 359.514 396.2 359.514 394.958C359.514 393.715 362.724 392.712 366.682 392.712C370.64 392.712 373.842 393.715 373.842 394.958Z" fill="#455A64"/>
<path d="M206.643 431.007C204.519 432.217 202.116 432.853 199.672 432.853C197.227 432.853 194.825 432.217 192.7 431.007V425.367H206.643V431.007Z" fill="#263238"/>
<path d="M206.836 425.745C206.836 426.987 203.633 427.99 199.675 427.99C195.717 427.99 192.507 426.987 192.507 425.745C192.507 424.502 195.717 423.492 199.675 423.492C203.633 423.492 206.836 424.502 206.836 425.745Z" fill="#455A64"/>
<path d="M197.322 444.302C195.196 445.512 192.792 446.149 190.346 446.149C187.9 446.149 185.497 445.512 183.371 444.302V438.654H197.322V444.302Z" fill="#263238"/>
<path d="M197.5 439.031C197.5 440.274 194.298 441.285 190.339 441.285C186.381 441.285 183.179 440.274 183.179 439.031C183.179 437.789 186.381 436.786 190.339 436.786C194.298 436.786 197.5 437.812 197.5 439.031Z" fill="#455A64"/>
<path d="M215.508 444.117C213.384 445.326 210.981 445.962 208.537 445.962C206.092 445.962 203.69 445.326 201.565 444.117V438.476H215.508V444.117Z" fill="#263238"/>
<path d="M215.701 438.855C215.701 440.097 212.491 441.1 208.533 441.1C204.574 441.1 201.372 440.097 201.372 438.855C201.372 437.612 204.582 436.602 208.533 436.602C212.483 436.602 215.701 437.612 215.701 438.855Z" fill="#455A64"/>
<path d="M233.704 434.935C231.579 436.144 229.177 436.78 226.732 436.78C224.288 436.78 221.885 436.144 219.761 434.935V429.325H233.704V434.935Z" fill="#263238"/>
<path d="M233.896 429.672C233.896 430.914 230.694 431.917 226.736 431.917C222.777 431.917 219.567 430.914 219.567 429.672C219.567 428.43 222.777 427.419 226.736 427.419C230.694 427.419 233.896 428.43 233.896 429.672Z" fill="#455A64"/>
<path d="M252.792 434.726C250.668 435.94 248.264 436.578 245.817 436.578C243.371 436.578 240.966 435.94 238.842 434.726V429.086H252.792V434.726Z" fill="#263238"/>
<path d="M252.977 429.487C252.977 430.73 249.775 431.741 245.817 431.741C241.858 431.741 238.656 430.73 238.656 429.487C238.656 428.245 241.858 427.234 245.817 427.234C249.775 427.234 252.977 428.245 252.977 429.487Z" fill="#455A64"/>
<path d="M271.103 434.726C268.98 435.94 266.577 436.578 264.132 436.578C261.686 436.578 259.283 435.94 257.16 434.726V429.086H271.103V434.726Z" fill="#263238"/>
<path d="M271.296 429.487C271.296 430.73 268.093 431.741 264.135 431.741C260.177 431.741 256.967 430.73 256.967 429.487C256.967 428.245 260.177 427.234 264.135 427.234C268.093 427.234 271.296 428.245 271.296 429.487Z" fill="#455A64"/>
<path d="M290.039 434.726C287.914 435.94 285.51 436.578 283.063 436.578C280.617 436.578 278.212 435.94 276.088 434.726V429.086H290.039V434.726Z" fill="#263238"/>
<path d="M290.223 429.487C290.223 430.73 287.021 431.741 283.063 431.741C279.105 431.741 275.902 430.73 275.902 429.487C275.902 428.245 279.105 427.234 283.063 427.234C287.021 427.234 290.223 428.245 290.223 429.487Z" fill="#455A64"/>
<path d="M308.548 435.691C306.423 436.901 304.019 437.537 301.573 437.537C299.127 437.537 296.723 436.901 294.598 435.691V430.05H308.548V435.691Z" fill="#263238"/>
<path d="M308.734 430.421C308.734 431.663 305.532 432.674 301.574 432.674C297.615 432.674 294.413 431.663 294.413 430.421C294.413 429.179 297.615 428.176 301.574 428.176C305.532 428.176 308.734 429.179 308.734 430.421Z" fill="#455A64"/>
<path d="M327.06 434.726C324.935 435.94 322.531 436.578 320.085 436.578C317.638 436.578 315.234 435.94 313.109 434.726V429.086H327.06V434.726Z" fill="#263238"/>
<path d="M327.253 429.487C327.253 430.73 324.043 431.741 320.084 431.741C316.126 431.741 312.924 430.73 312.924 429.487C312.924 428.245 316.126 427.234 320.084 427.234C324.043 427.234 327.253 428.245 327.253 429.487Z" fill="#455A64"/>
<path d="M345.879 444.117C343.755 445.326 341.353 445.962 338.908 445.962C336.463 445.962 334.061 445.326 331.937 444.117V438.476H345.879V444.117Z" fill="#263238"/>
<path d="M346.072 438.855C346.072 440.097 342.87 441.1 338.911 441.1C334.953 441.1 331.743 440.097 331.743 438.855C331.743 437.612 334.953 436.602 338.911 436.602C342.87 436.602 346.072 437.612 346.072 438.855Z" fill="#455A64"/>
<path d="M366.257 446.548C364.065 447.762 361.6 448.399 359.093 448.399C356.587 448.399 354.121 447.762 351.929 446.548V440.899H366.257V446.548Z" fill="#263238"/>
<path d="M366.257 440.899C366.257 442.141 363.055 443.523 359.097 443.523C355.138 443.523 351.913 442.288 351.913 441.046C351.913 439.803 355.138 438.847 359.097 438.847C363.055 438.847 366.257 439.665 366.257 440.899Z" fill="#455A64"/>
<path d="M225.362 423.638C223.238 424.848 220.835 425.484 218.39 425.484C215.946 425.484 213.543 424.848 211.419 423.638V417.99H225.362V423.638Z" fill="#263238"/>
<path d="M225.555 418.368C225.555 419.611 222.345 420.621 218.387 420.621C214.429 420.621 211.211 419.611 211.211 418.368C211.211 417.126 214.421 416.123 218.371 416.123C222.322 416.123 225.555 417.126 225.555 418.368Z" fill="#455A64"/>
<path d="M243.996 423.638C241.871 424.848 239.469 425.484 237.024 425.484C234.58 425.484 232.177 424.848 230.053 423.638V417.99H243.996V423.638Z" fill="#263238"/>
<path d="M244.189 418.368C244.189 419.611 240.979 420.621 237.029 420.621C233.078 420.621 229.86 419.611 229.86 418.368C229.86 417.126 233.07 416.123 237.029 416.123C240.987 416.123 244.189 417.126 244.189 418.368Z" fill="#455A64"/>
<path d="M262.314 423.638C260.19 424.848 257.787 425.484 255.343 425.484C252.898 425.484 250.495 424.848 248.371 423.638V417.99H262.314V423.638Z" fill="#263238"/>
<path d="M262.506 418.368C262.506 419.611 259.297 420.621 255.338 420.621C251.38 420.621 248.178 419.611 248.178 418.368C248.178 417.126 251.388 416.123 255.338 416.123C259.289 416.123 262.506 417.126 262.506 418.368Z" fill="#455A64"/>
<path d="M280.2 423.638C278.075 424.848 275.673 425.484 273.228 425.484C270.784 425.484 268.381 424.848 266.257 423.638V417.99H280.2V423.638Z" fill="#263238"/>
<path d="M280.393 418.368C280.393 419.611 277.183 420.621 273.225 420.621C269.267 420.621 266.064 419.611 266.064 418.368C266.064 417.126 269.267 416.123 273.225 416.123C277.183 416.123 280.393 417.126 280.393 418.368Z" fill="#455A64"/>
<path d="M298.811 423.638C296.687 424.848 294.284 425.484 291.84 425.484C289.395 425.484 286.993 424.848 284.868 423.638V417.99H298.811V423.638Z" fill="#263238"/>
<path d="M299.004 418.368C299.004 419.611 295.801 420.621 291.843 420.621C287.885 420.621 284.675 419.611 284.675 418.368C284.675 417.126 287.885 416.123 291.843 416.123C295.801 416.123 299.004 417.126 299.004 418.368Z" fill="#455A64"/>
<path d="M317.693 423.638C315.569 424.848 313.166 425.484 310.721 425.484C308.277 425.484 305.874 424.848 303.75 423.638V417.99H317.693V423.638Z" fill="#263238"/>
<path d="M317.87 418.368C317.87 419.611 314.66 420.621 310.702 420.621C306.743 420.621 303.541 419.611 303.541 418.368C303.541 417.126 306.751 416.123 310.702 416.123C314.652 416.123 317.87 417.126 317.87 418.368Z" fill="#455A64"/>
<path d="M336.689 423.638C334.565 424.848 332.162 425.484 329.718 425.484C327.273 425.484 324.87 424.848 322.746 423.638V417.99H336.689V423.638Z" fill="#263238"/>
<path d="M336.882 418.368C336.882 419.611 333.673 420.621 329.714 420.621C325.756 420.621 322.554 419.611 322.554 418.368C322.554 417.126 325.764 416.123 329.714 416.123C333.665 416.123 336.882 417.126 336.882 418.368Z" fill="#455A64"/>
<path d="M355.099 430.251C352.975 431.464 350.57 432.102 348.124 432.102C345.677 432.102 343.273 431.464 341.148 430.251V424.61H355.099V430.251Z" fill="#263238"/>
<path d="M355.285 424.988C355.285 426.231 352.083 427.234 348.124 427.234C344.166 427.234 340.956 426.231 340.956 424.988C340.956 423.746 344.166 422.735 348.124 422.735C352.083 422.735 355.285 423.746 355.285 424.988Z" fill="#455A64"/>
<path d="M373.68 423.638C371.556 424.848 369.153 425.484 366.709 425.484C364.264 425.484 361.862 424.848 359.737 423.638V417.99H373.68V423.638Z" fill="#263238"/>
<path d="M373.873 418.368C373.873 419.611 370.663 420.621 366.712 420.621C362.762 420.621 359.544 419.611 359.544 418.368C359.544 417.126 362.754 416.123 366.712 416.123C370.671 416.123 373.873 417.126 373.873 418.368Z" fill="#455A64"/>
<g opacity="0.4">
<path d="M158.873 363.292L390.671 369.603L390.632 363.292H158.873Z" fill="black"/>
</g>
<path d="M345.47 302.088C345.47 302.188 313.919 302.273 274.999 302.273C236.079 302.273 204.521 302.188 204.521 302.088C204.521 301.987 236.071 301.902 274.999 301.902C313.926 301.902 345.47 302.01 345.47 302.088Z" fill="#263238"/>
<path d="M390.361 386.431C390.361 386.532 338.61 386.616 274.783 386.616C210.955 386.616 159.188 386.532 159.188 386.431C159.188 386.331 210.932 386.246 274.783 386.246C338.633 386.246 390.361 386.331 390.361 386.431Z" fill="#263238"/>
<path d="M173.958 374.665C173.95 375.273 173.763 375.866 173.419 376.369C173.075 376.871 172.591 377.261 172.026 377.488C171.461 377.716 170.842 377.772 170.246 377.648C169.65 377.525 169.103 377.228 168.676 376.795C168.248 376.362 167.958 375.812 167.842 375.214C167.726 374.616 167.789 373.998 168.024 373.436C168.258 372.874 168.654 372.395 169.161 372.057C169.667 371.72 170.263 371.54 170.871 371.54C171.28 371.54 171.684 371.621 172.061 371.778C172.438 371.936 172.78 372.166 173.068 372.457C173.355 372.748 173.581 373.093 173.734 373.472C173.887 373.851 173.963 374.256 173.958 374.665Z" fill="#263238"/>
<path d="M183.317 374.665C183.31 375.273 183.122 375.866 182.778 376.369C182.435 376.871 181.95 377.261 181.385 377.488C180.821 377.716 180.201 377.772 179.605 377.648C179.009 377.525 178.463 377.228 178.035 376.795C177.607 376.362 177.317 375.812 177.201 375.214C177.085 374.616 177.148 373.998 177.383 373.436C177.618 372.874 178.013 372.395 178.52 372.057C179.027 371.72 179.622 371.54 180.231 371.54C180.639 371.54 181.044 371.621 181.421 371.778C181.798 371.936 182.14 372.166 182.427 372.457C182.714 372.748 182.941 373.093 183.093 373.472C183.246 373.851 183.322 374.256 183.317 374.665Z" fill="#263238"/>
<path d="M236.789 455.644V447.728H306.658C306.806 447.729 306.951 447.759 307.087 447.816C307.223 447.874 307.346 447.958 307.45 448.063C307.553 448.169 307.634 448.294 307.689 448.431C307.744 448.568 307.771 448.714 307.769 448.862V455.644H236.789Z" fill="#E0E0E0"/>
<path d="M383.857 449.464H383.533H382.584H378.88L364.914 449.518L315.825 449.595L315.956 449.534L309.891 455.706L309.837 455.76H309.752H273.34H234.366H234.305L234.251 455.722L226.681 450.043L226.789 450.081L180.076 450.004L166.828 449.958L180.076 449.904L226.789 449.835H226.851H226.897L234.482 455.506L234.366 455.467H309.752L309.621 455.521L315.694 449.348L315.748 449.294H315.825L364.914 449.364L378.88 449.418H382.584H383.533C383.642 449.426 383.75 449.442 383.857 449.464Z" fill="#263238"/>
<path d="M402.746 459.302C402.746 459.41 345.393 459.502 274.66 459.502C203.927 459.502 146.573 459.41 146.573 459.302C146.573 459.194 203.911 459.101 274.66 459.101C345.408 459.101 402.746 459.194 402.746 459.302Z" fill="#263238"/>
<path d="M237.661 447.728H307.105C307.192 447.728 307.277 447.745 307.356 447.778C307.436 447.811 307.508 447.859 307.569 447.92C307.63 447.981 307.678 448.053 307.711 448.133C307.744 448.212 307.761 448.297 307.761 448.384V449.772H236.774V448.615C236.771 448.498 236.793 448.382 236.837 448.273C236.881 448.164 236.946 448.066 237.029 447.983C237.112 447.9 237.21 447.835 237.319 447.791C237.427 447.747 237.544 447.726 237.661 447.728Z" fill="#FAFAFA"/>
<path d="M236.789 455.645C236.913 455.638 237.036 455.638 237.16 455.645H238.224H242.322L257.399 455.583L307.769 455.498L307.569 455.699V449.333C307.586 449.062 307.519 448.792 307.376 448.561C307.218 448.316 306.977 448.135 306.697 448.052C306.386 447.997 306.07 447.979 305.755 447.998H291.998H277.299H252.414L242.846 447.844H238.927C238.626 447.844 238.317 447.844 238.047 447.844C237.785 447.874 237.538 447.981 237.337 448.153C237.144 448.316 237 448.53 236.92 448.77C236.861 449.009 236.84 449.257 236.859 449.503C236.859 451.463 236.82 452.991 236.812 454.048C236.812 454.557 236.812 454.95 236.812 455.236C236.812 455.521 236.812 455.66 236.812 455.66C236.806 455.529 236.806 455.398 236.812 455.267C236.812 454.989 236.812 454.595 236.812 454.094C236.812 453.029 236.812 451.486 236.766 449.511C236.753 449.251 236.777 448.992 236.836 448.739C236.917 448.466 237.075 448.222 237.291 448.037C237.509 447.846 237.776 447.72 238.062 447.674C238.371 447.674 238.649 447.674 238.957 447.674H242.877H252.437L277.322 447.628H305.778C306.132 447.603 306.488 447.626 306.836 447.697C307.208 447.809 307.528 448.049 307.738 448.376C307.922 448.678 308.011 449.027 307.993 449.379V455.946H307.792L257.275 455.861L242.245 455.799H238.201H237.152L236.789 455.645Z" fill="#263238"/>
<path d="M357.808 320.876H356.264V302.859H194.49V320.876H192.946V301.315H357.808V320.876Z" fill="#263238"/>
<path d="M222.916 299.618H205.3V304.649H222.916V299.618Z" fill="#263238"/>
<path d="M345.686 299.618H328.07V304.649H345.686V299.618Z" fill="#263238"/>
<path d="M376.744 372.72H348.125V378.97H376.744V372.72Z" fill="#EBEBEB"/>
<path d="M294.536 238.36H259.32C258.498 238.36 257.831 239.027 257.831 239.85V241.485C257.831 242.308 258.498 242.975 259.32 242.975H294.536C295.359 242.975 296.026 242.308 296.026 241.485V239.85C296.026 239.027 295.359 238.36 294.536 238.36Z" fill="#E0E0E0"/>
<path d="M347.646 251.817H206.21C205.707 251.817 205.3 252.225 205.3 252.728V253.731C205.3 254.234 205.707 254.641 206.21 254.641H347.646C348.148 254.641 348.556 254.234 348.556 253.731V252.728C348.556 252.225 348.148 251.817 347.646 251.817Z" fill="#E0E0E0"/>
<path d="M347.646 262.326H206.21C205.707 262.326 205.3 262.734 205.3 263.237V264.24C205.3 264.743 205.707 265.15 206.21 265.15H347.646C348.148 265.15 348.556 264.743 348.556 264.24V263.237C348.556 262.734 348.148 262.326 347.646 262.326Z" fill="#E0E0E0"/>
<path d="M347.646 273.438H206.21C205.707 273.438 205.3 273.846 205.3 274.348V275.352C205.3 275.854 205.707 276.262 206.21 276.262H347.646C348.148 276.262 348.556 275.854 348.556 275.352V274.348C348.556 273.846 348.148 273.438 347.646 273.438Z" fill="#E0E0E0"/>
<path d="M291.419 284.557H206.21C205.707 284.557 205.3 284.964 205.3 285.467V286.47C205.3 286.973 205.707 287.381 206.21 287.381H291.419C291.922 287.381 292.329 286.973 292.329 286.47V285.467C292.329 284.964 291.922 284.557 291.419 284.557Z" fill="#E0E0E0"/>
<path d="M347.646 309.317H206.21C205.707 309.317 205.3 309.725 205.3 310.228V311.231C205.3 311.734 205.707 312.141 206.21 312.141H347.646C348.148 312.141 348.556 311.734 348.556 311.231V310.228C348.556 309.725 348.148 309.317 347.646 309.317Z" fill="#E0E0E0"/>
<defs>
<linearGradient id="paint0_linear_61_2435" x1="310" y1="41" x2="310" y2="399" gradientUnits="userSpaceOnUse">
<stop stop-color="#528E9E" stop-opacity="0.5"/>
<stop offset="1" stop-color="#0B5874"/>
</linearGradient>
</defs>
</svg>
