<svg width="620" height="620" viewBox="0 0 620 620" fill="none" xmlns="http://www.w3.org/2000/svg">
<rect width="620" height="620" rx="310" fill="url(#paint0_linear_61_2983)" fill-opacity="0.85"/>
<path d="M310 554.407C448.071 554.407 560 493.513 560 418.397C560 343.28 448.071 282.386 310 282.386C171.929 282.386 60 343.28 60 418.397C60 493.513 171.929 554.407 310 554.407Z" fill="#F5F5F5" fill-opacity="0.8"/>
<path d="M354.152 521.94L226.108 448.016L347.521 377.994L475.565 451.918L354.152 521.94Z" fill="#E6E6E6"/>
<path d="M101.066 446.755L126.576 461.429C128.017 462.163 129.611 462.546 131.229 462.546C132.846 462.546 134.44 462.163 135.881 461.429L305.359 363.418C307.935 361.94 307.935 359.527 305.359 358.049L279.859 343.364C278.417 342.635 276.823 342.255 275.207 342.255C273.591 342.255 271.997 342.635 270.555 343.364L101.066 441.397C98.5003 442.864 98.5003 445.277 101.066 446.755Z" fill="#E6E6E6"/>
<path d="M383.413 366.19C392.424 366.19 399.728 361.97 399.728 356.766C399.728 351.561 392.424 347.342 383.413 347.342C374.402 347.342 367.098 351.561 367.098 356.766C367.098 361.97 374.402 366.19 383.413 366.19Z" fill="#E6E6E6"/>
<path d="M117.402 447.114L108.804 442.147L108.706 442.081C108.075 441.604 107.578 440.972 107.262 440.247C106.946 439.522 106.822 438.727 106.902 437.94V173.342L281.467 72.5488L290.162 77.5923L115.63 178.353V442.973C115.555 443.756 115.679 444.546 115.988 445.269C116.298 445.993 116.784 446.627 117.402 447.114Z" fill="#EBEBEB"/>
<path d="M290.196 77.5923V342.19C290.072 344.451 289.416 346.65 288.283 348.611C287.15 350.571 285.571 352.236 283.674 353.473L122.142 446.744C121.517 447.184 120.795 447.465 120.038 447.566C119.281 447.666 118.511 447.582 117.794 447.321L117.424 447.114C116.806 446.63 116.319 445.998 116.009 445.276C115.7 444.554 115.577 443.765 115.653 442.984V178.353L290.196 77.5923Z" fill="#F0F0F0"/>
<path d="M281.457 72.5488L290.196 77.5923L115.631 178.386L106.892 173.342L281.457 72.5488Z" fill="#FAFAFA"/>
<path d="M116.173 449.809L114.162 448.657L114.065 448.592C113.436 448.11 112.94 447.476 112.625 446.75C112.309 446.023 112.184 445.228 112.26 444.44V177.918L291.195 74.6572L293.369 75.8855L114.358 179.135V445.668C114.288 446.455 114.417 447.248 114.734 447.972C115.052 448.696 115.547 449.328 116.173 449.809Z" fill="#0F8B8D"/>
<path opacity="0.1" d="M116.173 449.809L114.162 448.657L114.065 448.592C113.436 448.11 112.94 447.476 112.625 446.75C112.309 446.023 112.184 445.228 112.26 444.44V177.918L291.195 74.6572L293.369 75.8855L114.358 179.135V445.668C114.288 446.455 114.417 447.248 114.734 447.972C115.052 448.696 115.547 449.328 116.173 449.809Z" fill="black"/>
<path d="M293.337 75.8423V342.364C293.213 344.625 292.558 346.824 291.425 348.784C290.291 350.745 288.713 352.41 286.816 353.647L120.881 449.44C120.256 449.879 119.535 450.161 118.778 450.261C118.021 450.362 117.251 450.278 116.533 450.016L116.164 449.81C115.545 449.326 115.058 448.693 114.749 447.971C114.439 447.249 114.316 446.461 114.392 445.679V179.147L293.337 75.8423Z" fill="#0F8B8D"/>
<path opacity="0.05" d="M293.337 75.8423V342.364C293.213 344.625 292.558 346.824 291.425 348.784C290.291 350.745 288.713 352.41 286.816 353.647L120.881 449.44C120.256 449.879 119.535 450.161 118.778 450.261C118.021 450.362 117.251 450.278 116.533 450.016L116.164 449.81C115.545 449.326 115.058 448.693 114.749 447.971C114.439 447.249 114.316 446.461 114.392 445.679V179.147L293.337 75.8423Z" fill="black"/>
<path d="M291.196 74.603L293.337 75.8422L114.402 179.146L112.261 177.907L291.196 74.603Z" fill="#0F8B8D"/>
<path opacity="0.4" d="M291.196 74.603L293.337 75.8422L114.402 179.146L112.261 177.907L291.196 74.603Z" fill="white"/>
<path d="M119.598 451.777L117.619 450.624L117.522 450.559C116.893 450.08 116.397 449.448 116.082 448.723C115.766 447.998 115.64 447.205 115.717 446.418V179.885L294.652 76.6245L296.826 77.8528L117.891 181.114V447.646C117.808 448.422 117.921 449.207 118.219 449.929C118.517 450.65 118.991 451.285 119.598 451.777Z" fill="#0F8B8D"/>
<path opacity="0.1" d="M119.598 451.777L117.619 450.624L117.522 450.559C116.893 450.08 116.397 449.448 116.082 448.723C115.766 447.998 115.64 447.205 115.717 446.418V179.885L294.652 76.6245L296.826 77.8528L117.891 181.114V447.646C117.808 448.422 117.921 449.207 118.219 449.929C118.517 450.65 118.991 451.285 119.598 451.777Z" fill="black"/>
<path d="M296.761 77.8096V344.342C296.636 346.601 295.981 348.799 294.848 350.758C293.715 352.716 292.136 354.38 290.239 355.614L124.337 451.407C123.714 451.851 122.992 452.135 122.235 452.236C121.477 452.336 120.706 452.249 119.989 451.983L119.62 451.788C119.001 451.301 118.514 450.667 118.205 449.943C117.895 449.22 117.772 448.43 117.848 447.647V181.114L296.761 77.8096Z" fill="#0F8B8D"/>
<path d="M294.619 76.5811L296.761 77.8093L117.826 181.114L115.685 179.885L294.619 76.5811Z" fill="#0F8B8D"/>
<path opacity="0.4" d="M294.619 76.5811L296.761 77.8093L117.826 181.114L115.685 179.885L294.619 76.5811Z" fill="white"/>
<path d="M130.489 454.679L121.891 449.712L121.794 449.646C121.164 449.168 120.668 448.536 120.352 447.811C120.036 447.086 119.911 446.292 119.989 445.505V180.907L294.555 80.1138L303.25 85.1572L128.718 185.962V450.538C128.644 451.321 128.768 452.11 129.077 452.833C129.387 453.557 129.872 454.191 130.489 454.679Z" fill="#EBEBEB"/>
<path d="M303.283 85.1572V349.755C303.157 352.016 302.502 354.215 301.369 356.175C300.236 358.135 298.657 359.801 296.761 361.038L135.228 454.299C134.606 454.741 133.884 455.026 133.127 455.128C132.37 455.23 131.599 455.147 130.881 454.885L130.511 454.679C129.894 454.191 129.408 453.557 129.099 452.833C128.79 452.11 128.666 451.321 128.739 450.538V185.962L303.283 85.1572Z" fill="#F5F5F5"/>
<path d="M294.554 80.1138L303.283 85.1572L128.718 185.94L119.989 180.907L294.554 80.1138Z" fill="#FAFAFA"/>
<g style="mix-blend-mode:multiply">
<path d="M141.805 188.462C144.218 187.07 146.153 188.19 146.153 190.983C146.072 192.496 145.637 193.967 144.881 195.28C144.126 196.592 143.072 197.708 141.805 198.538C139.403 199.929 137.457 198.799 137.457 196.016C137.538 194.504 137.974 193.032 138.73 191.72C139.485 190.408 140.538 189.292 141.805 188.462Z" fill="#E0E0E0"/>
</g>
<path d="M129.576 153.647C124.826 150.907 120.272 150.505 116.761 152.56C113.25 154.614 111.326 158.723 111.326 164.223C111.345 166.306 111.6 168.381 112.087 170.407L115 168.723C114.705 167.241 114.556 165.734 114.554 164.223C114.554 159.875 115.913 156.777 118.381 155.342C120.848 153.907 124.261 154.255 127.978 156.429C136.272 161.212 143.022 172.897 143.022 182.516C143.081 184.588 142.661 186.645 141.794 188.527C141.218 189.709 140.312 190.698 139.185 191.375L138.924 191.516C138.199 192.667 137.732 193.961 137.554 195.31C138.702 195.133 139.808 194.746 140.815 194.168C142.974 192.878 144.584 190.84 145.337 188.44C145.983 186.533 146.296 184.529 146.261 182.516C146.174 171.886 138.707 158.94 129.576 153.647Z" fill="#455A64"/>
<g style="mix-blend-mode:multiply">
<path d="M163 176.179C165.413 174.788 167.348 175.908 167.348 178.701C167.267 180.213 166.832 181.685 166.076 182.998C165.321 184.31 164.267 185.426 163 186.255C160.598 187.647 158.652 186.516 158.652 183.734C158.735 182.222 159.172 180.751 159.927 179.439C160.682 178.127 161.735 177.011 163 176.179Z" fill="#E0E0E0"/>
</g>
<path d="M150.718 141.396C145.979 138.657 141.424 138.255 137.903 140.309C134.381 142.363 132.468 146.483 132.468 151.972C132.487 154.056 132.742 156.131 133.229 158.157L136.098 156.461C135.808 154.979 135.659 153.472 135.653 151.961C135.653 147.613 137.011 144.516 139.49 143.081C141.968 141.646 145.359 141.994 149.076 144.168C157.37 148.95 164.12 160.635 164.12 170.255C164.186 172.327 163.765 174.386 162.892 176.266C162.313 177.445 161.407 178.434 160.283 179.113L160.022 179.255C159.297 180.406 158.83 181.7 158.653 183.048C159.797 182.89 160.903 182.522 161.913 181.961C164.07 180.671 165.682 178.638 166.446 176.244C167.082 174.331 167.394 172.325 167.37 170.309C167.381 159.646 159.913 146.7 150.718 141.396Z" fill="#455A64"/>
<g style="mix-blend-mode:multiply">
<path d="M184.206 163.983C186.608 162.592 188.554 163.722 188.554 166.505C188.481 168.026 188.049 169.509 187.293 170.831C186.538 172.153 185.48 173.278 184.206 174.114C181.793 175.505 179.858 174.374 179.858 171.603C179.93 170.079 180.361 168.595 181.117 167.27C181.872 165.946 182.931 164.819 184.206 163.983Z" fill="#E0E0E0"/>
</g>
<path d="M171.968 129.168C167.218 126.429 162.664 126.027 159.142 128.081C155.62 130.135 153.707 134.255 153.707 139.744C153.725 141.828 153.981 143.903 154.468 145.929L157.381 144.244C157.091 142.761 156.942 141.255 156.935 139.744C156.935 135.396 158.294 132.298 160.772 130.864C163.251 129.429 166.642 129.777 170.359 131.951C178.653 136.733 185.403 148.418 185.403 158.038C185.469 160.11 185.048 162.168 184.174 164.048C183.596 165.228 182.69 166.216 181.566 166.896L181.316 167.038C180.585 168.186 180.114 169.481 179.935 170.831C181.079 170.67 182.184 170.302 183.196 169.744C185.35 168.453 186.958 166.42 187.718 164.027C188.353 162.114 188.666 160.108 188.642 158.092C188.577 147.407 181.109 134.462 171.968 129.168Z" fill="#455A64"/>
<g style="mix-blend-mode:multiply">
<path d="M205.403 151.744C207.805 150.353 209.75 151.483 209.75 154.266C209.677 155.787 209.245 157.27 208.49 158.592C207.734 159.915 206.676 161.04 205.403 161.875C202.989 163.266 201.055 162.147 201.055 159.364C201.126 157.841 201.557 156.356 202.313 155.032C203.069 153.707 204.127 152.581 205.403 151.744Z" fill="#E0E0E0"/>
</g>
<path d="M193.12 116.929C188.37 114.19 183.816 113.787 180.305 115.842C176.794 117.896 174.87 122.016 174.87 127.505C174.887 129.589 175.146 131.665 175.642 133.69L178.49 131.983C178.199 130.501 178.05 128.994 178.044 127.483C178.044 123.135 179.403 120.037 181.881 118.603C184.359 117.168 187.751 117.516 191.468 119.69C199.761 124.472 206.511 136.157 206.511 145.777C206.579 147.851 206.163 149.913 205.294 151.798C204.708 152.974 203.799 153.958 202.674 154.635L202.424 154.777C201.694 155.925 201.222 157.22 201.044 158.57C202.188 158.409 203.293 158.041 204.305 157.483C206.458 156.192 208.066 154.159 208.827 151.766C209.467 149.854 209.78 147.847 209.751 145.831C209.772 135.168 202.305 122.222 193.12 116.929Z" fill="#455A64"/>
<g style="mix-blend-mode:multiply">
<path d="M226.598 139.505C229 138.114 230.946 139.244 230.946 142.027C230.873 143.548 230.441 145.031 229.685 146.353C228.929 147.675 227.871 148.8 226.598 149.636C224.185 151.027 222.25 149.907 222.25 147.125C222.321 145.601 222.752 144.117 223.508 142.792C224.264 141.468 225.323 140.341 226.598 139.505Z" fill="#E0E0E0"/>
</g>
<path d="M214.358 104.69C209.608 101.951 205.054 101.549 201.543 103.603C198.032 105.657 196.108 109.777 196.108 115.266C196.125 117.351 196.384 119.426 196.88 121.451L199.793 119.766C199.494 118.285 199.341 116.777 199.337 115.266C199.337 110.918 200.706 107.82 203.174 106.386C205.641 104.951 209.054 105.299 212.771 107.473C221.065 112.255 227.804 123.94 227.804 133.56C227.872 135.634 227.455 137.696 226.587 139.581C225.997 140.757 225.09 141.744 223.967 142.429L223.717 142.56C222.991 143.711 222.52 145.004 222.337 146.353C223.48 146.187 224.584 145.819 225.598 145.266C227.751 143.97 229.359 141.934 230.119 139.538C230.76 137.626 231.072 135.619 231.043 133.603C230.967 122.918 223.5 109.983 214.358 104.69Z" fill="#455A64"/>
<g style="mix-blend-mode:multiply">
<path d="M247.793 127.266C250.206 125.875 252.141 127.005 252.141 129.788C252.07 131.31 251.638 132.793 250.883 134.116C250.127 135.438 249.068 136.563 247.793 137.397C245.38 138.788 243.445 137.668 243.445 134.886C243.516 133.362 243.947 131.878 244.702 130.553C245.458 129.228 246.517 128.102 247.793 127.266Z" fill="#E0E0E0"/>
</g>
<path d="M235.511 92.4833C230.761 89.7441 226.206 89.3528 222.696 91.3963C219.185 93.4398 217.261 97.5702 217.261 103.059C217.274 105.143 217.529 107.219 218.022 109.244L220.88 107.505C220.581 106.024 220.428 104.516 220.424 103.005C220.424 98.6572 221.793 95.5594 224.261 94.1246C226.728 92.6898 230.141 93.092 233.859 95.2115C242.152 99.9941 248.891 111.679 248.891 121.298C248.96 123.373 248.543 125.435 247.674 127.32C247.089 128.496 246.185 129.483 245.065 130.168L244.804 130.298C244.078 131.45 243.607 132.743 243.424 134.092C244.568 133.931 245.673 133.563 246.685 133.005C248.853 131.712 250.473 129.671 251.239 127.266C251.88 125.354 252.192 123.347 252.163 121.331C252.163 110.701 244.696 97.7441 235.511 92.4833Z" fill="#455A64"/>
<g style="mix-blend-mode:multiply">
<path d="M268.988 115.027C271.401 113.636 273.336 114.766 273.336 117.549C273.265 119.071 272.834 120.554 272.078 121.876C271.322 123.199 270.263 124.324 268.988 125.157C266.575 126.549 264.641 125.429 264.641 122.647C264.711 121.123 265.142 119.638 265.898 118.314C266.654 116.989 267.713 115.863 268.988 115.027Z" fill="#E0E0E0"/>
</g>
<path d="M256.75 80.2118C252 77.4727 247.446 77.0813 243.935 79.1248C240.424 81.1683 238.5 85.2987 238.5 90.7879C238.513 92.872 238.768 94.9475 239.261 96.9727L242.174 95.2879C241.875 93.8064 241.722 92.2992 241.717 90.7879C241.717 86.44 243.087 83.3422 245.554 81.9074C248.022 80.4727 251.435 80.8857 255.152 82.9944C263.446 87.777 270.196 99.4618 270.196 109.081C270.262 111.157 269.841 113.219 268.967 115.103C268.383 116.279 267.478 117.266 266.359 117.951L266.098 118.081C265.358 119.215 264.869 120.493 264.663 121.831C265.807 121.671 266.912 121.302 267.924 120.744C270.077 119.448 271.685 117.412 272.446 115.016C273.086 113.104 273.399 111.098 273.37 109.081C273.359 98.4618 265.891 85.5161 256.75 80.2118Z" fill="#455A64"/>
<g style="mix-blend-mode:multiply">
<path d="M290.185 102.788C292.598 101.396 294.533 102.527 294.533 105.31C294.461 106.831 294.03 108.314 293.274 109.637C292.518 110.96 291.46 112.084 290.185 112.918C287.772 114.31 285.837 113.19 285.837 110.407C285.907 108.884 286.338 107.399 287.094 106.074C287.85 104.75 288.909 103.623 290.185 102.788Z" fill="#E0E0E0"/>
</g>
<path d="M277.902 67.9725C273.152 65.2334 268.598 64.8421 265.087 66.8856C261.576 68.929 259.652 73.0595 259.652 78.5486C259.665 80.6328 259.92 82.7084 260.413 84.7334L263.272 83.0269C262.973 81.5454 262.82 80.0382 262.815 78.5269C262.815 74.2334 264.185 71.0812 266.652 69.6464C269.12 68.2117 272.533 68.6247 276.25 70.7334C284.544 75.516 291.294 87.2117 291.294 96.8204C291.353 98.8954 290.933 100.956 290.065 102.842C289.484 104.02 288.579 105.007 287.457 105.69L287.196 105.831C286.467 106.976 285.999 108.268 285.826 109.614C286.97 109.453 288.075 109.084 289.087 108.527C291.241 107.231 292.849 105.195 293.609 102.799C294.256 100.888 294.568 98.8805 294.533 96.8638C294.555 86.2225 287.087 73.2769 277.902 67.9725Z" fill="#455A64"/>
<g opacity="0.3">
<path d="M142.098 208.45L289.924 123.113C292.501 121.624 294.587 122.831 294.587 125.798V135.211C294.502 136.825 294.036 138.397 293.228 139.796C292.419 141.196 291.291 142.385 289.935 143.266L142.109 228.602C139.533 230.092 137.457 228.885 137.457 225.918V216.505C137.544 214.892 138.009 213.322 138.816 211.923C139.622 210.524 140.747 209.334 142.098 208.45Z" stroke="#0F8B8D" stroke-miterlimit="10"/>
<path d="M294.543 130.505L137.445 221.211" stroke="#0F8B8D" stroke-miterlimit="10"/>
</g>
<g opacity="0.3">
<path d="M142.097 238.691L289.924 153.354C292.5 151.875 294.576 153.071 294.576 156.038V336.767C294.49 338.381 294.024 339.952 293.216 341.352C292.407 342.752 291.279 343.94 289.924 344.821L142.097 430.158C139.532 431.647 137.445 430.441 137.445 427.473V246.745C137.533 245.131 138 243.561 138.809 242.162C139.617 240.762 140.744 239.573 142.097 238.691Z" stroke="#0F8B8D" stroke-miterlimit="10"/>
<path d="M294.543 160.745L137.445 251.451" stroke="#0F8B8D" stroke-miterlimit="10"/>
<path d="M294.543 170.821L137.445 261.528" stroke="#0F8B8D" stroke-miterlimit="10"/>
<path d="M294.543 180.896L137.445 271.603" stroke="#0F8B8D" stroke-miterlimit="10"/>
<path d="M294.543 190.973L137.445 281.69" stroke="#0F8B8D" stroke-miterlimit="10"/>
<path d="M294.543 201.049L137.445 291.766" stroke="#0F8B8D" stroke-miterlimit="10"/>
<path d="M294.543 211.125L137.445 301.842" stroke="#0F8B8D" stroke-miterlimit="10"/>
<path d="M294.543 221.201L137.445 311.919" stroke="#0F8B8D" stroke-miterlimit="10"/>
<path d="M294.543 231.288L137.445 321.995" stroke="#0F8B8D" stroke-miterlimit="10"/>
<path d="M294.543 241.364L137.445 332.071" stroke="#0F8B8D" stroke-miterlimit="10"/>
<path d="M294.543 251.44L137.445 342.147" stroke="#0F8B8D" stroke-miterlimit="10"/>
<path d="M294.543 261.517L137.445 352.223" stroke="#0F8B8D" stroke-miterlimit="10"/>
<path d="M294.543 271.593L137.445 362.31" stroke="#0F8B8D" stroke-miterlimit="10"/>
<path d="M294.543 281.668L137.445 372.386" stroke="#0F8B8D" stroke-miterlimit="10"/>
<path d="M294.543 291.745L137.445 382.462" stroke="#0F8B8D" stroke-miterlimit="10"/>
<path d="M294.543 301.832L137.445 392.539" stroke="#0F8B8D" stroke-miterlimit="10"/>
<path d="M294.543 311.908L137.445 402.614" stroke="#0F8B8D" stroke-miterlimit="10"/>
<path d="M294.543 321.984L137.445 412.69" stroke="#0F8B8D" stroke-miterlimit="10"/>
<path d="M294.543 332.06L137.445 422.767" stroke="#0F8B8D" stroke-miterlimit="10"/>
</g>
<path d="M144.011 250.397C143.924 245.299 143.924 241.255 144.011 240.484C144.019 239.966 144.165 239.459 144.434 239.016C144.434 239.016 144.434 239.016 144.511 238.951C144.587 238.886 144.902 239.103 145.326 240.125C145.597 240.636 146.021 241.538 146.261 242.114C146.5 242.69 147.174 243.973 147.663 245.038C148.554 247.005 149.25 248.397 149.641 249.092L149.858 249.429V247.766C149.858 246.853 149.858 244.734 149.771 243.103C149.684 241.473 149.695 239.266 149.695 238.223C149.695 236.114 149.695 235.995 150.043 235.81C150.391 235.625 150.434 235.701 150.5 235.973C150.565 236.245 150.587 237.353 150.63 238.777C150.674 240.201 150.63 242.397 150.717 243.592C150.815 247.223 150.826 251.386 150.717 251.745C150.587 252.342 150.25 252.658 149.989 252.44C149.114 251.061 148.365 249.606 147.75 248.092C147.38 247.266 146.858 246.147 146.565 245.625L145.543 243.571C145.13 242.745 145.021 242.484 144.989 242.647C144.956 242.81 144.989 249.549 145.065 252.201C145.13 254.375 145.065 255.092 144.891 255.462C144.717 255.832 144.543 255.864 144.413 255.745C144.282 255.625 144.087 254.571 144.011 250.397Z" fill="#455A64"/>
<path d="M152.739 248.266C152.61 247.729 152.566 247.175 152.608 246.625C152.547 245.662 152.68 244.698 153 243.788C153.32 242.947 153.759 242.156 154.304 241.44C154.494 241.135 154.761 240.885 155.077 240.715C155.394 240.546 155.749 240.462 156.108 240.473C156.49 240.52 156.845 240.689 157.122 240.956C157.398 241.222 157.58 241.572 157.641 241.951C157.787 242.951 157.813 243.966 157.717 244.973C157.53 246.512 156.825 247.942 155.717 249.027C155.4 249.361 154.992 249.596 154.543 249.701C153.674 249.886 153.021 249.375 152.739 248.266ZM156.913 243.788C156.952 243.417 156.896 243.043 156.75 242.701C156.69 242.486 156.585 242.285 156.443 242.113C156.3 241.941 156.124 241.801 155.924 241.701C155.782 241.701 155.608 241.701 155.25 241.94C154.662 242.268 154.228 242.815 154.043 243.462C153.535 244.468 153.353 245.608 153.521 246.723C153.566 247.285 153.753 247.828 154.065 248.299C154.467 248.766 154.924 248.657 155.717 247.918C156.577 246.719 156.999 245.261 156.913 243.788Z" fill="#455A64"/>
<path d="M160.141 241.396V238.309L159.989 238.44C159.703 238.763 159.323 238.987 158.902 239.081C158.565 239.081 158.391 238.951 158.467 238.712C158.619 238.277 158.804 238.07 159.423 237.625C159.66 237.485 159.879 237.317 160.076 237.125C160.11 236.763 160.11 236.399 160.076 236.038C160.076 234.353 160.184 231.581 160.26 231.233C160.336 230.886 160.369 230.896 160.467 230.842C160.565 230.788 160.619 230.842 160.706 230.929C160.793 231.016 160.967 231.744 161.043 234.364L161.119 236.309C161.119 236.309 161.358 236.309 161.695 236.103C162.315 235.799 162.5 235.809 162.586 236.179C162.612 236.253 162.62 236.332 162.608 236.41C162.597 236.487 162.567 236.561 162.521 236.625C162.402 236.809 162.293 236.896 161.804 237.179C161.584 237.313 161.373 237.462 161.173 237.625C160.981 239.746 160.955 241.88 161.097 244.005C161.097 244.266 161.097 244.809 161.195 245.19C161.195 245.82 161.195 245.896 161.097 246.136C161 246.375 160.63 246.636 160.467 246.549C160.304 246.462 160.173 245.386 160.141 241.396Z" fill="#455A64"/>
<path d="M163.478 241.548C163.354 239.276 163.989 237.028 165.283 235.157C165.75 234.537 166.533 233.809 167.163 233.874C167.307 233.904 167.443 233.962 167.563 234.045C167.684 234.128 167.786 234.235 167.864 234.359C167.942 234.483 167.995 234.621 168.018 234.766C168.041 234.91 168.035 235.058 168 235.2C167.502 236.897 166.625 238.458 165.435 239.766C164.63 240.722 164.5 240.972 164.533 241.331C164.63 241.918 164.978 242.418 165.315 242.342C166.481 241.836 167.445 240.957 168.054 239.842C168.228 239.516 168.283 239.461 168.467 239.385C168.652 239.309 168.783 239.385 168.783 239.548C168.51 240.236 168.145 240.884 167.696 241.472C166.717 242.831 166.033 243.407 165.283 243.537C164.141 243.711 163.609 243.102 163.478 241.548ZM166.739 236.505C166.916 236.237 167.007 235.923 167 235.602C167 235.331 167 235.244 166.87 235.211C166.821 235.199 166.77 235.199 166.721 235.211C166.672 235.222 166.626 235.244 166.587 235.276C166.281 235.463 166.021 235.716 165.826 236.016C165.079 237.061 164.628 238.289 164.522 239.57C164.522 239.722 164.522 239.733 164.837 239.418C165.576 238.519 166.214 237.542 166.739 236.505Z" fill="#455A64"/>
<path d="M170.598 239.995C170.131 239.886 170 239.712 170.011 239.31C170.022 238.908 170.011 238.984 170.24 238.853C170.469 238.731 170.732 238.685 170.99 238.723C171.567 238.788 172.148 238.637 172.62 238.299C172.864 238.189 173.066 238.005 173.197 237.772C173.328 237.539 173.381 237.271 173.348 237.005C173.348 236.56 173.348 236.505 173.185 236.234C172.857 235.778 172.444 235.391 171.968 235.092C171.75 234.985 171.558 234.833 171.404 234.646C171.251 234.458 171.139 234.24 171.077 234.005C170.918 233.557 170.871 233.077 170.942 232.607C171.012 232.137 171.196 231.692 171.479 231.31C171.598 231.14 171.754 230.999 171.935 230.897C172.62 230.505 173.707 230.549 174.033 231.147C174.086 231.225 174.114 231.318 174.114 231.413C174.114 231.508 174.086 231.601 174.033 231.679C173.903 232.071 173.62 232.158 173.077 231.897C172.87 231.821 171.99 231.625 171.99 232.549C171.99 233.473 172.196 233.636 173.077 234.114C173.63 234.452 174.055 234.965 174.285 235.571C174.515 236.177 174.537 236.842 174.348 237.462C174.183 237.993 173.902 238.48 173.527 238.89C173.151 239.3 172.689 239.621 172.174 239.831C171.676 240.039 171.128 240.096 170.598 239.995Z" fill="#455A64"/>
<path d="M176.011 230.951C176.047 230.571 176.158 230.201 176.337 229.864C176.5 229.472 176.859 229.168 177.043 229.385C177.159 229.556 177.23 229.753 177.249 229.958C177.268 230.164 177.235 230.371 177.152 230.559C177.079 230.713 176.975 230.851 176.849 230.965C176.722 231.078 176.574 231.166 176.413 231.222C176.217 231.299 176.054 231.146 176.011 230.951ZM176.011 236.885C176.046 236.505 176.157 236.135 176.337 235.799C176.5 235.407 176.859 235.103 177.043 235.32C177.159 235.491 177.23 235.688 177.249 235.893C177.268 236.099 177.235 236.305 177.152 236.494C177 236.799 176.735 237.033 176.413 237.146C176.217 237.244 176.054 237.049 176.011 236.885Z" fill="#455A64"/>
<path d="M223.337 239.07C223.337 238.842 222.935 238.907 222.804 238.961C221.718 239.599 220.772 240.45 220.022 241.461L219.076 242.548C218.25 243.429 217.75 243.505 217.576 242.766C217.576 242.766 217.283 242.527 217.185 242.527C214.946 242.527 214.076 244.483 212.565 245.788C212.033 243.907 210.163 245.69 209.304 246.874C207.565 249.32 203.967 250.038 201.957 252.309C201.957 251.581 201.794 250.864 201.065 250.842C201.091 250.22 200.907 249.608 200.544 249.103C200.501 249.063 200.448 249.034 200.391 249.019C200.335 249.003 200.275 249.002 200.217 249.016C198.478 249.385 197.467 251.733 196.87 253.364C196.989 251.266 197.098 249.157 197.12 247.059C197.12 246.657 196.391 246.798 196.381 247.157C196.261 250.548 194.967 253.005 193 255.679C192.505 256.373 191.949 257.02 191.337 257.614C190.532 258.252 189.609 258.725 188.62 259.005C188.226 259.111 187.857 259.291 187.533 259.538C187.239 259.794 186.923 260.024 186.587 260.222C186.413 260.309 186.109 260.222 185.87 260.309C185.14 260.813 184.537 261.479 184.109 262.255C183.457 261.733 183.022 261.798 182.272 262.396C181.707 262.82 181.185 263.679 180.652 264.027C179.239 264.853 180.033 263.874 179.304 263.114C178.359 262.114 177.337 263.038 176.522 263.722C175.532 264.531 174.752 265.568 174.25 266.744C174.054 265.798 173.598 265.005 172.62 265.168C171.152 265.396 170.239 268.092 169.674 269.124C169.063 270.539 168.097 271.771 166.87 272.701C166.224 273.179 165.482 273.513 164.696 273.679C164.467 273.679 164.348 273.516 164.087 273.624C163.694 273.818 163.329 274.063 163 274.353C162.25 274.842 163.294 275.222 161.815 274.788C160.859 274.505 160.967 274.146 160.533 273.407C160.435 273.255 160.196 273.288 160.065 273.342C159.425 273.721 158.89 274.256 158.511 274.896C157.902 275.701 156.467 278.429 155.391 278.505C153.598 278.635 153.554 274.07 153.522 273.005C153.457 270.831 153.728 268.657 153.804 266.483C153.804 266.244 153.294 266.244 153.261 266.483C152.747 269.43 152.02 272.336 151.087 275.179C150.152 277.885 148.707 280.407 148.576 283.32C148.576 283.494 148.935 283.57 148.946 283.407C149.163 280.374 150.75 277.679 151.717 274.853C152.217 273.396 152.631 271.875 152.989 270.353C152.848 271.893 152.848 273.443 152.989 274.983C153.12 276.07 153.109 278.951 154.554 279.266C155.641 279.505 156.881 277.896 157.424 277.244C157.826 276.766 158.772 274.875 159.391 274.635C160.62 274.168 160.359 275.614 161.033 276.114C161.707 276.614 162.12 276.364 162.761 275.885C163.598 275.266 163.25 274.657 164.75 274.353C165.109 274.288 165.489 274.538 165.924 274.353C167.23 273.703 168.351 272.735 169.185 271.538C169.888 270.368 170.509 269.152 171.044 267.896C171.217 267.559 171.772 266.19 172.239 266.103L173.674 267.668C173.674 268.19 173.674 268.701 173.674 269.222C173.674 269.744 174.391 269.472 174.413 269.124C174.554 267.135 175.609 264.016 177.946 263.951C179.315 263.951 178.815 264.57 179.674 265.385C179.754 265.459 179.859 265.499 179.967 265.499C180.076 265.499 180.181 265.459 180.261 265.385C180.946 264.711 182.663 261.875 183.815 262.972C183.864 263.009 183.919 263.036 183.979 263.05C184.038 263.065 184.099 263.067 184.16 263.057C184.22 263.047 184.277 263.024 184.328 262.991C184.379 262.958 184.423 262.914 184.457 262.864C184.739 262.505 185.957 260.396 186.435 261.027C186.576 261.211 186.891 261.124 187.022 261.027C187.62 260.429 188.315 259.937 189.076 259.57C189.337 259.44 189.652 259.429 189.935 259.309C191.207 258.669 192.298 257.72 193.109 256.548C194.42 255.019 195.474 253.286 196.228 251.418C196.141 253.157 196.033 254.896 195.913 256.635C195.446 259.399 195.271 262.205 195.391 265.005C195.391 265.429 196.141 265.233 196.152 264.864C196.272 262.07 196.478 259.277 196.663 256.483C196.772 256.027 196.881 255.57 197.022 255.114C197.435 253.755 197.837 251.853 198.946 250.853C199.804 250.124 200.283 250.527 200.326 251.222C200.173 251.427 200.065 251.661 200.009 251.91C199.953 252.159 199.95 252.418 200 252.668C200.054 252.972 200.587 252.798 200.685 252.668C200.731 252.584 200.771 252.497 200.804 252.407C201.174 252.233 201.304 252.342 201.174 252.733C201.044 253.124 201.174 253.407 201.098 253.733C201.022 254.059 201.728 253.918 201.826 253.733C202.783 251.777 205.924 249.994 207.859 249.103C208.299 248.975 208.715 248.773 209.087 248.505C209.196 248.396 211.685 244.592 211.913 246.516C211.913 246.766 212.261 246.82 212.446 246.69C213.533 245.951 214.033 244.516 215.239 243.94C218.163 242.429 216.239 244.059 217.87 244.331C218.891 244.494 222.674 239.831 222.641 239.657C222.707 240.005 223.402 239.788 223.337 239.429V239.07Z" fill="#455A64"/>
<path d="M261.174 215.494C260.41 216.801 259.466 217.994 258.369 219.038C257.88 220.353 256.685 220.733 254.793 220.125C254.678 219.963 254.539 219.82 254.38 219.701C254.206 219.701 253.902 219.559 253.674 219.559C252.261 219.625 251.5 223.386 250.337 221.788C250.217 221.625 249.935 221.701 249.804 221.788C248.964 222.304 248.265 223.021 247.771 223.875C247.576 224.212 247.467 224.842 247.239 225.059L247.076 225.223C246.955 225.232 246.836 225.265 246.728 225.32C246.641 225.32 246.087 225.146 245.88 225.19C245.467 225.288 245.206 225.712 244.978 226.027C244.586 226.75 244.241 227.498 243.945 228.266C243.876 228.38 243.818 228.5 243.771 228.625C243.813 228.476 243.805 228.317 243.751 228.173C243.696 228.028 243.597 227.905 243.467 227.82C242.38 227.103 241.391 228.799 240.717 229.994C240.489 228.788 240.098 227.516 238.674 228.103C236.956 228.799 236.369 230.277 235.837 231.831C235.837 229.657 235.543 226.483 233.739 226.809C232.543 227.038 231.315 229.255 230.782 230.146C230.032 231.386 229.695 233.233 228.739 234.277C228.532 234.494 229.043 234.646 229.206 234.494C230.543 233.212 231.141 230.69 232.25 229.179C232.706 228.549 233.435 227.223 234.511 228.157C234.815 228.429 234.728 229.657 234.782 230.125C234.945 231.386 234.945 232.636 235.076 233.896C235.076 234.309 235.728 234.092 235.848 233.842C236.228 233.059 236.391 232.255 236.739 231.451C236.916 230.662 237.362 229.959 238 229.462C239.424 229.462 240.119 230.016 240.087 231.212C240.163 231.581 240.652 231.44 240.826 231.212C241.282 230.636 242.739 227.69 243.206 229.396C243.261 229.614 243.445 229.646 243.652 229.614C244.739 229.429 245.576 224.94 246.576 226.353C246.695 226.516 246.989 226.451 247.108 226.353C248.195 225.581 248.782 221.614 250.369 223.429C250.413 223.472 250.467 223.502 250.526 223.518C250.585 223.533 250.647 223.532 250.706 223.516C251.619 223.244 251.793 222.429 252.38 221.788C252.967 221.146 252.608 221.157 253.467 220.886C255.032 220.386 253.652 220.886 254.608 221.027C255.261 221.136 255.445 221.407 256.174 221.353C257.058 221.252 257.876 220.835 258.478 220.179C259.174 219.386 259.663 218.396 260.358 217.57C260.942 216.985 261.417 216.3 261.761 215.549C261.858 215.309 261.282 215.309 261.174 215.494Z" fill="#455A64"/>
<path d="M284.946 204.712C284.406 204.708 283.88 204.88 283.446 205.201C282.164 205.907 280.957 206.896 279.696 207.657C279.044 208.049 278.5 208.635 277.881 209.016C276.294 209.994 275.848 208.798 274.816 207.679C274.758 207.644 274.693 207.626 274.625 207.626C274.558 207.626 274.493 207.644 274.435 207.679C273.098 208.016 273.142 209.059 272.109 209.712C271.424 210.135 271.457 210.222 270.914 209.44C270.577 208.972 270.566 208.462 270.142 208.016C270 207.864 269.761 207.929 269.609 208.016C268.392 208.755 267.685 210.059 266.718 211.081C265.75 212.103 264.544 214.418 263.011 214.951C262.74 215.049 263.011 215.32 263.196 215.266C264.283 215.027 264.805 214.179 265.533 213.309C266.261 212.44 266.99 211.701 267.707 210.896C268.077 210.494 268.794 209.244 269.12 209.135C270.62 208.69 270.087 212.212 272.055 210.907C272.587 210.549 272.664 209.744 273.142 209.375C274.609 208.288 274.5 209.092 275.316 209.646C276.131 210.201 276.272 210.831 277.229 210.603C277.49 210.549 277.642 210.266 277.87 210.157C278.036 209.978 278.182 209.782 278.305 209.57C279.136 208.781 280.12 208.17 281.196 207.777C282.337 207.005 283.446 205.668 284.827 205.375C285.185 205.255 285.435 204.69 284.946 204.712Z" fill="#455A64"/>
<path d="M195.488 276.636C194.988 278.56 192.086 281.103 190.521 278.668C189.836 277.582 190.227 275.255 190.227 274.016V268.255C190.227 266.832 190.227 265.397 190.227 263.908C190.227 263.375 189.38 263.582 189.38 264.016V266.788C189.38 271.375 188.999 275.701 186.836 280.016C186.388 281.175 185.793 282.271 185.064 283.277C183.673 284.799 182.401 284.614 181.554 283.929C181.738 283.582 181.901 283.234 182.075 282.929C182.412 282.364 183.391 281.342 183.086 280.56C182.662 279.473 180.684 279.538 180.13 280.473C179.868 281.031 179.77 281.652 179.847 282.264C179.924 282.876 180.173 283.453 180.564 283.929C179.88 284.875 179.021 285.864 177.977 284.853C177.881 284.785 177.762 284.757 177.645 284.773C177.528 284.789 177.422 284.849 177.347 284.94C176.804 285.592 176.543 286.408 176.043 287.049C175.369 287.908 175.314 289.223 173.934 289.223C173.661 289.245 173.389 289.164 173.173 288.995C172.488 288.429 173.358 287.147 173.488 286.473C173.75 285.521 173.633 284.504 173.162 283.636C173.109 283.557 173.027 283.501 172.934 283.481C172.841 283.461 172.744 283.477 172.662 283.527C171.735 283.957 170.984 284.693 170.534 285.612C170.085 286.53 169.965 287.575 170.195 288.571C170.314 288.962 170.847 289.505 170.63 289.81C170.412 290.114 169.543 290.147 169.238 290.027C168.694 289.819 168.216 289.466 167.858 289.005C166.901 287.919 165.271 292.266 164.956 292.832C164.206 294.245 163.684 295.56 162.293 296.44C162.046 296.614 161.746 296.699 161.445 296.679C160.793 296.56 160.999 295.853 160.88 295.397C160.88 295.614 160.804 294.31 160.88 294.386C160.88 294.212 160.575 294.212 160.456 294.245C159.662 294.451 159.619 294.94 159.13 295.668C158.901 296.016 158.543 296.647 158.282 296.973C158.171 297.248 158.003 297.497 157.79 297.703C157.576 297.909 157.322 298.068 157.043 298.168H156.445C155.717 298.69 155.162 299.495 154.423 299.984C153.217 300.777 152.173 301.299 152.032 299.375C152.027 298.756 151.972 298.138 151.869 297.527C151.804 297.234 151.325 297.375 151.206 297.527C150.447 298.587 149.816 299.733 149.325 300.94C149.021 301.701 146.912 306.788 146.064 303.332C145.814 302.245 147.151 300.266 147.619 299.299C148.488 297.44 148.575 296.929 151.325 296.647C151.662 296.647 152.662 296.734 152.869 296.734C153.075 296.734 153.075 296.429 152.869 296.418C151.075 296.418 149.934 295.451 148.391 296.842C147.304 297.788 146.977 299.31 146.401 300.527C145.711 301.573 145.334 302.795 145.314 304.049C145.445 305.255 146.151 306.103 147.412 305.462C148.151 305.082 148.63 303.962 148.988 303.288C149.793 301.723 150.369 300.147 151.238 298.647C151.314 299.81 151.238 300.908 152.141 301.821C152.193 301.872 152.259 301.906 152.33 301.919C152.402 301.933 152.476 301.925 152.543 301.897C153.568 301.371 154.512 300.701 155.347 299.908C156.141 299.288 157.293 299.114 158.01 298.451C158.66 297.653 159.224 296.79 159.695 295.875C159.894 295.628 160.079 295.37 160.249 295.103C160.213 295.501 160.213 295.901 160.249 296.299C160.608 297.799 161.749 297.69 162.847 296.897C163.752 296.125 164.491 295.178 165.021 294.114C165.804 292.821 166.336 290.853 167.369 289.669C167.538 290.042 167.796 290.369 168.12 290.62C168.445 290.871 168.826 291.039 169.23 291.109C169.635 291.179 170.05 291.148 170.44 291.02C170.83 290.892 171.182 290.671 171.467 290.375C171.467 290.375 171.575 290.255 171.63 290.212C172.284 290.419 172.983 290.442 173.65 290.279C174.317 290.117 174.927 289.774 175.412 289.288C175.915 288.764 176.329 288.162 176.641 287.505C176.825 287.092 177.032 286.669 177.238 286.266C177.564 285.672 177.901 285.629 178.249 286.136C179.108 286.136 179.195 286.462 180.032 285.951C180.528 285.615 180.932 285.159 181.206 284.625C181.477 284.886 181.8 285.089 182.154 285.22C182.507 285.351 182.884 285.407 183.26 285.386C185.956 285.082 187.543 280.527 188.423 278.527C188.785 277.68 189.087 276.808 189.325 275.918C189.26 277.266 189.325 278.734 190.13 279.614C192.564 282.19 195.695 279.179 196.358 276.658C196.488 276.092 195.608 276.179 195.488 276.636ZM170.934 286.766C171.151 285.495 172.999 283.582 172.717 285.919C172.639 286.409 172.523 286.892 172.369 287.364C172.282 287.708 172.162 288.043 172.01 288.364C171.986 288.435 171.957 288.504 171.923 288.571C170.956 288.658 170.651 288.364 170.934 286.766ZM180.456 281.397C180.45 281.243 180.486 281.091 180.561 280.957C180.636 280.823 180.746 280.712 180.88 280.636C181.004 280.604 181.135 280.604 181.26 280.636C181.438 280.635 181.613 280.688 181.76 280.788C181.848 280.861 181.919 280.952 181.968 281.056C182.016 281.159 182.042 281.272 182.043 281.386C182.061 281.757 181.932 282.12 181.684 282.397L181.108 283.223L180.999 283.375C180.999 283.375 180.619 282.56 180.586 282.462C180.496 282.188 180.448 281.902 180.445 281.614C180.44 281.542 180.444 281.469 180.456 281.397Z" fill="#455A64"/>
<path d="M241.533 247.472H241.261C241.194 247.483 241.131 247.514 241.08 247.56C241.03 247.606 240.995 247.667 240.978 247.733C240.339 249.205 239.449 250.555 238.348 251.722C235.533 254.494 235.641 250.407 235.489 248.972C235.489 248.679 235.098 248.7 234.913 248.82C233.71 249.653 232.782 250.826 232.25 252.19C232.087 252.516 231.163 254.646 230.968 254.581C231.239 254.679 230.826 252.7 230.652 252.407C230.478 252.114 230.37 252.277 230.261 252.32C228.971 252.911 227.829 253.781 226.918 254.868C226.006 255.954 225.347 257.23 224.989 258.603C224.674 258.32 224.272 258.277 223.663 258.603C223.055 258.929 222.468 260.537 221.968 260.613C221.968 260.613 221.37 259.853 221.12 259.787C219.805 259.429 218.218 261.407 217.446 262.157C215.413 264.168 216.478 261.211 214.652 261.07C214.578 261.058 214.502 261.066 214.431 261.093C214.361 261.12 214.298 261.164 214.25 261.222C213.428 262.734 212.502 264.187 211.478 265.57C210.511 266.777 209.728 267.244 209.305 265.331C209.033 264.016 210.152 262.592 210.326 261.266C210.326 260.961 209.848 260.972 209.718 261.157C207.413 264.418 205.859 267.896 203.033 270.787C202.826 270.994 203.337 271.124 203.5 270.961C205.891 268.624 207.359 265.864 209.098 263.124C208.533 264.853 207.924 267.07 209.283 267.614C210.641 268.157 211.946 265.907 212.478 265.157C212.976 264.155 213.577 263.208 214.272 262.331C214.968 261.711 214.511 261.722 215.228 262.559C215.5 262.874 215.544 263.407 215.924 263.646C216.101 263.806 216.326 263.903 216.563 263.923C216.801 263.943 217.039 263.883 217.239 263.755C217.859 263.385 220.5 258.537 221.326 261.255C221.381 261.418 221.609 261.45 221.75 261.396C222.37 261.168 224.228 258.135 224.815 259.809C224.913 260.114 225.5 259.972 225.511 259.679C225.609 257.505 226.794 256.124 228.185 254.646C228.772 254.027 229.359 252.809 230.261 253.864C230.282 254.319 230.329 254.772 230.402 255.222C230.468 255.44 230.761 255.407 230.913 255.342C232.848 254.461 233.087 251.32 234.739 249.744C234.815 251.418 234.739 253.809 237.044 253.407C237.932 253.158 238.686 252.568 239.141 251.766C239.663 251.048 240.141 250.32 240.674 249.592C240.75 249.483 241.62 247.918 241.674 247.896C242.076 247.809 241.859 247.429 241.533 247.472Z" fill="#455A64"/>
<path d="M278.033 227.799C277.738 227.767 277.44 227.799 277.159 227.893C276.877 227.986 276.619 228.14 276.403 228.342C275.968 228.69 275.729 229.233 275.316 229.603C273.142 231.516 272.055 229.418 271.826 227.429C271.772 227.016 271.218 227.233 271.076 227.429C270.185 228.788 270.555 230.299 269.446 231.777C268.576 232.864 265.37 236.831 264.772 233.505C264.707 233.157 264.25 233.255 264.076 233.451C263.239 234.364 262.729 235.483 261.903 236.44C261.435 236.994 260.098 238.538 259.631 238.516C258.381 238.44 258.37 236.538 258.294 235.766C258.294 235.418 257.805 235.516 257.631 235.679C257.218 236.07 253.718 243.386 252.75 242.636C252.489 242.44 251.913 242.809 252.229 243.059C254.076 244.505 256.326 239.342 257.555 237.016C257.555 238.277 257.653 239.57 259.348 239.244C261.653 238.809 262.816 236.157 264.131 234.386C264.653 235.809 265.848 236.222 267.283 235.179C268.546 234.122 269.629 232.866 270.489 231.462C270.892 230.673 271.149 229.819 271.25 228.94C271.576 230.125 272.207 231.19 273.674 231.233C275.685 231.299 276.011 228.451 277.892 228.331C278.261 228.353 278.489 227.82 278.033 227.799Z" fill="#455A64"/>
<path d="M178.315 304.06C179.011 303.234 179.511 302.57 180.652 302.56C180.761 302.553 180.87 302.575 180.967 302.625C181.047 302.664 181.114 302.724 181.163 302.799C181.364 303.141 181.64 303.433 181.969 303.655C182.298 303.877 182.673 304.023 183.065 304.081C184.152 304.157 186.054 302.407 187.413 300.57C188.5 300.994 190.402 299.484 191.239 298.712C191.685 298.299 191.044 297.907 190.652 298.277C190.43 298.736 190.085 299.125 189.655 299.4C189.225 299.674 188.727 299.824 188.217 299.831C188.152 299.831 188.065 299.831 188.065 299.755C188.152 299.016 189.75 297.136 188.489 296.603C187.228 296.07 186.533 298.201 186.598 299.016C186.603 299.392 186.688 299.763 186.848 300.103C186.544 300.603 186.217 301.103 185.859 301.581C185.466 301.966 185.052 302.329 184.62 302.668C184.413 302.905 184.152 303.088 183.859 303.201C183.372 303.264 182.877 303.161 182.457 302.907C181.728 302.342 183 301.527 183.37 301.081C183.898 300.464 184.344 299.781 184.696 299.049C185.185 297.962 185.413 296.527 183.837 296.473C181.663 296.473 180.522 299.549 180.924 301.831C180.478 301.874 180.041 301.988 179.63 302.168C178.9 302.635 178.268 303.24 177.772 303.951C176.88 305.038 176.457 305.636 176.522 303.799C176.522 303.451 175.967 303.527 175.859 303.799C175.163 305.706 174.208 307.509 173.022 309.157C172.283 310.005 171.152 310.962 170.293 310.549C171.18 309.224 171.824 307.752 172.196 306.201C172.446 305.114 173.283 301.712 171.217 301.549C169.554 301.418 169.043 304.886 168.804 305.897C168.411 307.458 168.533 309.105 169.152 310.592L169.304 310.82C168.934 311.358 168.52 311.863 168.065 312.331C167.294 313.103 166.228 314.266 165.022 314.255C164.909 314.266 164.795 314.249 164.689 314.208C164.583 314.166 164.489 314.101 164.413 314.016C163.913 313.386 165.12 312.168 165.38 311.592C165.784 310.682 165.923 309.676 165.783 308.69C165.772 308.625 165.74 308.565 165.69 308.521C165.64 308.478 165.577 308.453 165.511 308.451H165.207C165.125 308.445 165.043 308.459 164.969 308.493C164.895 308.528 164.831 308.58 164.783 308.647C163.779 310.095 163.271 311.831 163.337 313.592L162.543 314.462C161.859 315.234 160.543 317.527 159.543 315.614C159.505 315.573 159.457 315.542 159.404 315.523C159.351 315.505 159.295 315.498 159.239 315.505C158.576 315.636 158.5 315.886 158.065 316.473C157.63 317.06 157.163 318.44 156.087 317.462C156.087 317.462 156.087 316.081 156.011 315.897C155.935 315.712 155.5 315.744 155.37 315.897C154.337 317.049 153.87 318.886 152.848 320.07C153.018 319.23 153.258 318.404 153.565 317.603C153.707 317.201 152.989 317.223 152.88 317.549C152.022 319.897 151.109 322.484 149.315 324.266C149.032 324.718 148.6 325.055 148.093 325.22C147.586 325.385 147.038 325.367 146.543 325.168C146.21 324.634 146.056 324.007 146.105 323.379C146.154 322.751 146.403 322.155 146.815 321.679C147.272 320.603 148.026 319.679 148.989 319.016C149.967 318.56 150.391 318.657 150.261 319.31C150.261 319.581 150.794 319.538 150.826 319.31C150.967 317.962 149.739 318.114 148.717 318.56C147.065 319.32 145.065 322.44 145.185 324.266C145.283 325.853 146.989 326.31 148.315 325.82C150.163 325.157 151.38 323.168 152.272 321.125C152.346 321.143 152.422 321.145 152.497 321.132C152.572 321.119 152.643 321.091 152.707 321.049C154.033 320.125 154.533 318.342 155.402 316.94C155.402 317.973 155.261 319.038 156.717 318.766C157.696 318.581 157.804 317.82 158.37 317.179C159.337 316.092 158.685 316.603 159.63 317.179C160.946 317.973 161.804 316.397 162.522 315.527L163.609 314.353C163.657 314.479 163.719 314.599 163.794 314.712C165.011 316.19 166.576 314.712 167.598 313.777C168.397 313.067 169.125 312.28 169.772 311.429C171.837 313.32 174.598 308.168 175.902 305.418C175.906 305.531 175.938 305.64 175.995 305.737C176.051 305.834 176.131 305.916 176.227 305.975C176.322 306.034 176.431 306.069 176.543 306.076C176.655 306.083 176.767 306.063 176.87 306.016C177.402 305.712 178 304.44 178.315 304.06ZM164.587 311.668C164.522 311.831 164.446 311.984 164.37 312.136C164.185 312.494 164.087 312.614 164.054 312.136C164.05 311.412 164.191 310.695 164.467 310.027C164.532 309.756 164.681 309.513 164.891 309.331C164.978 309.266 165.13 309.234 165.174 309.331C165.183 309.36 165.183 309.39 165.174 309.418C165.196 309.639 165.196 309.861 165.174 310.081C165.11 310.461 164.985 310.828 164.804 311.168L164.587 311.668ZM169.674 309.744C169.446 309.133 169.347 308.482 169.38 307.831C169.333 306.209 169.614 304.593 170.207 303.081C170.238 302.98 170.286 302.885 170.348 302.799C170.439 302.695 170.562 302.623 170.697 302.596C170.833 302.568 170.973 302.586 171.098 302.647C171.224 302.707 171.335 302.794 171.425 302.901C171.515 303.007 171.581 303.132 171.62 303.266C171.696 303.534 171.729 303.813 171.717 304.092C171.745 305.042 171.616 305.989 171.337 306.897C171.023 307.68 170.66 308.442 170.25 309.179C170.109 309.451 169.957 309.712 169.804 309.962L169.674 309.744ZM181.87 301.375C181.819 301.334 181.778 301.282 181.75 301.223C181.728 301.126 181.728 301.026 181.75 300.929C181.734 300.135 181.84 299.343 182.065 298.581C182.326 297.842 182.837 297.081 183.717 297.125C183.84 297.123 183.961 297.157 184.065 297.223C184.902 297.788 184.065 299.07 183.707 299.647C183.434 300.034 183.128 300.398 182.793 300.734C182.609 301.005 182.152 301.636 181.87 301.429V301.375Z" fill="#455A64"/>
<path d="M194.38 297.483C193.945 297.483 193.706 298.157 194.25 298.157C194.793 298.157 194.935 297.483 194.38 297.483Z" fill="black"/>
<path d="M372.402 353.896C372.297 353.618 372.238 353.324 372.228 353.026V354.896C372.222 355.004 372.222 355.113 372.228 355.222V355.298C372.217 355.41 372.217 355.523 372.228 355.635V355.798C372.245 355.89 372.267 355.98 372.293 356.07L372.456 356.494C372.522 356.635 372.598 356.776 372.674 356.918C373.33 357.961 374.253 358.809 375.348 359.374C377.762 360.568 380.424 361.176 383.117 361.147C385.811 361.119 388.459 360.456 390.848 359.211C391.413 358.89 391.935 358.499 392.402 358.048C392.493 357.977 392.577 357.897 392.652 357.809C392.705 357.764 392.752 357.712 392.793 357.657C392.883 357.56 392.966 357.459 393.043 357.352C393.32 357.005 393.547 356.621 393.717 356.211C393.759 356.124 393.792 356.033 393.815 355.939L393.891 355.668C393.928 355.521 393.953 355.372 393.967 355.222C393.967 355.102 393.967 354.994 393.967 354.885C393.962 354.842 393.962 354.798 393.967 354.754V352.581C393.981 352.947 393.937 353.314 393.837 353.668C393.273 352.196 392.169 350.994 390.75 350.309C388.336 349.113 385.675 348.504 382.982 348.53C380.288 348.557 377.639 349.218 375.25 350.461C373.902 351.207 372.885 352.433 372.402 353.896ZM394.141 354.363C394.135 354.313 394.135 354.262 394.141 354.211C394.139 354.262 394.143 354.313 394.152 354.363H394.141Z" fill="#0F8B8D"/>
<path d="M370.043 128.353L391.978 128.092V130.266L394.152 352.635C394.165 353.002 394.121 353.369 394.021 353.722C393.491 355.218 392.405 356.452 390.989 357.168C388.6 358.413 385.951 359.076 383.257 359.103C380.563 359.129 377.901 358.518 375.489 357.32C374.392 356.762 373.468 355.917 372.815 354.874C372.636 354.595 372.501 354.291 372.413 353.972C372.307 353.694 372.248 353.4 372.239 353.103C372.234 353.052 372.234 353.001 372.239 352.95V352.874L370.043 128.353Z" fill="#F0F0F0"/>
<path d="M373.304 132.777C368.956 130.353 368.956 126.342 373.217 123.82C375.607 122.58 378.256 121.92 380.949 121.893C383.642 121.867 386.303 122.475 388.717 123.668C393.065 126.092 393.065 130.103 388.815 132.625C386.423 133.865 383.772 134.525 381.078 134.552C378.383 134.578 375.72 133.97 373.304 132.777Z" fill="#0F8B8D"/>
<path d="M374.739 112.57C374.706 112.659 374.676 112.749 374.652 112.841L370.305 126.896V127.004C370.274 127.086 370.249 127.17 370.229 127.254V127.407C369.783 129.309 370.816 131.309 373.37 132.744C375.786 133.937 378.449 134.545 381.143 134.518C383.838 134.492 386.489 133.832 388.881 132.591C391.348 131.124 392.359 129.167 391.946 127.298V127.189C391.896 127.004 391.834 126.823 391.761 126.646V126.526L387.163 112.591C386.84 111.768 386.219 111.097 385.424 110.711C384.043 110.026 382.52 109.676 380.979 109.691C379.438 109.706 377.922 110.086 376.555 110.798C375.756 111.151 375.112 111.78 374.739 112.57Z" fill="#E0E0E0"/>
<path d="M378.717 295.646C378.711 295.656 378.708 295.667 378.708 295.679C378.708 295.69 378.711 295.702 378.717 295.711V296.005C378.774 296.311 378.901 296.6 379.09 296.847C379.279 297.094 379.524 297.294 379.804 297.429C380.665 297.852 381.612 298.068 382.571 298.059C383.53 298.049 384.474 297.815 385.326 297.375C385.6 297.236 385.84 297.039 386.028 296.796C386.216 296.554 386.347 296.272 386.413 295.972V295.592L384.815 121.472L377.021 117.125L378.717 295.646Z" fill="#455A64"/>
<path d="M384.945 134.103L384.815 121.472L377.021 117.125L377.195 134.233C379.759 134.734 382.4 134.689 384.945 134.103Z" fill="#37474F"/>
<path d="M377.206 106.613L373.271 119.32C373.226 119.433 373.189 119.549 373.163 119.668C372.815 121.026 373.554 122.461 375.337 123.494C377.043 124.338 378.925 124.768 380.829 124.747C382.733 124.726 384.605 124.256 386.293 123.374C388.032 122.353 388.761 120.972 388.467 119.668C388.467 119.668 388.467 119.603 388.467 119.581L388.358 119.222L384.13 106.439C383.952 105.967 383.603 105.579 383.152 105.353C382.379 104.958 381.525 104.753 380.657 104.753C379.79 104.753 378.935 104.958 378.163 105.353C377.924 105.484 377.715 105.664 377.55 105.881C377.386 106.099 377.268 106.348 377.206 106.613Z" fill="#0F8B8D"/>
<path opacity="0.1" d="M377.206 106.613L373.271 119.32C373.226 119.433 373.189 119.549 373.163 119.668C372.815 121.026 373.554 122.461 375.337 123.494C377.043 124.338 378.925 124.768 380.829 124.747C382.733 124.726 384.605 124.256 386.293 123.374C388.032 122.353 388.761 120.972 388.467 119.668C388.467 119.668 388.467 119.603 388.467 119.581L388.358 119.222L384.13 106.439C383.952 105.967 383.603 105.579 383.152 105.353C382.379 104.958 381.525 104.753 380.657 104.753C379.79 104.753 378.935 104.958 378.163 105.353C377.924 105.484 377.715 105.664 377.55 105.881C377.386 106.099 377.268 106.348 377.206 106.613Z" fill="black"/>
<path d="M378.185 105.429C378.957 105.035 379.812 104.829 380.679 104.829C381.546 104.829 382.401 105.035 383.174 105.429C383.625 105.655 383.974 106.043 384.152 106.516L386.326 113.037C386.663 114.048 386.163 115.146 384.804 115.95C383.574 116.589 382.211 116.929 380.825 116.944C379.44 116.959 378.07 116.649 376.826 116.037C376.262 115.817 375.793 115.406 375.501 114.876C375.209 114.345 375.113 113.729 375.228 113.135L375.304 112.885L377.195 106.613C377.271 106.359 377.397 106.123 377.567 105.919C377.738 105.715 377.948 105.548 378.185 105.429Z" fill="#0F8B8D"/>
<path opacity="0.1" d="M378.217 108.309C376.826 107.527 376.815 106.233 378.217 105.429C378.99 105.035 379.845 104.829 380.712 104.829C381.579 104.829 382.434 105.035 383.207 105.429C383.507 105.531 383.768 105.725 383.953 105.983C384.138 106.242 384.237 106.551 384.237 106.869C384.237 107.186 384.138 107.496 383.953 107.754C383.768 108.013 383.507 108.207 383.207 108.309C382.433 108.701 381.579 108.905 380.712 108.905C379.845 108.905 378.991 108.701 378.217 108.309Z" fill="black"/>
<path d="M379.054 329.538C379.086 329.88 379.21 330.207 379.413 330.485C379.616 330.763 379.89 330.98 380.207 331.114C381.061 331.537 382.004 331.753 382.958 331.743C383.911 331.734 384.849 331.5 385.696 331.06C386.005 330.914 386.269 330.687 386.46 330.404C386.651 330.121 386.763 329.792 386.783 329.451L386.446 295.973C386.38 296.272 386.248 296.554 386.06 296.796C385.872 297.039 385.633 297.237 385.359 297.375C384.507 297.815 383.563 298.049 382.604 298.059C381.645 298.068 380.697 297.853 379.837 297.429C379.557 297.294 379.312 297.095 379.123 296.847C378.934 296.6 378.806 296.311 378.75 296.005L379.054 329.538Z" fill="#FAFAFA"/>
<path d="M380.174 327.94C381.025 327.511 381.965 327.287 382.918 327.287C383.871 327.287 384.811 327.511 385.663 327.94C385.991 328.054 386.276 328.267 386.478 328.551C386.68 328.834 386.788 329.173 386.788 329.521C386.788 329.869 386.68 330.208 386.478 330.492C386.276 330.775 385.991 330.989 385.663 331.103C384.817 331.543 383.878 331.777 382.925 331.786C381.971 331.796 381.028 331.58 380.174 331.157C379.841 331.045 379.552 330.832 379.347 330.547C379.142 330.263 379.032 329.921 379.032 329.57C379.032 329.219 379.142 328.877 379.347 328.593C379.552 328.308 379.841 328.095 380.174 327.983V327.94Z" fill="#F5F5F5"/>
<path d="M373.185 339.222V339.461L373.326 352.668C373.315 352.769 373.315 352.871 373.326 352.972V353.048C373.459 353.868 373.794 354.642 374.301 355.301C374.807 355.959 375.47 356.481 376.228 356.82C378.402 357.894 380.798 358.442 383.223 358.417C385.648 358.392 388.033 357.797 390.185 356.679C392.108 355.537 393.054 354.059 393.032 352.592L392.902 339.222C392.907 339.201 392.907 339.178 392.902 339.157V339.081C392.837 337.657 391.869 336.255 389.978 335.19C387.804 334.115 385.408 333.568 382.983 333.593C380.558 333.617 378.173 334.213 376.022 335.331C375.261 335.69 374.602 336.234 374.106 336.914C373.61 337.594 373.294 338.388 373.185 339.222Z" fill="#0F8B8D"/>
<path opacity="0.05" d="M373.185 339.222V339.461L373.326 352.668C373.315 352.769 373.315 352.871 373.326 352.972V353.048C373.459 353.868 373.794 354.642 374.301 355.301C374.807 355.959 375.47 356.481 376.228 356.82C378.402 357.894 380.798 358.442 383.223 358.417C385.648 358.392 388.033 357.797 390.185 356.679C392.108 355.537 393.054 354.059 393.032 352.592L392.902 339.222C392.907 339.201 392.907 339.178 392.902 339.157V339.081C392.837 337.657 391.869 336.255 389.978 335.19C387.804 334.115 385.408 333.568 382.983 333.593C380.558 333.617 378.173 334.213 376.022 335.331C375.261 335.69 374.602 336.234 374.106 336.914C373.61 337.594 373.294 338.388 373.185 339.222Z" fill="black"/>
<path opacity="0.1" d="M376.109 343.375C372.229 341.201 372.196 337.581 376.022 335.309C378.174 334.191 380.559 333.596 382.984 333.571C385.409 333.547 387.805 334.094 389.979 335.168C393.859 337.342 393.892 340.962 390.066 343.222C387.916 344.345 385.531 344.944 383.106 344.97C380.681 344.997 378.283 344.45 376.109 343.375Z" fill="black"/>
<path d="M378.924 101.309V106.831C378.933 106.995 378.988 107.153 379.082 107.287C379.176 107.422 379.306 107.527 379.456 107.592C379.852 107.792 380.29 107.897 380.734 107.897C381.177 107.897 381.615 107.792 382.011 107.592C382.155 107.523 382.279 107.417 382.371 107.286C382.462 107.154 382.518 107.001 382.533 106.842L382.587 101.331C382.578 101.015 382.487 100.707 382.322 100.437C382.158 100.167 381.926 99.9453 381.649 99.7927C381.372 99.64 381.061 99.5623 380.745 99.5671C380.429 99.5719 380.12 99.6591 379.848 99.82C379.583 99.9724 379.359 100.188 379.198 100.448C379.037 100.708 378.943 101.004 378.924 101.309Z" fill="#455A64"/>
<path d="M378.967 100.961C378.956 101.066 378.956 101.172 378.967 101.277C379.004 101.417 379.072 101.548 379.166 101.659C379.26 101.769 379.378 101.858 379.51 101.918C379.906 102.118 380.344 102.223 380.788 102.223C381.231 102.223 381.669 102.118 382.065 101.918C382.207 101.853 382.329 101.751 382.419 101.623C382.509 101.495 382.563 101.345 382.576 101.19V101.081C382.577 101.048 382.577 101.016 382.576 100.983C382.541 100.786 382.467 100.597 382.358 100.429C382.237 100.223 382.077 100.043 381.886 99.8994C381.695 99.7558 381.478 99.6512 381.247 99.5916C381.015 99.532 380.775 99.5186 380.538 99.5522C380.302 99.5858 380.075 99.6657 379.869 99.7874C379.643 99.907 379.446 100.074 379.29 100.276C379.135 100.479 379.024 100.712 378.967 100.961Z" fill="#263238"/>
<path d="M243.771 438.701L358.565 372.43L468.945 436.158L354.152 502.43L243.771 438.701Z" fill="#0F8B8D"/>
<path opacity="0.3" d="M243.771 438.701L358.565 372.43L468.945 436.158L354.152 502.43L243.771 438.701Z" fill="black"/>
<path d="M243.771 438.701L230.521 431.06L345.315 364.777L358.565 372.429L243.771 438.701Z" fill="#0F8B8D"/>
<path opacity="0.1" d="M243.771 438.701L230.521 431.06L345.315 364.777L358.565 372.429L243.771 438.701Z" fill="black"/>
<path d="M230.521 431.06V446.354L354.152 517.734V502.43L230.521 431.06Z" fill="#0F8B8D"/>
<path opacity="0.2" d="M230.521 431.06V446.354L354.152 517.734V502.43L230.521 431.06Z" fill="black"/>
<path d="M354.152 502.429L468.946 436.158V451.451L354.152 517.734V502.429Z" fill="#0F8B8D"/>
<path d="M447.532 413.517L358.565 372.43L243.771 438.734L354.152 489.723L453.489 432.332C459.554 428.821 465.445 422.897 465.076 415.114C461.619 416.843 456.054 417.484 447.532 413.517Z" fill="#0F8B8D"/>
<path opacity="0.3" d="M447.532 413.517L358.565 372.43L243.771 438.734L354.152 489.723L453.489 432.332C459.554 428.821 465.445 422.897 465.076 415.114C461.619 416.843 456.054 417.484 447.532 413.517Z" fill="white"/>
<g opacity="0.7">
<path d="M365.098 395.202C364.576 395.754 364.258 396.467 364.196 397.223C363.641 400.093 362.391 401.571 358.913 403.745C357.239 404.756 357.087 405.549 356.043 406.658C353.609 409.223 352.587 407.267 350.282 406.332C349.619 406.071 348.848 406.484 348.978 406.886C349.5 408.626 352.413 413.473 347.435 413.767C344.869 413.919 344.032 412.452 341.891 411.691C339.467 410.832 340.804 416.039 341.043 416.952C341.248 417.964 341.35 418.995 341.348 420.028C341.412 420.653 341.326 421.286 341.098 421.872C340.869 422.458 340.504 422.981 340.032 423.397C339.461 423.732 338.814 423.915 338.152 423.93C336.397 424.153 334.614 424.016 332.913 423.528C333.196 422.854 333.859 422.441 334.141 421.68C334.444 420.868 334.545 419.995 334.435 419.136C334.177 417.248 333.284 415.503 331.902 414.191C330.739 413.104 327.38 411.463 325.033 412.506C322.685 413.549 323.946 416.854 324.522 418.169C325.413 420.049 327.554 421.93 330.098 423.419C328.736 424.105 327.264 424.546 325.75 424.723C323.283 425.104 321.304 424.952 320.543 426.593C320.152 427.452 320.902 428.919 320.043 429.626C318.446 430.941 316.783 429.539 315.38 429.691C313.522 429.908 312.946 430.234 312.935 431.452C312.935 431.832 313.511 432.397 313.391 432.734L313.696 433.202C312.853 433.359 311.983 433.249 311.206 432.886C310.869 432.799 309.033 432.082 309.033 432.093C308.816 432.015 308.58 432.004 308.357 432.062C308.134 432.12 307.934 432.245 307.782 432.419C306.913 434.213 307.587 435.952 307.946 437.713C305.25 434.017 303.413 430.278 298.315 427.18C295.543 425.506 290.706 423.408 287.25 425.68C282.054 429.147 283.804 438.528 290.913 440.799C291.06 440.824 291.21 440.816 291.353 440.774C291.496 440.733 291.628 440.66 291.739 440.56L292.326 440.006C292.826 439.539 292.043 438.919 291.38 439.473C290.054 440.56 286.783 434.745 286.663 434.343C286.076 432.245 285.891 429.658 287.402 427.669C290.598 423.441 297.435 428.06 300.043 430.234C303.935 433.495 305.087 437.223 308.152 440.658C308.652 441.213 309.902 441.169 310.043 440.517C310.532 438.223 308.956 435.963 309.446 433.702C311.38 434.593 314.663 436.213 315.891 434.528C316.489 433.723 315.228 432.778 315.619 431.93C316.206 430.636 316.022 431.43 317.859 431.691C318.531 431.832 319.222 431.854 319.902 431.756C320.58 431.636 321.188 431.268 321.609 430.723C323.141 428.963 321.38 427.104 325.348 426.071C327.522 425.484 329.38 425.702 331.337 424.658L331.848 424.354L333.022 424.886C336.391 426.289 340.446 425.973 342.174 423.713C343.11 422.288 343.522 420.581 343.337 418.886C343.402 417.768 343.402 416.646 343.337 415.528C343.177 414.842 342.955 414.173 342.674 413.528C344.554 414.615 346.196 416.104 349.065 415.234C353.152 413.995 352.217 410.713 351.359 408.31C353.761 409.593 355.946 410.908 357.674 408.06C358.598 406.539 358.902 405.517 360.935 404.31C362.044 403.714 363.092 403.012 364.065 402.213C366.239 400.147 364.956 397.865 366.576 395.789C367 395.18 365.75 394.549 365.098 395.202ZM328.489 420.473C326.859 419.126 325.424 417.093 325.772 415.397C325.989 414.31 327.261 413.017 329.348 414.104C331.228 415.082 332.25 417.876 332.402 419.245C332.49 419.852 332.43 420.47 332.225 421.048C332.021 421.626 331.678 422.145 331.228 422.56C330.272 421.923 329.357 421.226 328.489 420.473Z" fill="white"/>
<path d="M387.858 411.984C387.135 412.266 386.434 412.6 385.761 412.984C384.402 413.726 382.873 414.101 381.326 414.071L381.402 413.876C381.902 412.028 380.478 409.723 378.543 408.245C377.848 407.622 376.979 407.225 376.053 407.109C375.126 406.992 374.186 407.161 373.358 407.593C371.348 408.8 372.652 411.082 373.858 412.31C375.128 413.546 376.71 414.414 378.434 414.821C377.547 415.543 376.544 416.11 375.467 416.495C373.695 417.202 372.869 417.18 372.804 418.669C372.865 419.46 373.018 420.24 373.261 420.995C373.554 422.495 373.261 424.256 370 424.071C368.572 423.959 367.177 423.59 365.88 422.984C365.25 422.723 364.598 422.984 364.543 423.387C364.358 424.637 364.913 425.897 364.848 427.147C364.674 430.637 359.706 427.147 358.163 426.115C357.358 425.56 356.434 426.115 356.75 426.713C357.771 428.626 357.304 431.06 356.75 433.017C356.467 434.028 356.043 435.984 354.5 436.658C353.837 436.955 353.101 437.046 352.386 436.92C351.671 436.794 351.01 436.457 350.489 435.952C352.176 433.158 352.71 429.817 351.978 426.637C351.554 425.137 350.478 423.376 347.434 424.234C343.782 425.321 344.174 428.256 344.88 430.115C345.79 432.292 347.074 434.293 348.674 436.028C346.598 439.484 342.782 442.376 337.945 445.245C337.326 445.626 337.848 446.43 338.695 445.963C343.695 443.202 347.282 440.767 349.815 437.05C350.665 437.826 351.764 438.275 352.914 438.317C354.065 438.359 355.193 437.99 356.098 437.278C358.826 435.289 359.587 431.441 359.021 428.452C360.706 429.626 362.826 430.767 364.869 430.115C367.652 429.213 366.576 426.365 366.304 424.495C368.413 425.289 371.098 426.017 373.315 425.158C376.576 423.887 374.402 421.419 374.641 419.669C374.869 417.604 377.554 417.821 379.434 416.517C379.935 416.165 380.369 415.727 380.717 415.224C384.032 415.43 387.424 414.376 389.326 412.06C389.358 412.021 389.382 411.975 389.396 411.926C389.41 411.877 389.415 411.826 389.409 411.775C389.402 411.724 389.386 411.675 389.361 411.631C389.335 411.587 389.301 411.548 389.261 411.517L388.902 411.213C388.326 410.691 387.424 411.571 387.858 411.984ZM348.054 432.702C347.217 431.365 344.913 427.854 346.184 426.18C346.333 426 346.514 425.849 346.717 425.734C347.048 425.557 347.412 425.451 347.787 425.423C348.161 425.395 348.537 425.446 348.891 425.571C349.422 425.776 349.876 426.14 350.193 426.613C350.51 427.085 350.674 427.644 350.663 428.213C350.65 429.126 350.578 430.037 350.445 430.941C350.325 432.241 349.98 433.51 349.424 434.691C348.93 434.054 348.473 433.39 348.054 432.702ZM374.869 411.419C374.486 411.087 374.235 410.628 374.163 410.126C374.183 409.735 374.346 409.366 374.62 409.087C374.895 408.809 375.262 408.641 375.652 408.615C377.076 408.473 377.88 409.517 378.63 410.495C378.782 410.691 380.163 413.756 379.532 413.637C377.79 413.457 376.161 412.69 374.913 411.463L374.869 411.419Z" fill="white"/>
<path d="M344.347 457.843C345.141 461.104 347.858 463.93 349.88 466.539C352.013 469.412 354.628 471.895 357.608 473.876C358.467 474.419 359.141 473.571 358.825 473.126C358.351 472.244 357.762 471.429 357.075 470.702C356.836 470.484 356.282 470.636 355.988 470.865C354.108 469.017 352.727 466.973 351.151 465.06C349.26 462.821 346.477 459.908 345.63 457.452C345.456 456.756 344.227 457.386 344.347 457.843Z" fill="white"/>
<path d="M361.935 454.115C360.033 453.724 358.076 453.691 356.163 454.017C356.335 453.794 356.551 453.608 356.797 453.471C357.044 453.334 357.315 453.248 357.595 453.218C357.876 453.189 358.159 453.216 358.429 453.299C358.698 453.383 358.948 453.519 359.163 453.702C359.804 454.082 360.652 453.191 360.076 452.832C359.322 452.443 358.479 452.257 357.632 452.291C356.784 452.325 355.959 452.579 355.239 453.028C354.711 453.221 354.245 453.552 353.888 453.986C353.531 454.419 353.295 454.94 353.206 455.495C353.206 455.495 353.206 455.56 353.206 455.593C353.201 456.397 353.288 457.2 353.467 457.984C353.902 460.778 356 463.06 358.282 465.517C359.158 466.559 360.276 467.372 361.537 467.883C362.799 468.395 364.167 468.59 365.522 468.452C372.663 467.68 370.956 461.06 368.641 458.538C366.935 456.615 365.619 454.843 361.935 454.115ZM367.815 465.691C362.858 470.31 357.391 462.571 356.119 460.669C355.418 459.612 355.04 458.373 355.032 457.104C355.061 456.577 355.167 456.056 355.348 455.56C363.88 452.712 372.119 461.68 367.815 465.691Z" fill="white"/>
<path d="M370.131 449.463C369.947 449.408 369.75 449.415 369.569 449.482C369.389 449.548 369.235 449.671 369.131 449.832C369 450.158 368.837 450.474 368.718 450.8C368.598 451.126 368.924 451.115 369.218 451.093C369.364 451.092 369.507 451.057 369.637 450.991C369.767 450.925 369.881 450.83 369.968 450.713C370.087 450.539 370.25 450.354 370.381 450.18C370.441 450.126 370.483 450.055 370.503 449.976C370.523 449.898 370.519 449.815 370.493 449.739C370.466 449.662 370.418 449.596 370.353 449.546C370.289 449.497 370.212 449.468 370.131 449.463Z" fill="white"/>
<path d="M383.239 441.582C382.096 441.131 380.857 440.98 379.639 441.144C378.421 441.307 377.266 441.78 376.283 442.517C374.109 444.147 374.728 446.169 375.337 448.06C375.522 448.636 376.804 448.18 376.674 447.734C376.337 446.919 376.125 446.058 376.044 445.18C377.783 447.245 379.304 449.473 381.109 451.626C380.957 451.821 380.815 452.017 380.641 452.202C380.25 452.647 381.185 453.462 381.87 452.908L382.065 452.723C383.587 454.458 385.338 455.975 387.272 457.234C388.163 457.865 389.272 456.876 388.424 456.321C386.427 455.006 384.62 453.422 383.054 451.615C383.565 450.886 383.957 450.093 384.435 449.365C385.129 448.475 385.662 447.471 386.011 446.397C386.446 444.658 385.75 442.778 383.239 441.582ZM383.239 443.071C385.413 444.691 384.489 446.549 383.326 448.289C382.87 448.973 382.435 449.691 381.978 450.397C380.239 448.321 378.717 446.18 377.033 444.212C376.945 444.117 376.832 444.049 376.706 444.018C376.58 443.987 376.448 443.994 376.326 444.039C376.326 443.973 376.391 443.908 376.435 443.843C377.674 442.18 381.174 441.517 383.261 443.071H383.239Z" fill="white"/>
<path d="M413.891 434.299C413.299 435.255 412.392 435.974 411.326 436.332C408.728 437.332 406.359 436.104 404.576 434.93C403.011 433.843 402.609 432.397 401.315 431.267C400.807 430.733 400.18 430.326 399.485 430.08C398.79 429.835 398.046 429.757 397.315 429.854C393.315 430.745 395.141 435.452 395.685 438.082C394.473 437.349 393.089 436.952 391.674 436.93C391.531 436.914 391.387 436.93 391.252 436.977C391.116 437.024 390.993 437.101 390.891 437.202C390.555 437.668 390.344 438.212 390.277 438.783C390.21 439.353 390.291 439.932 390.511 440.463C388.935 439.158 387.413 437.832 385.87 436.517C385.206 435.941 384.109 436.734 384.641 437.202C387.283 439.517 389.87 441.832 392.783 444.039C393.533 444.615 394.326 444.104 394 443.234C393.728 442.539 392.75 442.006 392.315 441.386C392.063 441.087 391.911 440.716 391.881 440.326C391.852 439.936 391.947 439.546 392.152 439.212C392.305 439.045 392.491 438.912 392.699 438.822C392.907 438.732 393.132 438.687 393.359 438.691C393.809 438.697 394.255 438.785 394.674 438.952C395.293 439.169 397.467 440.81 397.402 439.289C397.352 437.81 397.207 436.336 396.967 434.876C396.782 434.237 396.782 433.558 396.967 432.919C397.089 432.633 397.281 432.383 397.527 432.193C397.772 432.002 398.062 431.878 398.37 431.832C398.675 431.79 398.986 431.811 399.283 431.893C399.58 431.976 399.857 432.118 400.098 432.31C401.272 433.234 401.902 434.56 403.011 435.571C403.811 436.316 404.725 436.928 405.717 437.386C409.978 439.256 414.902 437.028 415.152 434.299C415.25 433.713 414.043 433.854 413.891 434.299Z" fill="white"/>
</g>
<defs>
<linearGradient id="paint0_linear_61_2983" x1="310" y1="41" x2="310" y2="399" gradientUnits="userSpaceOnUse">
<stop stop-color="#528E9E" stop-opacity="0.5"/>
<stop offset="1" stop-color="#0B5874"/>
</linearGradient>
</defs>
</svg>
