<svg width="48" height="48" viewBox="0 0 48 48" fill="none" xmlns="http://www.w3.org/2000/svg">
<path d="M11.0482 6.03467C10.653 6.03214 10.2523 6.05155 9.84822 6.09411C4.67603 6.63786 0.866409 10.7687 1.34416 15.3144C1.3541 15.4091 1.36319 15.52 1.37547 15.6128C1.46238 15.4581 1.52941 15.3181 1.63019 15.1638C3.9971 11.5448 9.41547 9.61845 13.7298 10.8752C18.0442 12.1317 19.6224 16.1167 17.2556 19.736C16.9912 20.1411 16.6835 20.4971 16.3481 20.8575C18.8781 19.1259 20.3958 16.3132 20.0838 13.3445C19.6431 9.15364 15.712 6.0658 11.0481 6.03486L11.0482 6.03467ZM46.2048 9.17764C42.2008 17.6148 36.6452 25.4198 30.5458 30.8046C26.3823 34.4805 19.913 37.4094 15.1608 34.5278C12.2763 32.7785 11.1939 27.8891 13.6823 23.6322C8.70813 25.7601 4.89963 33.0625 7.65963 38.7984C11.9393 47.6922 23.1351 47.5767 34.4881 42.7404C39.6827 40.5276 42.8686 38.9231 46.2049 36.6082V33.5083C40.3995 37.6136 35.3211 40.3839 27.7406 42.5289C35.0609 39.1376 39.9548 35.9074 46.2048 30.8593V25.7634C39.8533 32.5547 32.5236 36.666 25.2152 40.281C32.7386 35.8002 39.8266 29.9188 46.2048 22.8329V18.6869C42.1843 24.0625 37.053 28.3272 32.0655 32.7353C37.2047 27.0769 42.162 21.2727 46.2048 14.7369V9.17764Z" fill="url(#paint0_linear_46_4)"/>
<defs>
<linearGradient id="paint0_linear_46_4" x1="-29.4" y1="9.59999" x2="46.2" y2="46.2" gradientUnits="userSpaceOnUse">
<stop stop-color="#1D2226" stop-opacity="0.7"/>
<stop offset="0.51009" stop-color="#1D2226" stop-opacity="0.85"/>
<stop offset="1" stop-color="#1D2226"/>
</linearGradient>
</defs>
</svg>
