<svg width="142" height="18" viewBox="0 0 142 18" fill="none" xmlns="http://www.w3.org/2000/svg">
<path d="M11.232 7.62939e-06C12.96 7.62939e-06 14.328 0.488008 15.336 1.46401C16.36 2.44001 16.872 3.80001 16.872 5.54401C16.872 6.16801 16.8 6.84001 16.656 7.56001L14.76 17.04H11.64L13.56 7.46401C13.672 6.95201 13.728 6.44801 13.728 5.95201C13.728 4.88001 13.432 4.08001 12.84 3.55201C12.248 3.00801 11.384 2.73601 10.248 2.73601C8.93599 2.73601 7.81599 3.12001 6.88799 3.88801C5.97599 4.65601 5.36799 5.81601 5.06399 7.36801L3.11999 17.04H-8.76188e-06L3.35999 0.240007H6.38399L5.99999 2.11201C7.35999 0.704008 9.10399 7.62939e-06 11.232 7.62939e-06ZM27.525 17.28C25.861 17.28 24.421 16.984 23.205 16.392C22.005 15.784 21.085 14.944 20.445 13.872C19.805 12.784 19.485 11.528 19.485 10.104C19.485 8.21601 19.909 6.50401 20.757 4.96801C21.621 3.43201 22.837 2.22401 24.405 1.34401C25.973 0.448008 27.765 7.62939e-06 29.781 7.62939e-06C31.445 7.62939e-06 32.877 0.304008 34.077 0.912007C35.293 1.50401 36.221 2.34401 36.861 3.43201C37.501 4.50401 37.821 5.75201 37.821 7.17601C37.821 9.06401 37.389 10.776 36.525 12.312C35.677 13.848 34.469 15.064 32.901 15.96C31.333 16.84 29.541 17.28 27.525 17.28ZM27.789 14.544C29.149 14.544 30.349 14.224 31.389 13.584C32.445 12.928 33.253 12.056 33.813 10.968C34.389 9.86401 34.677 8.66401 34.677 7.36801C34.677 5.96001 34.221 4.84001 33.309 4.00801C32.413 3.16001 31.141 2.73601 29.493 2.73601C28.133 2.73601 26.925 3.06401 25.869 3.72001C24.829 4.36001 24.029 5.23201 23.469 6.33601C22.909 7.42401 22.629 8.61601 22.629 9.91201C22.629 11.32 23.077 12.448 23.973 13.296C24.869 14.128 26.141 14.544 27.789 14.544ZM53.3497 4.41601C51.9737 3.55201 50.4057 3.01601 48.6457 2.80801L45.7897 17.04H42.6697L45.5497 2.73601C43.5977 2.91201 41.8697 3.44801 40.3657 4.34401L39.5497 1.92001C40.5577 1.29601 41.7337 0.824008 43.0777 0.504008C44.4377 0.168008 45.8217 7.62939e-06 47.2297 7.62939e-06C48.6857 7.62939e-06 50.0537 0.176008 51.3337 0.528008C52.6137 0.864007 53.7497 1.36001 54.7417 2.01601L53.3497 4.41601ZM63.1999 2.61601C61.8079 2.61601 60.7199 2.87201 59.9359 3.38401C59.1519 3.88001 58.7599 4.55201 58.7599 5.40001C58.7599 5.99201 58.9839 6.44801 59.4319 6.76801C59.8799 7.08801 60.5199 7.24801 61.3519 7.24801H65.7919L65.2639 9.84001H60.4159C59.2319 9.84001 58.2879 10.064 57.5839 10.512C56.8959 10.96 56.5519 11.584 56.5519 12.384C56.5519 13.904 57.9119 14.664 60.6319 14.664C61.7679 14.664 62.8399 14.52 63.8479 14.232C64.8719 13.944 65.7199 13.56 66.3919 13.08L67.3039 15.48C66.4719 16.04 65.4239 16.48 64.1599 16.8C62.9119 17.12 61.6079 17.28 60.2479 17.28C58.1359 17.28 56.4639 16.88 55.2319 16.08C53.9999 15.28 53.3839 14.176 53.3839 12.768C53.3839 11.696 53.7119 10.76 54.3679 9.96001C55.0399 9.14401 55.9439 8.56801 57.0799 8.23201C56.6159 7.94401 56.2559 7.56001 55.9999 7.08001C55.7439 6.60001 55.6159 6.05601 55.6159 5.44801C55.6159 4.36001 55.9359 3.40801 56.5759 2.59201C57.2319 1.76001 58.1439 1.12001 59.3119 0.672008C60.4959 0.224008 61.8639 7.62939e-06 63.4159 7.62939e-06C64.5679 7.62939e-06 65.6319 0.112008 66.6079 0.336008C67.5839 0.544008 68.4239 0.856008 69.1279 1.27201L68.0719 3.72001C66.7439 2.98401 65.1199 2.61601 63.1999 2.61601ZM87.2632 7.62939e-06C88.9912 7.62939e-06 90.3592 0.488008 91.3672 1.46401C92.3912 2.44001 92.9032 3.80001 92.9032 5.54401C92.9032 6.16801 92.8312 6.84001 92.6872 7.56001L90.7912 17.04H87.6712L89.5912 7.46401C89.7032 6.95201 89.7592 6.44801 89.7592 5.95201C89.7592 4.88001 89.4632 4.08001 88.8712 3.55201C88.2792 3.00801 87.4152 2.73601 86.2792 2.73601C84.9672 2.73601 83.8472 3.12001 82.9192 3.88801C82.0072 4.65601 81.3992 5.81601 81.0952 7.36801L79.1512 17.04H76.0312L79.3912 0.240007H82.4152L82.0312 2.11201C83.3912 0.704008 85.1352 7.62939e-06 87.2632 7.62939e-06ZM104.684 2.61601C103.292 2.61601 102.204 2.87201 101.42 3.38401C100.636 3.88001 100.244 4.55201 100.244 5.40001C100.244 5.99201 100.468 6.44801 100.916 6.76801C101.364 7.08801 102.004 7.24801 102.836 7.24801H107.276L106.748 9.84001H101.9C100.716 9.84001 99.7722 10.064 99.0682 10.512C98.3802 10.96 98.0362 11.584 98.0362 12.384C98.0362 13.904 99.3962 14.664 102.116 14.664C103.252 14.664 104.324 14.52 105.332 14.232C106.356 13.944 107.204 13.56 107.876 13.08L108.788 15.48C107.956 16.04 106.908 16.48 105.644 16.8C104.396 17.12 103.092 17.28 101.732 17.28C99.6202 17.28 97.9482 16.88 96.7162 16.08C95.4842 15.28 94.8682 14.176 94.8682 12.768C94.8682 11.696 95.1962 10.76 95.8522 9.96001C96.5242 9.14401 97.4282 8.56801 98.5642 8.23201C98.1002 7.94401 97.7402 7.56001 97.4842 7.08001C97.2282 6.60001 97.1002 6.05601 97.1002 5.44801C97.1002 4.36001 97.4202 3.40801 98.0602 2.59201C98.7162 1.76001 99.6282 1.12001 100.796 0.672008C101.98 0.224008 103.348 7.62939e-06 104.9 7.62939e-06C106.052 7.62939e-06 107.116 0.112008 108.092 0.336008C109.068 0.544008 109.908 0.856008 110.612 1.27201L109.556 3.72001C108.228 2.98401 106.604 2.61601 104.684 2.61601ZM116.379 17.28C115.083 17.28 113.843 17.096 112.659 16.728C111.475 16.36 110.547 15.888 109.875 15.312L111.195 12.864C111.899 13.424 112.731 13.872 113.691 14.208C114.667 14.528 115.659 14.688 116.667 14.688C117.899 14.688 118.875 14.48 119.595 14.064C120.331 13.632 120.699 13.048 120.699 12.312C120.699 11.896 120.547 11.552 120.243 11.28C119.955 10.992 119.587 10.76 119.139 10.584C118.707 10.408 118.099 10.208 117.315 9.98401C116.227 9.66401 115.347 9.36001 114.675 9.07201C114.003 8.76801 113.427 8.32001 112.947 7.72801C112.467 7.13601 112.227 6.36801 112.227 5.42401C112.227 4.33601 112.531 3.38401 113.139 2.56801C113.763 1.75201 114.627 1.12001 115.731 0.672008C116.835 0.224008 118.107 7.62939e-06 119.547 7.62939e-06C120.635 7.62939e-06 121.667 0.128008 122.643 0.384008C123.619 0.624008 124.459 0.968008 125.163 1.41601L123.939 3.88801C123.315 3.47201 122.611 3.15201 121.827 2.92801C121.043 2.70401 120.227 2.59201 119.379 2.59201C118.131 2.59201 117.139 2.82401 116.403 3.28801C115.683 3.73601 115.323 4.33601 115.323 5.08801C115.323 5.52001 115.475 5.88001 115.779 6.16801C116.083 6.45601 116.451 6.68801 116.883 6.86401C117.315 7.02401 117.947 7.23201 118.779 7.48801C119.835 7.79201 120.699 8.08801 121.371 8.37601C122.043 8.66401 122.611 9.08801 123.075 9.64801C123.555 10.208 123.795 10.936 123.795 11.832C123.795 12.936 123.483 13.896 122.859 14.712C122.251 15.528 121.379 16.16 120.243 16.608C119.123 17.056 117.835 17.28 116.379 17.28ZM140.045 4.41601C138.669 3.55201 137.101 3.01601 135.341 2.80801L132.485 17.04H129.365L132.245 2.73601C130.293 2.91201 128.565 3.44801 127.061 4.34401L126.245 1.92001C127.253 1.29601 128.429 0.824008 129.773 0.504008C131.133 0.168008 132.517 7.62939e-06 133.925 7.62939e-06C135.381 7.62939e-06 136.749 0.176008 138.029 0.528008C139.309 0.864007 140.445 1.36001 141.437 2.01601L140.045 4.41601Z" fill="#1D2226"/>
</svg>
